<?xml version="1.0" encoding="iso-8859-1"?>
<!-- Generator: Adobe Illustrator 19.0.0, SVG Export Plug-In . SVG Version: 6.00 Build 0)  -->
<svg version="1.1" id="Capa_1" xmlns="http://www.w3.org/2000/svg" xmlns:xlink="http://www.w3.org/1999/xlink" x="0px" y="0px"
	 viewBox="0 0 512 512" style="enable-background:new 0 0 512 512;" xml:space="preserve">
<circle style="fill:#00CC71;" cx="256" cy="256" r="256"/>
<path style="fill:#00AB5E;" d="M512,256c0-4.119-0.107-8.212-0.299-12.283L370.834,102.85l-27.451,53.184L202.01,125.025L168.988,91
	l-12.696,88.615l-6.64,46.736l-26.822,66.494l27.025,27.026l31.781,70.2L299.815,508.25C420.323,487.464,512,382.445,512,256z"/>
<path style="fill:#C10000;" d="M362.348,303.695h-19.336v-77.344h19.336c21.328,0,38.672,17.344,38.672,38.672
	S383.676,303.695,362.348,303.695z"/>
<path style="fill:#F40000;" d="M168.988,303.695h-19.336c-21.328,0-38.672-17.344-38.672-38.672s17.344-38.672,38.672-38.672h19.336
	V303.695z"/>
<path style="fill:#FF3636;" d="M362.348,216.684v96.68C362.348,372.144,314.781,421,256,421s-106.348-48.856-106.348-107.637v-96.68
	c0-58.782,47.567-106.348,106.348-106.348c29.391,0,56.075,11.988,75.217,31.131S362.348,187.293,362.348,216.684z"/>
<path style="fill:#F40000;" d="M362.348,216.684v96.68C362.348,372.144,314.781,421,256,421V110.336
	c29.391,0,56.075,11.988,75.217,31.131S362.348,187.293,362.348,216.684z"/>
<path style="fill:#EDE9E8;" d="M297.765,337.533c-8.508,14.888-24.556,24.17-41.765,24.17s-33.257-9.282-41.765-24.17l16.629-9.668
	c5.22,8.894,14.888,14.502,25.136,14.502c10.249,0,19.917-5.608,25.136-14.502L297.765,337.533z"/>
<path style="fill:#444444;" d="M294.672,303.695c-15.994,0-29.004-13.01-29.004-29.004c0-9.092,4.343-17.769,11.613-23.216
	c5.042-3.786,11.056-5.788,17.391-5.788c15.994,0,29.004,13.01,29.004,29.004S310.666,303.695,294.672,303.695z"/>
<g>
	<path style="fill:#5A5A5A;" d="M217.328,303.695c-15.994,0-29.004-13.01-29.004-29.004s13.01-29.004,29.004-29.004
		c6.326,0,12.34,2.002,17.391,5.788l0,0c7.27,5.448,11.613,14.124,11.613,23.216C246.332,290.685,233.322,303.695,217.328,303.695z"
		/>
	
		<rect x="185.251" y="237.955" transform="matrix(-0.8683 -0.4961 0.4961 -0.8683 266.9381 566.1259)" style="fill:#5A5A5A;" width="46.759" height="19.335"/>
</g>
<rect x="293.706" y="224.218" transform="matrix(-0.4961 -0.8682 0.8682 -0.4961 238.9094 633.8379)" style="fill:#444444;" width="19.333" height="46.755"/>
<path style="fill:#DFD7D5;" d="M294.672,265.023c-2.115,0-4.116,0.661-5.788,1.926c-2.474,1.851-3.88,4.664-3.88,7.742
	c0,5.334,4.334,9.668,9.668,9.668s9.668-4.334,9.668-9.668S300.006,265.023,294.672,265.023z"/>
<path style="fill:#EDE9E8;" d="M217.328,265.023c-5.334,0-9.668,4.334-9.668,9.668s4.334,9.668,9.668,9.668s9.668-4.334,9.668-9.668
	c0-3.078-1.407-5.891-3.871-7.732l-0.009-0.009C221.445,265.684,219.443,265.023,217.328,265.023z"/>
<path style="fill:#444444;" d="M304.34,187.68v-38.672h19.336c10.659,0,19.336-8.677,19.336-19.336V91
	c21.328,0,38.672,17.344,38.672,38.672c0,31.987-26.02,58.008-58.008,58.008H304.34z"/>
<path style="fill:#5A5A5A;" d="M188.324,187.68c-31.987,0-58.008-26.02-58.008-58.008c0-21.328,17.344-38.672,38.672-38.672v38.672
	c0,10.659,8.677,19.336,19.336,19.336h19.336v38.672H188.324z"/>
<path style="fill:#DFD7D5;" d="M297.765,337.533c-8.508,14.888-24.556,24.17-41.765,24.17v-19.336
	c10.249,0,19.917-5.608,25.136-14.502L297.765,337.533z"/>
<g>
</g>
<g>
</g>
<g>
</g>
<g>
</g>
<g>
</g>
<g>
</g>
<g>
</g>
<g>
</g>
<g>
</g>
<g>
</g>
<g>
</g>
<g>
</g>
<g>
</g>
<g>
</g>
<g>
</g>
</svg>
