<?xml version="1.0" encoding="iso-8859-1"?>
<!-- Generator: Adobe Illustrator 19.0.0, SVG Export Plug-In . SVG Version: 6.00 Build 0)  -->
<svg version="1.1" id="Capa_1" xmlns="http://www.w3.org/2000/svg" xmlns:xlink="http://www.w3.org/1999/xlink" x="0px" y="0px"
	 viewBox="0 0 512 512" style="enable-background:new 0 0 512 512;" xml:space="preserve">
<circle style="fill:#FFD400;" cx="256" cy="256" r="256"/>
<path style="fill:#BF9F00;" d="M511.778,266.258L375.437,129.917L117.763,425.5l79.79,79.79C216.326,509.675,235.891,512,256,512
	C393.948,512,506.391,402.885,511.778,266.258z"/>
<path style="fill:#913F02;" d="M394.237,249.171V425.5H117.763V249.171c0-3.134,0.184-6.083,0.553-9.216L256,134.894l27.647-21.197
	C346.683,126.6,394.237,182.264,394.237,249.171z"/>
<path style="fill:#6F2E01;" d="M394.237,249.171V425.5H256V134.894l27.647-21.197C346.683,126.6,394.237,182.264,394.237,249.171z"
	/>
<path style="fill:#F6A96C;" d="M357.374,313.681h-18.432v-73.727h18.432c20.331,0,36.863,16.533,36.863,36.863
	C394.237,297.149,377.705,313.681,357.374,313.681z"/>
<path style="fill:#FFBD86;" d="M173.058,313.681h-18.432c-20.331,0-36.863-16.533-36.863-36.863
	c0-20.331,16.533-36.863,36.863-36.863h18.432L173.058,313.681L173.058,313.681z"/>
<path style="fill:#FED2A4;" d="M357.374,184.66v138.237c0,55.847-45.526,102.603-101.374,102.603s-101.374-46.756-101.374-102.603
	v-82.942l23.04-18.432L256,195.534l88.656-29.306L357.374,184.66z"/>
<path style="fill:#FFBD86;" d="M357.374,184.66v138.237c0,55.847-45.526,102.603-101.374,102.603V195.534l88.656-29.306
	L357.374,184.66z"/>
<path style="fill:#FF641A;" d="M295.812,345.937c-8.11,14.193-23.407,23.04-39.812,23.04s-31.702-8.847-39.812-23.04l15.851-9.216
	c4.976,8.479,14.192,13.824,23.961,13.824c9.769,0,18.985-5.345,23.961-13.824L295.812,345.937z"/>
<rect x="283.65" y="276.82" style="fill:#444444;" width="18.432" height="18.432"/>
<rect x="209.92" y="276.82" style="fill:#5A5A5A;" width="18.432" height="18.432"/>
<path style="fill:#FF4B00;" d="M279.961,336.721l15.851,9.216c-8.11,14.193-23.407,23.04-39.812,23.04v-18.432
	C265.769,350.545,274.985,345.2,279.961,336.721z"/>
<path style="fill:#B34F03;" d="M283.647,113.697v61.747c0,21.749-10.875,41.102-27.647,52.714
	c-10.322,7.556-23.224,11.797-36.863,11.797H118.316c4.608-72.068,64.511-129.021,137.684-129.021
	C265.4,110.933,274.801,111.855,283.647,113.697z"/>
<path style="fill:#913F02;" d="M283.647,113.697v61.747c0,21.749-10.875,41.102-27.647,52.714V110.933
	C265.4,110.933,274.801,111.855,283.647,113.697z"/>
<path style="fill:#FF3636;" d="M394.237,175.444c0-8.848-4.239-16.958-11.243-22.118c1.29-8.479-1.29-17.141-7.558-23.409
	c-6.451-6.451-15.114-9.031-23.592-7.741c-5.161-7.004-13.271-11.243-22.118-11.243s-16.957,4.239-22.118,11.243
	c-8.294-1.29-17.141,1.29-23.407,7.556c-6.452,6.452-9.032,15.114-7.742,23.593c-7.004,5.16-11.243,13.27-11.243,22.118
	c0,8.847,4.239,16.957,11.243,22.118c-1.29,8.478,1.29,17.141,7.558,23.407c6.451,6.452,15.114,9.031,23.592,7.742
	c5.161,7.003,13.271,11.243,22.118,11.243s16.957-4.24,22.118-11.243c8.478,1.289,17.141-1.29,23.407-7.558
	c6.452-6.451,9.032-15.114,7.742-23.592C389.998,192.401,394.237,184.291,394.237,175.444z"/>
<path style="fill:#F40000;" d="M382.994,197.562c1.29,8.478-1.29,17.141-7.742,23.592c-6.266,6.267-14.93,8.847-23.407,7.558
	c-5.161,7.003-13.271,11.243-22.118,11.243V110.933c8.847,0,16.957,4.239,22.118,11.243c8.478-1.29,17.141,1.29,23.592,7.741
	c6.267,6.267,8.848,14.93,7.558,23.409c7.004,5.16,11.243,13.27,11.243,22.118C394.237,184.291,389.998,192.401,382.994,197.562z"/>
<rect x="320.51" y="166.23" style="fill:#FFD400;" width="18.432" height="18.432"/>
<rect x="329.73" y="166.23" style="fill:#FF9F00;" width="9.216" height="18.432"/>
<g>
</g>
<g>
</g>
<g>
</g>
<g>
</g>
<g>
</g>
<g>
</g>
<g>
</g>
<g>
</g>
<g>
</g>
<g>
</g>
<g>
</g>
<g>
</g>
<g>
</g>
<g>
</g>
<g>
</g>
</svg>
