<?xml version="1.0" encoding="iso-8859-1"?>
<!-- Generator: Adobe Illustrator 19.0.0, SVG Export Plug-In . SVG Version: 6.00 Build 0)  -->
<svg version="1.1" id="Capa_1" xmlns="http://www.w3.org/2000/svg" xmlns:xlink="http://www.w3.org/1999/xlink" x="0px" y="0px"
	 viewBox="0 0 512 512" style="enable-background:new 0 0 512 512;" xml:space="preserve">
<circle style="fill:#FFD400;" cx="256" cy="256" r="256"/>
<path style="fill:#BF9F00;" d="M511.455,272.516L375.19,136.251l-25.735-13.572l-11.412-11.396l-226.991,225.74l173.396,173.396
	C407.051,496.861,503.542,396.736,511.455,272.516z"/>
<path style="fill:#FF3636;" d="M413.333,287.369c3.57,11.106,2.974,23.203-1.587,33.913c-10.114,23.996-38.144,36.094-62.933,27.565
	H163.187c-5.355,1.785-10.907,2.578-16.461,2.578c-19.435,0-38.539-11.304-46.473-30.144c-4.561-10.71-5.156-22.807-1.587-33.913
	c-7.734-8.925-11.899-20.229-11.899-31.929c0-11.701,4.165-23.006,11.899-31.929c-3.57-11.107-2.974-23.204,1.587-33.913
	c4.364-10.313,12.561-18.841,22.477-23.997c1.19-11.106,6.148-21.418,14.08-29.351c7.933-7.933,18.245-12.891,29.153-14.081
	c5.354-9.916,13.684-17.452,24.194-21.815c10.709-4.759,22.807-5.156,33.913-1.587c8.925-7.536,20.426-11.503,31.929-11.503
	c11.503,0,23.004,3.967,31.929,11.503c11.106-3.57,23.204-2.974,33.913,1.587c10.51,4.362,18.841,11.899,24.194,21.815
	c10.909,1.19,21.22,6.148,29.153,14.081c7.932,7.933,12.89,18.245,14.08,29.351c9.916,5.156,18.113,13.684,22.477,23.997
	c4.561,10.709,5.156,22.806,1.587,33.913c7.734,8.923,11.899,20.228,11.899,31.929C425.232,267.141,421.067,278.445,413.333,287.369
	z"/>
<path style="fill:#F40000;" d="M413.333,287.369c3.57,11.106,2.974,23.203-1.587,33.913c-10.114,23.996-38.144,36.094-62.933,27.565
	H256V87.265c11.503,0,23.004,3.967,31.929,11.503c11.106-3.57,23.204-2.974,33.913,1.587c10.51,4.362,18.841,11.899,24.194,21.815
	c10.909,1.19,21.22,6.148,29.153,14.081c7.932,7.933,12.89,18.245,14.08,29.351c9.916,5.156,18.113,13.684,22.477,23.997
	c4.561,10.709,5.156,22.806,1.587,33.913c7.734,8.923,11.899,20.228,11.899,31.929C425.232,267.141,421.067,278.445,413.333,287.369
	z"/>
<path style="fill:#FED2A4;" d="M355.952,231.642l-2.578-5.949h-57.71c-14.477,0-28.161-4.562-39.664-12.494
	c-11.701-8.132-20.823-19.832-25.781-33.913l-3.371-9.717l-9.52,3.768c-42.043,15.865-70.403,56.917-70.403,101.936v39.664
	c0,60.09,48.984,110.397,109.075,110.397s109.075-50.307,109.075-110.397v-39.664C365.075,260.2,362.1,245.524,355.952,231.642z"/>
<path style="fill:#FFBD86;" d="M365.075,275.272v39.664c0,60.09-48.984,110.397-109.075,110.397V213.198
	c11.503,7.932,25.187,12.494,39.664,12.494h57.71l2.578,5.949C362.1,245.524,365.075,260.2,365.075,275.272z"/>
<path style="fill:#FF641A;" d="M298.836,339.726c-8.726,15.271-25.186,24.79-42.836,24.79s-34.11-9.519-42.836-24.79l17.055-9.916
	c5.354,9.123,15.27,14.874,25.781,14.874c10.511,0,20.427-5.751,25.781-14.874L298.836,339.726z"/>
<rect x="285.75" y="265.36" style="fill:#444444;" width="19.832" height="19.832"/>
<rect x="206.42" y="265.36" style="fill:#5A5A5A;" width="19.832" height="19.832"/>
<path style="fill:#FF4B00;" d="M281.781,329.81l17.055,9.916c-8.726,15.271-25.186,24.79-42.836,24.79v-19.832
	C266.511,344.684,276.427,338.933,281.781,329.81z"/>
<g>
</g>
<g>
</g>
<g>
</g>
<g>
</g>
<g>
</g>
<g>
</g>
<g>
</g>
<g>
</g>
<g>
</g>
<g>
</g>
<g>
</g>
<g>
</g>
<g>
</g>
<g>
</g>
<g>
</g>
</svg>
