<?xml version="1.0" encoding="iso-8859-1"?>
<!-- Generator: Adobe Illustrator 19.0.0, SVG Export Plug-In . SVG Version: 6.00 Build 0)  -->
<svg version="1.1" id="Capa_1" xmlns="http://www.w3.org/2000/svg" xmlns:xlink="http://www.w3.org/1999/xlink" x="0px" y="0px"
	 viewBox="0 0 512 512" style="enable-background:new 0 0 512 512;" xml:space="preserve">
<circle style="fill:#00ABE9;" cx="256" cy="256" r="256"/>
<path style="fill:#136EF1;" d="M510.874,279.969L316.105,85.2L117.996,294.194l60.997,100.656l114.421,114.42
	C409.293,492.299,499.939,397.703,510.874,279.969z"/>
<path style="fill:#F6A96C;" d="M366.193,305.453h-20.035v-80.141h20.035c22.099,0,40.07,17.971,40.07,40.07
	S388.293,305.453,366.193,305.453z"/>
<path style="fill:#FFBD86;" d="M165.842,305.453h-20.035c-22.099,0-40.07-17.971-40.07-40.07s17.971-40.07,40.07-40.07h20.035
	V305.453z"/>
<path style="fill:#FED2A4;" d="M366.193,265.383v50.088C366.193,376.177,316.707,427,256,427s-110.193-50.823-110.193-111.529
	v-50.088l59.104-60.105H307.09L366.193,265.383z"/>
<path style="fill:#FFBD86;" d="M366.193,265.383v50.088C366.193,376.177,316.707,427,256,427V205.278h51.089L366.193,265.383z"/>
<path style="fill:#FF641A;" d="M299.275,340.515c-8.816,15.427-25.444,25.044-43.275,25.044s-34.46-9.616-43.275-25.044
	l17.23-10.018c5.409,9.217,15.426,15.026,26.045,15.026c10.619,0,20.637-5.81,26.045-15.026L299.275,340.515z"/>
<rect x="286.05" y="265.38" style="fill:#444444;" width="20.04" height="20.04"/>
<rect x="205.91" y="265.38" style="fill:#5A5A5A;" width="20.04" height="20.04"/>
<path style="fill:#FF4B00;" d="M282.045,330.497l17.23,10.018c-8.816,15.427-25.444,25.044-43.275,25.044v-20.035
	C266.619,345.524,276.637,339.714,282.045,330.497z"/>
<path style="fill:#FDBF00;" d="M346.158,150.982v-3.606c0-20.836-8.214-40.136-23.041-54.963l-7.012-7.212l-7.012,7.212
	c-11.02,10.82-26.047,16.696-41.272,16.696H215.93c-24.643,0-45.28,18.031-49.287,41.473c-12.021,4.006-20.836,15.226-20.836,28.65
	v86.151h10.018c24.243,0,44.477-17.23,49.086-40.07H307.09c4.609,22.84,24.843,40.07,49.086,40.07h10.018v-86.151
	C366.193,166.209,357.779,154.989,346.158,150.982z"/>
<path style="fill:#FF9F00;" d="M366.193,179.232v86.151h-10.018c-24.243,0-44.478-17.23-49.086-40.07H256V109.109h11.821
	c15.226,0,30.252-5.876,41.272-16.696l7.012-7.212l7.012,7.212c14.827,14.827,23.041,34.127,23.041,54.963v3.606
	C357.779,154.989,366.193,166.209,366.193,179.232z"/>
<g>
</g>
<g>
</g>
<g>
</g>
<g>
</g>
<g>
</g>
<g>
</g>
<g>
</g>
<g>
</g>
<g>
</g>
<g>
</g>
<g>
</g>
<g>
</g>
<g>
</g>
<g>
</g>
<g>
</g>
</svg>
