<?xml version="1.0" encoding="iso-8859-1"?>
<!-- Generator: Adobe Illustrator 19.0.0, SVG Export Plug-In . SVG Version: 6.00 Build 0)  -->
<svg version="1.1" id="Capa_1" xmlns="http://www.w3.org/2000/svg" xmlns:xlink="http://www.w3.org/1999/xlink" x="0px" y="0px"
	 viewBox="0 0 512 512" style="enable-background:new 0 0 512 512;" xml:space="preserve">
<circle style="fill:#F77E00;" cx="256" cy="256" r="256"/>
<path style="fill:#B95F00;" d="M510.693,282.008L360.69,132.005L108.623,423.682l79.093,79.093C209.457,508.778,232.351,512,256,512
	C388.605,512,497.66,411.177,510.693,282.008z"/>
<path style="fill:#00ABE9;" d="M256,88.318c-81.352,0-147.377,66.025-147.377,147.377v187.987h294.754V235.695
	C403.377,154.342,337.352,88.318,256,88.318z"/>
<path style="fill:#0095FF;" d="M403.377,235.695v187.987H256V88.318C337.352,88.318,403.377,154.342,403.377,235.695z"/>
<polygon style="fill:#5A5A5A;" points="313.182,206.219 198.818,206.219 203.337,186.569 252.07,147.465 258.948,147.465 
	262.485,149.627 308.663,186.569 "/>
<polygon style="fill:#444444;" points="313.182,206.219 256,206.219 256,147.465 258.948,147.465 262.485,149.627 308.663,186.569 
	"/>
<path style="fill:#FED2A4;" d="M364.076,274.995c0,59.541-48.536,108.076-108.076,108.076s-108.076-48.536-108.076-108.076
	c0-57.182,45.589-77.422,55.414-88.426h105.325C319.273,198.359,364.076,216.83,364.076,274.995z"/>
<path style="fill:#FFBD86;" d="M364.076,274.995c0,59.541-48.536,108.076-108.076,108.076V186.569h52.663
	C319.273,198.359,364.076,216.83,364.076,274.995z"/>
<rect x="285.48" y="225.87" style="fill:#444444;" width="19.65" height="19.65"/>
<rect x="206.87" y="225.87" style="fill:#5A5A5A;" width="19.65" height="19.65"/>
<path style="fill:#FF641A;" d="M298.444,299.558c-8.646,15.131-24.955,24.563-42.444,24.563s-33.798-9.432-42.444-24.563
	l16.899-9.825c5.305,9.04,15.13,14.738,25.545,14.738c10.415,0,20.24-5.698,25.545-14.738L298.444,299.558z"/>
<path style="fill:#FF4B00;" d="M281.545,289.733l16.899,9.825c-8.646,15.131-24.955,24.563-42.444,24.563v-19.65
	C266.415,304.471,276.24,298.772,281.545,289.733z"/>
<path style="fill:#EDE9E8;" d="M256,88.318c-16.507,0-29.475,17.292-29.475,39.3s12.969,39.3,29.475,39.3s29.475-17.292,29.475-39.3
	S272.507,88.318,256,88.318z"/>
<path style="fill:#DFD7D5;" d="M256,166.919V88.318c16.507,0,29.475,17.292,29.475,39.3S272.507,166.919,256,166.919z"/>
<g>
</g>
<g>
</g>
<g>
</g>
<g>
</g>
<g>
</g>
<g>
</g>
<g>
</g>
<g>
</g>
<g>
</g>
<g>
</g>
<g>
</g>
<g>
</g>
<g>
</g>
<g>
</g>
<g>
</g>
</svg>
