<?xml version="1.0" encoding="iso-8859-1"?>
<!-- Generator: Adobe Illustrator 19.0.0, SVG Export Plug-In . SVG Version: 6.00 Build 0)  -->
<svg version="1.1" id="Capa_1" xmlns="http://www.w3.org/2000/svg" xmlns:xlink="http://www.w3.org/1999/xlink" x="0px" y="0px"
	 viewBox="0 0 512 512" style="enable-background:new 0 0 512 512;" xml:space="preserve">
<circle style="fill:#FFD400;" cx="256" cy="256" r="256"/>
<path style="fill:#BF9F00;" d="M511.314,274.747L354.41,117.844l-228.664,87.391l20.039,20.039l-27.816,68.894l28,28l32.933,72.749
	L293.275,509.29C410.93,492.124,502.613,394.945,511.314,274.747z"/>
<path style="fill:#F6A96C;" d="M366.215,305.43h-20.039v-80.156h20.039c22.104,0,40.078,17.974,40.078,40.078
	S388.318,305.43,366.215,305.43z"/>
<path style="fill:#FFBD86;" d="M165.824,305.43h-20.039c-22.104,0-40.078-17.974-40.078-40.078s17.974-40.078,40.078-40.078h20.039
	V305.43z"/>
<path style="fill:#FED2A4;" d="M366.215,165.156v150.293C366.215,376.368,316.918,427,256,427s-110.215-50.632-110.215-111.551
	V165.156H366.215z"/>
<path style="fill:#FFBD86;" d="M366.215,165.156v150.293C366.215,376.368,316.918,427,256,427V165.156H366.215z"/>
<path style="fill:#FF641A;" d="M299.284,340.498c-8.817,15.43-25.449,25.049-43.284,25.049s-34.467-9.618-43.284-25.049
	l17.233-10.02c5.41,9.218,15.429,15.029,26.051,15.029c10.621,0,20.641-5.811,26.051-15.029L299.284,340.498z"/>
<path style="fill:#B34F03;" d="M276.039,85h-40.078c-60.719,0-110.215,49.496-110.215,110.215v10.02h154.502l15.83-15.83
	l15.83,15.83h74.345v-10.02C386.254,134.496,336.758,85,276.039,85z"/>
<path style="fill:#FF4B00;" d="M282.051,330.479l17.233,10.02c-8.817,15.43-25.449,25.049-43.284,25.049v-20.039
	C266.621,345.508,276.641,339.697,282.051,330.479z"/>
<path style="fill:#913F02;" d="M386.254,195.215v10.02h-74.345l-15.83-15.83l-15.83,15.83H256V85h20.039
	C336.758,85,386.254,134.496,386.254,195.215z"/>
<path style="fill:#444444;" d="M283.855,253.729l-11.222,16.633c-5.01-3.406-10.822-5.01-16.633-5.01s-11.623,1.603-16.633,5.01
	l-11.222-16.633c8.217-5.61,18.036-8.215,27.855-8.215S275.638,248.118,283.855,253.729z"/>
<path style="fill:#292929;" d="M272.633,270.361c-5.01-3.406-10.822-5.01-16.633-5.01v-19.838c9.819,0,19.638,2.605,27.855,8.215
	L272.633,270.361z"/>
<path style="fill:#5A5A5A;" d="M195.883,325.469c-27.622,0-50.098-22.475-50.098-50.098s22.475-50.098,50.098-50.098
	s50.098,22.475,50.098,50.098S223.505,325.469,195.883,325.469z"/>
<path style="fill:#444444;" d="M316.117,325.469c-27.622,0-50.098-22.475-50.098-50.098s22.475-50.098,50.098-50.098
	s50.098,22.475,50.098,50.098S343.739,325.469,316.117,325.469z"/>
<path style="fill:#EDE9E8;" d="M195.883,245.313c-16.575,0-30.059,13.483-30.059,30.059s13.483,30.059,30.059,30.059
	s30.059-13.483,30.059-30.059S212.458,245.313,195.883,245.313z"/>
<path style="fill:#DFD7D5;" d="M316.117,245.313c-16.575,0-30.059,13.483-30.059,30.059s13.483,30.059,30.059,30.059
	s30.059-13.483,30.059-30.059S332.692,245.313,316.117,245.313z"/>
<rect x="306.1" y="265.35" style="fill:#444444;" width="20.04" height="20.04"/>
<rect x="185.86" y="265.35" style="fill:#5A5A5A;" width="20.04" height="20.04"/>
<g>
</g>
<g>
</g>
<g>
</g>
<g>
</g>
<g>
</g>
<g>
</g>
<g>
</g>
<g>
</g>
<g>
</g>
<g>
</g>
<g>
</g>
<g>
</g>
<g>
</g>
<g>
</g>
<g>
</g>
</svg>
