<?xml version="1.0" encoding="iso-8859-1"?>
<!-- Generator: Adobe Illustrator 19.0.0, SVG Export Plug-In . SVG Version: 6.00 Build 0)  -->
<svg version="1.1" id="Capa_1" xmlns="http://www.w3.org/2000/svg" xmlns:xlink="http://www.w3.org/1999/xlink" x="0px" y="0px"
	 viewBox="0 0 512 512" style="enable-background:new 0 0 512 512;" xml:space="preserve">
<circle style="fill:#FF3636;" cx="256" cy="256" r="256"/>
<path style="fill:#C10000;" d="M506.842,307.367L353.728,154.252l-210.166,72.583l-20.731,66.011l27,27l31.358,69.092
	l119.215,119.215C403.868,490.058,485.968,409.848,506.842,307.367z"/>
<path style="fill:#F6A96C;" d="M362.348,303.695h-19.336v-77.344h19.336c21.328,0,38.672,17.344,38.672,38.672
	S383.676,303.695,362.348,303.695z"/>
<path style="fill:#FFBD86;" d="M168.988,303.695h-19.336c-21.328,0-38.672-17.344-38.672-38.672s17.344-38.672,38.672-38.672h19.336
	V303.695z"/>
<path style="fill:#FED2A4;" d="M362.348,284.359v24.943c0,56.461-42.152,106.09-95.907,111.117C262.961,420.806,259.48,421,256,421
	h-0.194c-26.49,0-51.433-10.957-71.35-28.939c-22.043-20.11-34.804-48.727-34.804-78.697V284.36l58.008-67.676h96.68
	L362.348,284.359z"/>
<path style="fill:#FFBD86;" d="M362.348,284.359v24.943c0,56.461-42.152,106.09-95.907,111.117C262.961,420.806,259.48,421,256,421
	V216.684h48.34L362.348,284.359z"/>
<path style="fill:#444444;" d="M305.318,245.688c4.492,22.037,24.019,38.672,47.361,38.672h9.668v-38.672l-18.127-19.336
	L305.318,245.688z"/>
<path style="fill:#5A5A5A;" d="M149.652,245.688v38.672h9.668c23.343,0,42.87-16.635,47.361-38.672l-31.047-19.336L149.652,245.688z
	"/>
<path style="fill:#FF641A;" d="M297.765,337.533c-8.508,14.889-24.556,24.17-41.765,24.17s-33.257-9.281-41.765-24.17l16.629-9.668
	c5.22,8.895,14.888,14.502,25.136,14.502c10.249,0,19.917-5.607,25.136-14.502L297.765,337.533z"/>
<rect x="285" y="265.02" style="fill:#444444;" width="19.336" height="19.336"/>
<rect x="207.66" y="265.02" style="fill:#5A5A5A;" width="19.336" height="19.336"/>
<path style="fill:#FF4B00;" d="M281.136,327.865l16.629,9.668c-8.508,14.889-24.556,24.17-41.765,24.17v-19.336
	C266.249,342.367,275.917,336.76,281.136,327.865z"/>
<path style="fill:#FDBF00;" d="M372.789,207.016c-0.579,5.413-1.354,10.828-3.093,16.048l-7.541,22.624H149.846l-7.541-22.624
	c-1.74-5.22-2.514-10.635-3.093-16.048l26.49-19.336h188.525L372.789,207.016z"/>
<path style="fill:#FF9F00;" d="M372.789,207.016c-0.579,5.413-1.354,10.828-3.093,16.048l-7.541,22.624H256V187.68h98.227
	L372.789,207.016z"/>
<path style="fill:#EDE9E8;" d="M372.789,207.016H139.211c-0.387-6.575,0-12.956,1.354-19.336
	c3.48-16.822,13.341-32.292,28.423-42.346L256,91l87.012,54.334c15.083,10.054,24.943,25.524,28.423,42.346
	C372.789,194.06,373.176,200.441,372.789,207.016z"/>
<polygon style="fill:#FDBF00;" points="285.004,149.008 285.004,168.344 265.668,168.344 265.668,207.016 246.332,207.016 
	246.332,168.344 226.996,168.344 226.996,149.008 246.332,149.008 246.332,129.672 265.668,129.672 265.668,149.008 "/>
<path style="fill:#DFD7D5;" d="M372.789,207.016H256V91l87.012,54.334c15.083,10.054,24.943,25.524,28.423,42.346
	C372.789,194.06,373.176,200.441,372.789,207.016z"/>
<polygon style="fill:#FF9F00;" points="285.004,149.008 285.004,168.344 265.668,168.344 265.668,207.016 256,207.016 256,129.672 
	265.668,129.672 265.668,149.008 "/>
<g>
</g>
<g>
</g>
<g>
</g>
<g>
</g>
<g>
</g>
<g>
</g>
<g>
</g>
<g>
</g>
<g>
</g>
<g>
</g>
<g>
</g>
<g>
</g>
<g>
</g>
<g>
</g>
<g>
</g>
</svg>
