<?xml version="1.0" encoding="iso-8859-1"?>
<!-- Generator: Adobe Illustrator 19.0.0, SVG Export Plug-In . SVG Version: 6.00 Build 0)  -->
<svg version="1.1" id="Capa_1" xmlns="http://www.w3.org/2000/svg" xmlns:xlink="http://www.w3.org/1999/xlink" x="0px" y="0px"
	 viewBox="0 0 512 512" style="enable-background:new 0 0 512 512;" xml:space="preserve">
<circle style="fill:#FFD400;" cx="256" cy="256" r="256"/>
<path style="fill:#BF9F00;" d="M512,256c0-3.066-0.073-6.114-0.18-9.154l-89.153-89.153l-65.239,2.623l-41.765-41.753
	L101.379,292.975l27.898,27.905l32.143,70.466l119.448,119.449C410.583,498.288,512,388.994,512,256z"/>
<path style="fill:#F40000;" d="M422.667,167.458v-9.766h-49.479c-23.578,0-43.303,16.803-47.84,39.063h-0.988v9.766v9.766h0.988
	c4.537,22.26,24.261,39.063,47.84,39.063h49.479v-9.766c0-16.029-7.868-30.155-19.833-39.063
	C414.799,197.614,422.667,183.487,422.667,167.458z"/>
<path style="fill:#FF3636;" d="M343.891,186.99l-69.727,19.531h-75.39l-69.727-19.531c0-12.891,2.539-25.001,7.031-36.328
	l54.297-54.297c11.327-4.492,23.438-7.031,36.328-7.031h19.531c12.89,0,25.001,2.539,36.328,7.031l54.297,54.297
	C341.351,161.989,343.891,174.098,343.891,186.99z"/>
<g>
	<path style="fill:#F40000;" d="M343.891,186.99l-69.727,19.531h-37.695V89.333h9.766c12.89,0,25.001,2.539,36.328,7.031
		l54.297,54.297C341.351,161.989,343.891,174.098,343.891,186.99z"/>
	<path style="fill:#F40000;" d="M168.109,167.458c21.544,0,39.063-17.519,39.063-39.063c0-13.216-6.63-24.869-16.7-31.941
		c-24.736,9.91-44.394,29.567-54.303,54.303C143.24,160.828,154.894,167.458,168.109,167.458z"/>
	<path style="fill:#F40000;" d="M274.164,186.99l-37.695,16.992l-5.664,2.539l-32.032-19.531
		c4.296-16.797,19.531-29.297,37.695-29.297S269.868,170.193,274.164,186.99z"/>
</g>
<g>
	<path style="fill:#C10000;" d="M265.766,128.396c0,21.544,17.519,39.063,39.063,39.063c13.216,0,24.869-6.63,31.941-16.7
		c-9.91-24.736-29.568-44.394-54.303-54.303C272.396,103.526,265.766,115.18,265.766,128.396z"/>
	<path style="fill:#C10000;" d="M274.164,186.99l-37.695,16.992v-46.289C254.633,157.693,269.868,170.193,274.164,186.99z"/>
</g>
<path style="fill:#F6A96C;" d="M343.891,304.177H324.36v-78.125h19.531c21.544,0,39.063,17.519,39.063,39.063
	C382.953,286.658,365.434,304.177,343.891,304.177z"/>
<path style="fill:#FFBD86;" d="M148.578,304.177h-19.531c-21.544,0-39.714-17.519-39.714-39.063
	c0-21.544,18.17-39.063,39.714-39.063h19.531V304.177z"/>
<path style="fill:#FED2A4;" d="M343.891,226.052v87.891c0,59.179-48.242,108.724-107.422,108.724s-107.422-49.545-107.422-108.724
	v-87.891l24.414-19.531h176.953L343.891,226.052z"/>
<path style="fill:#FFBD86;" d="M343.891,226.052v87.891c0,59.179-48.242,108.724-107.422,108.724V206.521h93.945L343.891,226.052z"
	/>
<path style="fill:#FF641A;" d="M278.656,338.357c-8.594,15.039-24.804,24.414-42.187,24.414s-33.593-9.375-42.187-24.414
	l16.797-9.766c5.273,8.985,15.038,14.648,25.39,14.648s20.118-5.664,25.39-14.648L278.656,338.357z"/>
<rect x="265.77" y="265.12" style="fill:#444444;" width="19.531" height="19.531"/>
<rect x="187.64" y="265.12" style="fill:#5A5A5A;" width="19.531" height="19.531"/>
<path style="fill:#FF4B00;" d="M261.859,328.591l16.797,9.766c-8.594,15.039-24.804,24.414-42.187,24.414V343.24
	C246.821,343.24,256.587,337.576,261.859,328.591z"/>
<rect x="129.05" y="186.99" style="fill:#F40000;" width="214.84" height="39.06"/>
<rect x="236.47" y="186.99" style="fill:#C10000;" width="107.42" height="39.06"/>
<g>
</g>
<g>
</g>
<g>
</g>
<g>
</g>
<g>
</g>
<g>
</g>
<g>
</g>
<g>
</g>
<g>
</g>
<g>
</g>
<g>
</g>
<g>
</g>
<g>
</g>
<g>
</g>
<g>
</g>
</svg>
