<?xml version="1.0" encoding="iso-8859-1"?>
<!-- Generator: Adobe Illustrator 19.0.0, SVG Export Plug-In . SVG Version: 6.00 Build 0)  -->
<svg version="1.1" id="Capa_1" xmlns="http://www.w3.org/2000/svg" xmlns:xlink="http://www.w3.org/1999/xlink" x="0px" y="0px"
	 viewBox="0 0 512 512" style="enable-background:new 0 0 512 512;" xml:space="preserve">
<circle style="fill:#F77E00;" cx="256" cy="256" r="256"/>
<path style="fill:#B95F00;" d="M511.877,263.652L425.5,177.275l-31.507,41.732L261.165,86.5L115.126,300.649l33.299,33.313
	l31.482,59.911L295.07,509.036C415.455,490.601,508.216,388.306,511.877,263.652z"/>
<path style="fill:#EDE9E8;" d="M361.673,207.467l-22.446,19.863h-174.4l-14.5-19.863c6.555-25.028,22.048-46.877,43.501-61.775
	c21.652-15.096,37.741-30.589,48.665-47.275l7.945-11.917h10.727l8.342,11.917c10.925,16.686,27.014,32.178,48.665,47.275
	C339.625,160.59,355.118,182.439,361.673,207.467z"/>
<g>
	<path style="fill:#DFD7D5;" d="M361.673,207.467l-22.446,19.863H256V86.5h5.165l8.342,11.917
		c10.925,16.686,27.014,32.178,48.665,47.275C339.625,160.59,355.118,182.439,361.673,207.467z"/>
	<path style="fill:#DFD7D5;" d="M425.5,177.275v55.02c0,41.714-27.279,78.858-67.006,91.967H153.506
		C113.779,311.154,86.5,274.009,86.5,232.296v-55.02l26.285,16.883c26.816,18.075,62.172,18.87,89.782,2.185
		c16.487-9.733,34.96-14.699,53.432-14.699s36.945,4.966,53.432,14.699c27.61,16.686,63.628,15.89,90.445-2.185L425.5,177.275z"/>
</g>
<path style="fill:#D2C5C2;" d="M425.5,177.275v55.02c0,41.714-27.279,78.858-67.006,91.967H256V181.645
	c18.473,0,36.945,4.966,53.432,14.699c27.61,16.686,63.628,15.89,90.445-2.185L425.5,177.275z"/>
<path style="fill:#FED2A4;" d="M352.734,247.989c-22.446,0-44.494-5.96-63.762-17.48c-9.932-6.158-21.451-9.138-32.973-9.138
	c-11.521,0-23.041,2.98-32.973,9.138c-19.268,11.52-41.316,17.48-63.762,17.48l-12.514-0.199v67.138
	c0,60.185,49.062,110.572,109.248,110.572s109.248-50.387,109.248-110.572V247.79L352.734,247.989z"/>
<path style="fill:#FFBD86;" d="M365.248,247.79v67.138c0,60.185-49.062,110.572-109.248,110.572V221.371
	c11.521,0,23.041,2.98,32.973,9.138c19.268,11.52,41.316,17.48,63.762,17.48L365.248,247.79z"/>
<path style="fill:#FF641A;" d="M298.904,339.757c-8.74,15.295-25.226,24.829-42.904,24.829s-34.164-9.534-42.904-24.829
	l17.082-9.932c5.362,9.138,15.294,14.897,25.822,14.897c10.528,0,20.46-5.76,25.822-14.897L298.904,339.757z"/>
<rect x="285.8" y="265.27" style="fill:#444444;" width="19.863" height="19.863"/>
<rect x="206.34" y="265.27" style="fill:#5A5A5A;" width="19.863" height="19.863"/>
<path style="fill:#FF4B00;" d="M281.822,329.825l17.082,9.932c-8.74,15.295-25.226,24.829-42.904,24.829v-19.863
	C266.528,344.723,276.46,338.963,281.822,329.825z"/>
<g>
</g>
<g>
</g>
<g>
</g>
<g>
</g>
<g>
</g>
<g>
</g>
<g>
</g>
<g>
</g>
<g>
</g>
<g>
</g>
<g>
</g>
<g>
</g>
<g>
</g>
<g>
</g>
<g>
</g>
</svg>
