<?xml version="1.0" encoding="iso-8859-1"?>
<!-- Generator: Adobe Illustrator 19.0.0, SVG Export Plug-In . SVG Version: 6.00 Build 0)  -->
<svg version="1.1" id="Capa_1" xmlns="http://www.w3.org/2000/svg" xmlns:xlink="http://www.w3.org/1999/xlink" x="0px" y="0px"
	 viewBox="0 0 512 512" style="enable-background:new 0 0 512 512;" xml:space="preserve">
<circle style="fill:#00ABE9;" cx="256" cy="256" r="256"/>
<path style="fill:#0095FF;" d="M511.257,275.646L343.483,107.872l-226.324,166.36l19.819,19.828l6.281,75.01l141.333,141.333
	C406.097,496.896,501.943,398.369,511.257,275.646z"/>
<path style="fill:#FF3636;" d="M366.859,164.625l-19.551,20.156H165.902l-20.762-20.156c0-22.173,9.071-42.329,23.582-57.043
	C183.438,93.071,203.594,84,225.766,84h60.469C330.78,84,366.859,120.079,366.859,164.625z"/>
<path style="fill:#F40000;" d="M366.859,164.625l-19.551,20.156H256V84h30.234C330.78,84,366.859,120.079,366.859,164.625z"/>
<path style="fill:#F6A96C;" d="M366.859,285.563h-20.156v-80.625h20.156c22.233,0,40.313,18.08,40.313,40.313
	S389.092,285.563,366.859,285.563z"/>
<path style="fill:#FFBD86;" d="M165.297,285.563h-20.156c-22.233,0-40.313-18.08-40.313-40.313s18.08-40.313,40.313-40.313h20.156
	V285.563z"/>
<path style="fill:#FED2A4;" d="M366.859,204.938v80.625l-73.369,20.156c-11.69-6.248-24.59-9.272-37.49-9.272
	s-25.801,3.024-37.49,9.272l-73.369-20.156v-80.625l29.025-20.156h172.537L366.859,204.938z"/>
<path style="fill:#FFBD86;" d="M366.859,204.938v80.625l-73.369,20.156c-11.69-6.248-24.59-9.272-37.49-9.272V184.781h90.703
	L366.859,204.938z"/>
<rect x="205.61" y="225.09" style="fill:#5A5A5A;" width="20.16" height="20.16"/>
<path style="fill:#EDE9E8;" d="M387.016,325.875c0,35.475-31.04,64.097-67.121,60.065C308.406,410.732,283.816,428,256,428
	s-52.608-17.469-63.895-42.06c-2.218,0.202-4.435,0.404-6.652,0.404c-33.258,0-60.469-27.212-60.469-60.469
	c0-7.659,1.613-14.11,4.434-20.156c3.427-7.256,8.668-13.706,15.722-20.156h73.369c11.69-6.248,24.59-9.272,37.49-9.272
	s25.801,3.024,37.49,9.272h73.369c7.054,6.45,12.295,12.9,15.722,20.156C385.403,311.765,387.016,318.216,387.016,325.875z"/>
<path style="fill:#DFD7D5;" d="M387.016,325.875c0,35.475-31.04,64.097-67.121,60.065C308.406,410.732,283.816,428,256,428V276.29
	c12.9,0,25.801,3.024,37.49,9.272h73.369c7.054,6.45,12.295,12.9,15.722,20.156C385.403,311.765,387.016,318.216,387.016,325.875z"
	/>
<rect x="145.14" y="164.62" style="fill:#EDE9E8;" width="221.72" height="40.31"/>
<rect x="286.23" y="225.09" style="fill:#444444;" width="20.16" height="20.16"/>
<rect x="267.811" y="144.468" transform="matrix(-0.7071 -0.7071 0.7071 -0.7071 396.5638 473.3483)" style="fill:#C10000;" width="57.009" height="20.15"/>
<rect x="225.77" y="325.87" style="fill:#FF641A;" width="60.47" height="20.16"/>
<rect x="256" y="164.62" style="fill:#DFD7D5;" width="110.86" height="40.31"/>
<rect x="256" y="325.87" style="fill:#FF4B00;" width="30.23" height="20.16"/>
<path style="fill:#EDE9E8;" d="M346.703,225.094c-22.233,0-40.313-18.08-40.313-40.313s18.08-40.313,40.313-40.313
	s40.313,18.08,40.313,40.313S368.936,225.094,346.703,225.094z"/>
<g>
</g>
<g>
</g>
<g>
</g>
<g>
</g>
<g>
</g>
<g>
</g>
<g>
</g>
<g>
</g>
<g>
</g>
<g>
</g>
<g>
</g>
<g>
</g>
<g>
</g>
<g>
</g>
<g>
</g>
</svg>
