<?xml version="1.0" encoding="iso-8859-1"?>
<!-- Generator: Adobe Illustrator 19.0.0, SVG Export Plug-In . SVG Version: 6.00 Build 0)  -->
<svg version="1.1" id="Capa_1" xmlns="http://www.w3.org/2000/svg" xmlns:xlink="http://www.w3.org/1999/xlink" x="0px" y="0px"
	 viewBox="0 0 512 512" style="enable-background:new 0 0 512 512;" xml:space="preserve">
<circle style="fill:#FFD400;" cx="256" cy="256" r="256"/>
<path style="fill:#BF9F00;" d="M512,256c0-18.43-1.965-36.399-5.665-53.725L389.06,85L145.583,222.21l-36.869,0.057l17.949,17.908
	l-8.693,64.012l29.283,29.297l31.649,61.432L293.275,509.29C416.99,491.24,512,384.722,512,256z"/>
<path style="fill:#5A5A5A;" d="M389.06,85l-8.617,34.267c-5.411,21.641-9.018,43.685-11.422,65.928l-11.222,20.039H166.426
	l-23.447-20.039c-2.405-22.243-6.011-44.287-11.422-65.928L122.94,85H389.06z"/>
<path style="fill:#444444;" d="M357.799,205.234H256V85h133.06l-8.617,34.267c-5.411,21.641-9.018,43.685-11.422,65.928
	L357.799,205.234z"/>
<path style="fill:#0095FF;" d="M369.021,185.195c-1.804,16.632-2.806,33.264-2.806,50.098h-220.43
	c0-16.833-1.002-33.466-2.806-50.098H369.021z"/>
<path style="fill:#136EF1;" d="M369.021,185.195c-1.804,16.632-2.806,33.264-2.806,50.098H256v-50.098H369.021z"/>
<path style="fill:#F6A96C;" d="M366.215,315.449h-20.039v-80.156h20.039c22.104,0,40.078,17.974,40.078,40.078
	S388.319,315.449,366.215,315.449z"/>
<path style="fill:#FFBD86;" d="M165.824,315.449h-20.039c-22.104,0-40.078-17.974-40.078-40.078s17.974-40.078,40.078-40.078h20.039
	V315.449z"/>
<path style="fill:#FED2A4;" d="M366.215,235.293v80.156C366.215,376.368,316.918,427,256,427s-110.215-50.632-110.215-111.551
	v-80.156H366.215z"/>
<path style="fill:#FFBD86;" d="M366.215,235.293v80.156C366.215,376.368,316.918,427,256,427V235.293H366.215z"/>
<path style="fill:#B34F03;" d="M306.098,345.508v20.039h-3.006c-17.434,0-34.266-6.413-47.091-18.036
	c-12.825,11.623-29.657,18.036-47.091,18.036h-3.006v-20.039h3.006c14.428,0,28.054-6.011,37.674-16.633l3.005-3.406h12.825
	l3.005,3.406c9.62,10.621,23.246,16.633,37.674,16.633H306.098z"/>
<rect x="286.06" y="265.35" style="fill:#444444;" width="20.04" height="20.04"/>
<g>
	<rect x="205.9" y="265.35" style="fill:#5A5A5A;" width="20.04" height="20.04"/>
	<path style="fill:#5A5A5A;" d="M403.287,222.267c-14.628,14.628-34.667,23.045-55.307,23.045H164.02
		c-20.64,0-40.679-8.417-55.307-23.045l14.026-14.028c11.022,10.822,26.052,17.034,41.28,17.034h183.96
		c15.229,0,30.258-6.212,41.28-17.034L403.287,222.267z"/>
</g>
<path style="fill:#913F02;" d="M303.091,345.508h3.006v20.039h-3.006c-17.434,0-34.266-6.413-47.091-18.036v-22.043h6.413
	l3.005,3.406C275.037,339.496,288.664,345.508,303.091,345.508z"/>
<path style="fill:#444444;" d="M403.287,222.267c-14.628,14.628-34.667,23.045-55.307,23.045H256v-20.039h91.98
	c15.229,0,30.258-6.212,41.28-17.034L403.287,222.267z"/>
<g>
</g>
<g>
</g>
<g>
</g>
<g>
</g>
<g>
</g>
<g>
</g>
<g>
</g>
<g>
</g>
<g>
</g>
<g>
</g>
<g>
</g>
<g>
</g>
<g>
</g>
<g>
</g>
<g>
</g>
</svg>
