<?xml version="1.0" encoding="iso-8859-1"?>
<!-- Generator: Adobe Illustrator 19.0.0, SVG Export Plug-In . SVG Version: 6.00 Build 0)  -->
<svg version="1.1" id="Capa_1" xmlns="http://www.w3.org/2000/svg" xmlns:xlink="http://www.w3.org/1999/xlink" x="0px" y="0px"
	 viewBox="0 0 512 512" style="enable-background:new 0 0 512 512;" xml:space="preserve">
<circle style="fill:#FF3636;" cx="256" cy="256" r="256"/>
<path style="fill:#C10000;" d="M511.363,273.966L427,189.603L85,202.228l60.785,60.566l33.193,132.049l114.428,114.428
	C411.252,492.016,503.006,394.479,511.363,273.966z"/>
<rect x="386.92" y="211.85" style="fill:#FF9F00;" width="20.04" height="143.68"/>
<rect x="396.94" y="211.85" style="fill:#F77E00;" width="10.02" height="143.68"/>
<polygon style="fill:#444444;" points="427,189.603 427,202.228 362.674,249.12 149.994,249.12 85,202.228 85,189.603 250.99,85 
	261.01,85 "/>
<polygon style="fill:#292929;" points="427,189.603 427,202.228 362.674,249.12 256,249.12 256,85 261.01,85 "/>
<path style="fill:#5A5A5A;" d="M366.883,208.841v40.078H256l-110.215-0.201V208.84c36.271-16.031,75.347-23.646,110.215-23.646
	S330.612,192.81,366.883,208.841z"/>
<path style="fill:#444444;" d="M366.883,208.841v40.078H256v-63.724C290.868,185.195,330.612,192.81,366.883,208.841z"/>
<path style="fill:#FED2A4;" d="M366.883,248.919v66.53C366.883,376.168,316.719,427,256,427s-110.215-50.832-110.215-111.551
	c0,0,0-63.323,0-66.73c30.66-12.625,65.729-23.445,110.215-23.445C303.091,225.273,337.826,236.495,366.883,248.919z"/>
<path style="fill:#FFBD86;" d="M366.883,248.919v66.53C366.883,376.168,316.719,427,256,427V225.273
	C303.091,225.273,337.826,236.495,366.883,248.919z"/>
<path style="fill:#FF641A;" d="M299.284,340.498c-8.817,15.43-25.449,25.049-43.284,25.049s-34.467-9.618-43.284-25.049
	l17.233-10.02c5.41,9.218,15.429,15.029,26.051,15.029c10.621,0,20.641-5.811,26.051-15.029L299.284,340.498z"/>
<rect x="286.06" y="265.35" style="fill:#444444;" width="20.04" height="20.04"/>
<rect x="205.9" y="265.35" style="fill:#5A5A5A;" width="20.04" height="20.04"/>
<path style="fill:#FFB64C;" d="M396.941,345.508c-16.633,0-30.059,13.426-30.059,30.059V427H427v-51.434
	C427,358.934,413.574,345.508,396.941,345.508z"/>
<path style="fill:#FF9F00;" d="M427,375.566V427h-30.059v-81.492C413.574,345.508,427,358.934,427,375.566z"/>
<path style="fill:#FF4B00;" d="M282.051,330.479l17.233,10.02c-8.817,15.43-25.449,25.049-43.284,25.049v-20.039
	C266.621,345.508,276.641,339.697,282.051,330.479z"/>
<g>
</g>
<g>
</g>
<g>
</g>
<g>
</g>
<g>
</g>
<g>
</g>
<g>
</g>
<g>
</g>
<g>
</g>
<g>
</g>
<g>
</g>
<g>
</g>
<g>
</g>
<g>
</g>
<g>
</g>
</svg>
