<?xml version="1.0" encoding="iso-8859-1"?>
<!-- Generator: Adobe Illustrator 19.0.0, SVG Export Plug-In . SVG Version: 6.00 Build 0)  -->
<svg version="1.1" id="Capa_1" xmlns="http://www.w3.org/2000/svg" xmlns:xlink="http://www.w3.org/1999/xlink" x="0px" y="0px"
	 viewBox="0 0 512 512" style="enable-background:new 0 0 512 512;" xml:space="preserve">
<circle style="fill:#FFD400;" cx="256" cy="256" r="256"/>
<path style="fill:#BF9F00;" d="M510.934,279.297L342.992,111.355L130.316,381.039l130.895,130.895
	C392.371,509.313,499.315,408.059,510.934,279.297z"/>
<path style="fill:#FED2A4;" d="M362.348,245.688v67.676C362.348,371.951,314.588,421,256,421s-106.348-49.049-106.348-107.637
	v-67.676l24.17-19.336h175.184L362.348,245.688z"/>
<path style="fill:#FFBD86;" d="M362.348,245.688v67.676C362.348,371.951,314.588,421,256,421V226.352h93.006L362.348,245.688z"/>
<path style="fill:#B34F03;" d="M362.348,158.676v87.012H149.652v-87.012c0-37.318,30.358-67.676,67.676-67.676h77.344
	C331.99,91,362.348,121.358,362.348,158.676z"/>
<path style="fill:#913F02;" d="M362.348,158.676v87.012H256V91h38.672C331.99,91,362.348,121.358,362.348,158.676z"/>
<rect x="343.01" y="197.35" width="19.336" height="19.336"/>
<rect x="236.66" y="187.68" style="fill:#444444;" width="38.672" height="19.336"/>
<path style="fill:#913F02;" d="M139.984,381.039h-9.668V274.691c0-26.653,21.687-48.34,48.34-48.34h9.668v106.348
	C188.324,359.352,166.637,381.039,139.984,381.039z"/>
<path style="fill:#6F2E01;" d="M381.684,381.039h-9.668c-26.653,0-48.34-21.687-48.34-48.34V226.352h9.668
	c26.653,0,48.34,21.687,48.34,48.34V381.039z"/>
<path style="fill:#FF641A;" d="M297.765,337.533c-8.508,14.889-24.556,24.17-41.765,24.17s-33.257-9.281-41.765-24.17l16.629-9.668
	c5.22,8.895,14.888,14.502,25.136,14.502c10.249,0,19.917-5.607,25.136-14.502L297.765,337.533z"/>
<rect x="285" y="265.02" style="fill:#444444;" width="19.336" height="19.336"/>
<rect x="207.66" y="265.02" style="fill:#5A5A5A;" width="19.336" height="19.336"/>
<path style="fill:#FF4B00;" d="M281.136,327.865l16.629,9.668c-8.508,14.889-24.556,24.17-41.765,24.17v-19.336
	C266.249,342.367,275.917,336.76,281.136,327.865z"/>
<rect x="256" y="187.68" style="fill:#292929;" width="19.336" height="19.336"/>
<path style="fill:#444444;" d="M362.348,245.688h-48.34c-26.653,0-48.34-21.687-48.34-48.34c0-15.994,13.01-29.004,29.004-29.004
	h38.672c15.994,0,29.004,13.01,29.004,29.004V245.688z"/>
<path style="fill:#DFD7D5;" d="M314.008,226.352c-15.994,0-29.004-13.01-29.004-29.004c0-5.334,4.334-9.668,9.668-9.668h38.672
	c5.334,0,9.668,4.334,9.668,9.668v29.004H314.008z"/>
<path style="fill:#5A5A5A;" d="M197.992,245.688h-48.34v-48.34c0-15.994,13.01-29.004,29.004-29.004h38.672
	c15.994,0,29.004,13.01,29.004,29.004C246.332,224.001,224.645,245.688,197.992,245.688z"/>
<path style="fill:#EDE9E8;" d="M168.988,226.352v-29.004c0-5.334,4.334-9.668,9.668-9.668h38.672c5.334,0,9.668,4.334,9.668,9.668
	c0,15.994-13.01,29.004-29.004,29.004H168.988z"/>
<g>
</g>
<g>
</g>
<g>
</g>
<g>
</g>
<g>
</g>
<g>
</g>
<g>
</g>
<g>
</g>
<g>
</g>
<g>
</g>
<g>
</g>
<g>
</g>
<g>
</g>
<g>
</g>
<g>
</g>
</svg>
