<?xml version="1.0" encoding="iso-8859-1"?>
<!-- Generator: Adobe Illustrator 19.0.0, SVG Export Plug-In . SVG Version: 6.00 Build 0)  -->
<svg version="1.1" id="Capa_1" xmlns="http://www.w3.org/2000/svg" xmlns:xlink="http://www.w3.org/1999/xlink" x="0px" y="0px"
	 viewBox="0 0 512 512" style="enable-background:new 0 0 512 512;" xml:space="preserve">
<circle style="fill:#00ABE9;" cx="256" cy="256" r="256"/>
<path style="fill:#136EF1;" d="M512,256c0-11.724-0.805-23.258-2.331-34.564L390.234,102.001L337.546,126.2L193.417,114l-26.358-27
	l-44.419,84.699l24.654,24.661L179.5,236.5l-59.634,56.811l27.64,27.656L178.75,344.5l-31.456,19.206l145.633,145.632
	C416.812,491.438,512,384.843,512,256z"/>
<path style="fill:#444444;" d="M354.824,87h-9.882v29.647c0,5.453-4.43,9.882-9.882,9.882h-6.997l24.272,59.294h2.49
	c27.244,0,49.412-22.168,49.412-49.412S382.068,87,354.824,87z"/>
<path style="fill:#5A5A5A;" d="M176.941,126.529c-5.453,0-9.882-4.43-9.882-9.882V87h-9.882c-27.244,0-49.412,22.168-49.412,49.412
	s22.168,49.412,49.412,49.412h2.49l24.272-59.294h-6.998V126.529z"/>
<path style="fill:#F6A96C;" d="M364.706,304.412h-19.765v-79.059h19.765c21.801,0,39.529,17.728,39.529,39.529
	S386.507,304.412,364.706,304.412z"/>
<path style="fill:#FFBD86;" d="M167.059,304.412h-19.765c-21.801,0-39.529-17.728-39.529-39.529s17.728-39.529,39.529-39.529h19.765
	V304.412z"/>
<path style="fill:#FED2A4;" d="M364.706,225.353v88.941C364.706,374.181,315.888,423,256,423s-108.706-48.819-108.706-108.706
	v-88.941L172,205.588h179.068L364.706,225.353z"/>
<path style="fill:#FFBD86;" d="M364.706,225.353v88.941C364.706,374.181,315.888,423,256,423V205.588h95.068L364.706,225.353z"/>
<rect x="285.65" y="264.88" style="fill:#444444;" width="19.765" height="19.765"/>
<rect x="206.59" y="264.88" style="fill:#5A5A5A;" width="19.765" height="19.765"/>
<path style="fill:#BABAC0;" d="M364.706,185.824l-19.171,19.765H167.652l-20.358-19.765c0-43.68,35.576-79.059,79.059-79.059h59.294
	C329.327,106.765,364.706,142.143,364.706,185.824z"/>
<path style="fill:#B34F03;" d="M315.294,304.412H196.706c-27.275,0-49.412,22.136-49.412,49.412v9.882h69.176
	c16.207,0,30.437-7.906,39.529-20.16c9.092,12.254,23.322,20.16,39.529,20.16h69.176v-9.882
	C364.706,326.548,342.57,304.412,315.294,304.412z"/>
<path style="fill:#A1A1A7;" d="M345.535,205.588H256v-98.824h29.647c43.68,0,79.059,35.378,79.059,79.059L345.535,205.588z"/>
<path style="fill:#913F02;" d="M364.706,353.824v9.882H295.53c-16.207,0-30.437-7.906-39.529-20.16v-39.134h59.294
	C342.57,304.412,364.706,326.548,364.706,353.824z"/>
<rect x="147.29" y="185.82" style="fill:#FFD400;" width="217.41" height="39.529"/>
<rect x="256" y="185.82" style="fill:#FF9F00;" width="108.71" height="39.529"/>
<g>
</g>
<g>
</g>
<g>
</g>
<g>
</g>
<g>
</g>
<g>
</g>
<g>
</g>
<g>
</g>
<g>
</g>
<g>
</g>
<g>
</g>
<g>
</g>
<g>
</g>
<g>
</g>
<g>
</g>
</svg>
