<?xml version="1.0" encoding="iso-8859-1"?>
<!-- Generator: Adobe Illustrator 19.0.0, SVG Export Plug-In . SVG Version: 6.00 Build 0)  -->
<svg version="1.1" id="Capa_1" xmlns="http://www.w3.org/2000/svg" xmlns:xlink="http://www.w3.org/1999/xlink" x="0px" y="0px"
	 viewBox="0 0 512 512" style="enable-background:new 0 0 512 512;" xml:space="preserve">
<circle style="fill:#00ABE9;" cx="256" cy="256" r="256"/>
<path style="fill:#136EF1;" d="M511.135,277.031L337.503,103.399L99.611,263.451l9.063,9.065l10.106,41.353l32.025,32.026
	l28.609,48.426l114.833,114.833C410.689,491.709,501.472,395.845,511.135,277.031z"/>
<path style="fill:#5A5A5A;" d="M363.976,186.406H148.024l10.757-53.39C164.16,105.722,188.265,86,215.957,86
	c14.742,0,29.286,5.777,40.043,15.738C266.757,91.777,281.301,86,296.043,86c27.692,0,51.796,19.722,57.176,47.015L363.976,186.406z
	"/>
<g>
	<path style="fill:#444444;" d="M363.976,186.406H256v-84.668C266.757,91.777,281.301,86,296.043,86
		c27.692,0,51.796,19.722,57.176,47.015L363.976,186.406z"/>
	<path style="fill:#444444;" d="M426,235.414c0,10.757-6.043,26.496-31.145,41.039h-277.71C92.043,261.91,86,246.171,86,235.414
		c0-45.223,87.922-69.727,170-69.727S426,190.191,426,235.414z"/>
</g>
<path style="fill:#292929;" d="M426,235.414c0,10.757-6.043,26.496-31.145,41.039H256V165.688
	C338.078,165.688,426,190.191,426,235.414z"/>
<path style="fill:#F6A96C;" d="M365.57,325.063h-19.922v-79.688h19.922c21.974,0,39.844,17.869,39.844,39.844
	S387.545,325.063,365.57,325.063z"/>
<path style="fill:#FFBD86;" d="M166.352,325.063H146.43c-21.974,0-39.844-17.869-39.844-39.844s17.869-39.844,39.844-39.844h19.922
	L166.352,325.063L166.352,325.063z"/>
<path style="fill:#FED2A4;" d="M365.57,229.039v86.063c0,42.434-24.304,80.617-59.766,98.746
	c-3.785,1.992-7.57-17.466-11.555-16.071c-2.788,0.997-5.577,23.243-8.367,24.039C276.321,424.406,266.36,426,256,426
	s-20.321-1.594-29.883-4.184c-2.191-0.597-4.184-22.645-6.176-23.242c-4.781-1.794-9.364,17.664-13.746,15.274
	c-35.462-18.13-59.766-56.313-59.766-98.746v-86.063l5.976-2.789c1.794-0.796,47.015-20.718,103.594-20.718
	s101.8,19.922,103.594,20.718L365.57,229.039z"/>
<path style="fill:#FFBD86;" d="M365.57,229.039v86.063c0,42.434-24.304,80.617-59.766,98.746
	c-3.785,1.992-7.57-17.466-11.555-16.071c-2.788,0.997-5.577,23.243-8.367,24.039C276.321,424.406,266.36,426,256,426V205.531
	c56.579,0,101.8,19.922,103.594,20.718L365.57,229.039z"/>
<path style="fill:#5A5A5A;" d="M305.805,344.984v68.864c-6.375,3.386-12.95,5.976-19.922,7.968v-56.91h-59.766v56.91
	c-6.972-1.992-13.547-4.582-19.922-7.968v-68.864H305.805z"/>
<rect x="226.12" y="265.3" style="fill:#444444;" width="59.766" height="19.922"/>
<rect x="256" y="265.3" style="fill:#292929;" width="29.883" height="19.922"/>
<path style="fill:#444444;" d="M305.805,344.984v68.864c-6.375,3.386-12.95,5.976-19.922,7.968v-56.91H256v-19.922H305.805z"/>
<path style="fill:#5A5A5A;" d="M196.234,325.063c-27.461,0-49.805-22.344-49.805-49.805v-9.961h99.609v9.961
	C246.039,302.718,223.695,325.063,196.234,325.063z"/>
<path style="fill:#444444;" d="M315.766,325.063c-27.461,0-49.805-22.344-49.805-49.805v-9.961h99.609v9.961
	C365.57,302.718,343.226,325.063,315.766,325.063z"/>
<g>
</g>
<g>
</g>
<g>
</g>
<g>
</g>
<g>
</g>
<g>
</g>
<g>
</g>
<g>
</g>
<g>
</g>
<g>
</g>
<g>
</g>
<g>
</g>
<g>
</g>
<g>
</g>
<g>
</g>
</svg>
