<?xml version="1.0" encoding="iso-8859-1"?>
<!-- Generator: Adobe Illustrator 19.0.0, SVG Export Plug-In . SVG Version: 6.00 Build 0)  -->
<svg version="1.1" id="Capa_1" xmlns="http://www.w3.org/2000/svg" xmlns:xlink="http://www.w3.org/1999/xlink" x="0px" y="0px"
	 viewBox="0 0 512 512" style="enable-background:new 0 0 512 512;" xml:space="preserve">
<circle style="fill:#00CC71;" cx="256" cy="256" r="256"/>
<path style="fill:#00AB5E;" d="M512,256c0-1.54-0.031-3.072-0.058-4.605L366.547,106L118.779,293.947l27.866,27.873l32.254,71.125
	l116.103,116.103C417.876,490.265,512,384.124,512,256z"/>
<path style="fill:#F6A96C;" d="M365.57,305.141h-19.922v-79.688h19.922c21.974,0,39.844,17.869,39.844,39.844
	S387.545,305.141,365.57,305.141z"/>
<path style="fill:#FFBD86;" d="M166.352,305.141H146.43c-21.974,0-39.844-17.869-39.844-39.844s17.869-39.844,39.844-39.844h19.922
	L166.352,305.141L166.352,305.141z"/>
<path style="fill:#FED2A4;" d="M365.57,265.297v45.621c0,58.172-43.43,109.304-98.813,114.484C263.172,425.801,259.586,426,256,426
	h-0.199c-27.293,0-52.992-11.289-73.512-29.816c-22.711-20.72-35.859-50.204-35.859-81.082v-49.805l59.766-69.727h99.609
	L365.57,265.297z"/>
<path style="fill:#FFBD86;" d="M365.57,265.297v45.621c0,58.172-43.43,109.304-98.813,114.484C263.172,425.801,259.586,426,256,426
	V195.57h49.805L365.57,265.297z"/>
<path style="fill:#FF641A;" d="M299.031,340.004c-8.766,15.34-25.3,24.902-43.031,24.902s-34.265-9.562-43.031-24.902l17.133-9.961
	c5.378,9.164,15.339,14.941,25.898,14.941c10.559,0,20.52-5.777,25.898-14.941L299.031,340.004z"/>
<rect x="285.88" y="265.3" style="fill:#444444;" width="19.922" height="19.922"/>
<rect x="206.19" y="265.3" style="fill:#5A5A5A;" width="19.922" height="19.922"/>
<path style="fill:#FF4B00;" d="M281.898,330.043l17.133,9.961c-8.766,15.34-25.3,24.902-43.031,24.902v-19.922
	C266.559,344.984,276.52,339.207,281.898,330.043z"/>
<path style="fill:#FF9F00;" d="M206.195,215.492V195.57H146.43v69.727h9.961C183.851,265.297,206.195,242.953,206.195,215.492z"/>
<path style="fill:#FF7816;" d="M305.805,215.492c0,27.461,22.344,49.805,49.805,49.805h9.961V195.57h-59.766V215.492z"/>
<path style="fill:#FF3636;" d="M318.555,86c-21.117,0-42.035,1.593-62.555,4.382c-34.265,4.98-67.735,13.946-100.208,26.895
	c-17.73,7.172-29.285,24.105-29.285,43.23c0,26.297,13.746,37.254,19.922,45.024H365.57c2.391-3.388,19.922-19.524,19.922-53.192
	C385.492,115.683,355.809,86,318.555,86z"/>
<path style="fill:#C10000;" d="M385.492,152.339c0,33.668-17.531,49.805-19.922,53.192H256V90.382
	C276.52,87.593,297.438,86,318.555,86C355.809,86,385.492,115.683,385.492,152.339z"/>
<path style="fill:#FFD400;" d="M256,125.844c-16.535,0-29.883,13.347-29.883,29.883c0,16.534,13.347,29.883,29.883,29.883
	s29.883-13.349,29.883-29.883C285.883,139.191,272.535,125.844,256,125.844z"/>
<path style="fill:#FF9F00;" d="M285.883,155.727c0,16.534-13.347,29.883-29.883,29.883v-59.766
	C272.535,125.844,285.883,139.191,285.883,155.727z"/>
<g>
</g>
<g>
</g>
<g>
</g>
<g>
</g>
<g>
</g>
<g>
</g>
<g>
</g>
<g>
</g>
<g>
</g>
<g>
</g>
<g>
</g>
<g>
</g>
<g>
</g>
<g>
</g>
<g>
</g>
</svg>
