<?xml version="1.0" encoding="iso-8859-1"?>
<!-- Generator: Adobe Illustrator 19.0.0, SVG Export Plug-In . SVG Version: 6.00 Build 0)  -->
<svg version="1.1" id="Capa_1" xmlns="http://www.w3.org/2000/svg" xmlns:xlink="http://www.w3.org/1999/xlink" x="0px" y="0px"
	 viewBox="0 0 512 512" style="enable-background:new 0 0 512 512;" xml:space="preserve">
<circle style="fill:#FF3636;" cx="256" cy="256" r="256"/>
<path style="fill:#C10000;" d="M508.713,297.024L332.001,120.313L112.064,379.464l132.26,132.26
	C248.195,511.898,252.085,512,256,512C383.419,512,489.078,418.904,508.713,297.024z"/>
<path style="fill:#292929;" d="M416.98,305.43c-27.622,0-50.766-22.475-50.766-50.098l-40.078,40.078l-10.01,110.215h20.029
	c49.726,0,90.844-40.45,90.844-90.176v-10.02L416.98,305.43L416.98,305.43z"/>
<path style="fill:#444444;" d="M185.863,295.41l-40.078-40.078c0,27.622-23.143,50.098-50.766,50.098H85v10.02
	c0,49.726,41.118,90.176,90.844,90.176h20.029L185.863,295.41z"/>
<path style="fill:#FED2A4;" d="M366.215,265.352v50.098C366.215,376.167,316.719,427,256,427s-110.215-50.833-110.215-111.551
	v-50.098L256,194.013L366.215,265.352z"/>
<path style="fill:#FFBD86;" d="M366.215,265.352v50.098C366.215,376.167,316.719,427,256,427V194.013L366.215,265.352z"/>
<path style="fill:#EDE9E8;" d="M366.215,175.176v20.039c0,0,0,5.61,0,14.428l-110.014-12.625H256l-110.215,12.424v-34.266
	c0-13.426,8.817-24.648,20.84-28.656c4.008-23.445,24.649-41.481,49.297-41.481h0.201C225.54,92.615,240.369,85,256,85
	s30.46,7.615,39.878,20.039h0.201c24.648,0,45.288,18.036,49.297,41.481C357.398,150.528,366.215,161.75,366.215,175.176z"/>
<path style="fill:#FF641A;" d="M299.284,340.498c-8.817,15.43-25.449,25.049-43.284,25.049s-34.467-9.618-43.284-25.049
	l17.233-10.02c5.41,9.218,15.429,15.029,26.051,15.029c10.621,0,20.641-5.811,26.051-15.029L299.284,340.498z"/>
<rect x="286.06" y="265.35" style="fill:#444444;" width="20.04" height="20.04"/>
<rect x="205.9" y="265.35" style="fill:#5A5A5A;" width="20.04" height="20.04"/>
<path style="fill:#FF4B00;" d="M282.051,330.479l17.233,10.02c-8.817,15.43-25.449,25.049-43.284,25.049v-20.039
	C266.621,345.508,276.641,339.697,282.051,330.479z"/>
<path style="fill:#DFD7D5;" d="M366.215,175.176v20.039c0,0,0,5.61,0,14.428l-110.014-12.625H256V85
	c15.631,0,30.46,7.615,39.878,20.039h0.201c24.648,0,45.288,18.036,49.297,41.481C357.398,150.528,366.215,161.75,366.215,175.176z"
	/>
<path style="fill:#5A5A5A;" d="M366.215,209.642v55.709h-10.02c-30.86,0-60.719-12.825-81.76-35.269
	c-7.615-7.816-13.626-16.633-18.436-26.051c-4.809,9.418-10.821,18.235-18.436,26.051c-21.041,22.444-50.9,35.269-81.76,35.269
	h-10.02v-55.91c33.465-19.036,71.54-31.861,110.014-32.463H256C296.68,176.579,331.948,189.003,366.215,209.642z"/>
<path style="fill:#444444;" d="M366.215,209.642v55.709h-10.02c-30.86,0-60.719-12.825-81.76-35.269
	c-7.615-7.816-13.626-16.633-18.436-26.051v-27.053C296.68,176.579,331.948,189.003,366.215,209.642z"/>
<g>
</g>
<g>
</g>
<g>
</g>
<g>
</g>
<g>
</g>
<g>
</g>
<g>
</g>
<g>
</g>
<g>
</g>
<g>
</g>
<g>
</g>
<g>
</g>
<g>
</g>
<g>
</g>
<g>
</g>
</svg>
