<?xml version="1.0" encoding="iso-8859-1"?>
<!-- Generator: Adobe Illustrator 19.0.0, SVG Export Plug-In . SVG Version: 6.00 Build 0)  -->
<svg version="1.1" id="Capa_1" xmlns="http://www.w3.org/2000/svg" xmlns:xlink="http://www.w3.org/1999/xlink" x="0px" y="0px"
	 viewBox="0 0 512 512" style="enable-background:new 0 0 512 512;" xml:space="preserve">
<circle style="fill:#00CC71;" cx="256" cy="256" r="256"/>
<path style="fill:#00AB5E;" d="M508.022,301.192l-93.343-93.343l-21.621-15.605L286.059,85L98.686,263.49l9.12,9.125L175.25,327
	l-69.543,78.625l101.76,101.76C223.184,510.402,239.404,512,256,512C381.964,512,486.678,421.023,508.022,301.192z"/>
<path style="fill:#FF3636;" d="M365.613,205.234H146.387c5.01-56.109,52.101-100.195,109.613-100.195
	S360.603,149.125,365.613,205.234z"/>
<path style="fill:#F40000;" d="M365.613,205.234H256V105.039C313.512,105.039,360.603,149.125,365.613,205.234z"/>
<rect x="225.94" y="85" style="fill:#FFB64C;" width="60.12" height="90.58"/>
<rect x="256" y="85" style="fill:#FF9F00;" width="30.06" height="90.58"/>
<rect x="105.71" y="285.39" style="fill:#5A5A5A;" width="300.59" height="120.23"/>
<rect x="256" y="285.39" style="fill:#444444;" width="150.29" height="120.23"/>
<path style="fill:#F40000;" d="M427,235.293c0,10.821-6.079,26.652-31.328,41.28H116.328C91.079,261.945,85,246.114,85,235.293
	c0-45.489,88.439-70.137,171-70.137S427,189.804,427,235.293z"/>
<path style="fill:#C10000;" d="M427,235.293c0,10.821-6.079,26.652-31.328,41.28H256V165.156
	C338.561,165.156,427,189.804,427,235.293z"/>
<path style="fill:#F6A96C;" d="M366.215,325.469h-20.039v-80.156h20.039c22.104,0,40.078,17.974,40.078,40.078
	S388.318,325.469,366.215,325.469z"/>
<path style="fill:#FFBD86;" d="M165.824,325.469h-20.039c-22.104,0-40.078-17.974-40.078-40.078s17.974-40.078,40.078-40.078h20.039
	V325.469z"/>
<path style="fill:#FED2A4;" d="M359.802,221.265c-16.031-6.011-50.499-16.031-103.802-16.031s-87.771,10.02-103.802,16.031
	l-6.413,2.405v91.779C145.785,376.168,195.281,427,256,427s110.215-50.832,110.215-111.551V223.67L359.802,221.265z"/>
<path style="fill:#FFBD86;" d="M366.215,223.67v91.779C366.215,376.168,316.719,427,256,427V205.234
	c53.303,0,87.771,10.02,103.802,16.031L366.215,223.67z"/>
<rect x="286.06" y="265.35" style="fill:#444444;" width="20.04" height="20.04"/>
<rect x="205.9" y="265.35" style="fill:#5A5A5A;" width="20.04" height="20.04"/>
<path style="fill:#B34F03;" d="M306.098,345.508v20.039h-3.006c-17.434,0-34.266-6.413-47.091-18.036
	c-12.825,11.623-29.657,18.036-47.091,18.036h-3.006v-20.039h3.006c14.428,0,28.054-6.011,37.674-16.633l3.005-3.406h12.825
	l3.005,3.406c9.62,10.621,23.246,16.633,37.674,16.633H306.098z"/>
<path style="fill:#913F02;" d="M306.098,345.508v20.039h-3.006c-17.434,0-34.266-6.413-47.091-18.036v-22.042h6.413l3.005,3.406
	c9.62,10.621,23.246,16.633,37.674,16.633H306.098z"/>
<g>
</g>
<g>
</g>
<g>
</g>
<g>
</g>
<g>
</g>
<g>
</g>
<g>
</g>
<g>
</g>
<g>
</g>
<g>
</g>
<g>
</g>
<g>
</g>
<g>
</g>
<g>
</g>
<g>
</g>
</svg>
