<?xml version="1.0" encoding="iso-8859-1"?>
<!-- Generator: Adobe Illustrator 19.0.0, SVG Export Plug-In . SVG Version: 6.00 Build 0)  -->
<svg version="1.1" id="Capa_1" xmlns="http://www.w3.org/2000/svg" xmlns:xlink="http://www.w3.org/1999/xlink" x="0px" y="0px"
	 viewBox="0 0 512 512" style="enable-background:new 0 0 512 512;" xml:space="preserve">
<circle style="fill:#00ABE9;" cx="256" cy="256" r="256"/>
<path style="fill:#136EF1;" d="M506.01,311.218l-80.51-80.51l-339,14.699l20.529,20c0.038,11.154,4.698,21.231,12.156,28.431
	c0.328,0.339,27.518,27.534,27.784,27.794c1.105,18.145,6.644,35.236,15.559,50.111c-5.398,14.286-35.638,53.758-35.638,53.758
	l82.195,82.195C224.295,510.513,239.973,512,256,512C378.425,512,480.76,426.057,506.01,311.218z"/>
<path style="fill:#F6A96C;" d="M365.248,304.996h-19.863v-79.453h19.863c21.91,0,40.389,17.817,40.389,39.727
	S387.158,304.996,365.248,304.996z"/>
<path style="fill:#FFBD86;" d="M166.615,304.996h-19.863c-21.91,0-39.727-17.817-39.727-39.727s17.817-39.727,39.727-39.727h19.863
	V304.996z"/>
<path style="fill:#FED2A4;" d="M365.248,205.68v109.248c0,60.185-49.062,110.572-109.248,110.572s-109.248-50.387-109.248-110.572
	V205.68l24.829-19.863h179.961L365.248,205.68z"/>
<path style="fill:#FFBD86;" d="M365.248,205.68v109.248c0,60.185-49.062,110.572-109.248,110.572V185.816h95.542L365.248,205.68z"/>
<rect x="285.8" y="265.27" style="fill:#444444;" width="19.863" height="19.863"/>
<rect x="206.34" y="265.27" style="fill:#5A5A5A;" width="19.863" height="19.863"/>
<path style="fill:#FDBF00;" d="M262.754,88.883l-3.179-2.383h-7.548L89.876,227.728l-3.376,3.178v14.501h329.068l9.932-0.199v-14.5
	L262.754,88.883z"/>
<path style="fill:#5A5A5A;" d="M379.549,405.107c-20.657-10.329-34.164-31.781-33.965-55.022c0-11.918-4.568-23.24-13.11-31.781
	c-8.541-8.541-19.863-13.308-33.767-13.308c-17.877,0-33.967,9.932-41.912,26.021L256,332.408l-0.794-1.391
	c-7.946-16.089-24.035-26.021-43.898-26.021c-11.917,0-23.24,4.767-31.781,13.308c-8.542,8.541-13.11,19.863-13.11,31.781
	c0.199,23.241-13.308,44.692-33.965,55.022l-5.562,2.781V425.5h29.795c25.028,0,48.268-14.831,60.583-36.681
	c8.541-15.096,23.042-24.233,38.734-24.233s30.193,9.136,38.734,24.233c12.315,21.85,35.555,36.681,60.583,36.681h19.863
	l9.932-0.199v-17.413L379.549,405.107z"/>
<path style="fill:#444444;" d="M385.111,407.888v17.413l-9.932,0.199h-19.863c-25.028,0-48.268-14.831-60.583-36.681
	c-8.541-15.096-23.042-24.233-38.734-24.233v-32.178l0.794-1.391c7.946-16.089,24.035-26.021,41.912-26.021
	c13.903,0,25.226,4.767,33.767,13.308c8.542,8.541,13.11,19.863,13.11,31.781c-0.199,23.241,13.308,44.692,33.965,55.022
	L385.111,407.888z"/>
<polygon style="fill:#FF9F00;" points="425.5,230.708 425.5,245.207 415.568,245.406 256,245.406 256,86.5 259.575,86.5 
	262.754,88.883 "/>
<g>
</g>
<g>
</g>
<g>
</g>
<g>
</g>
<g>
</g>
<g>
</g>
<g>
</g>
<g>
</g>
<g>
</g>
<g>
</g>
<g>
</g>
<g>
</g>
<g>
</g>
<g>
</g>
<g>
</g>
</svg>
