<?xml version="1.0" encoding="iso-8859-1"?>
<!-- Generator: Adobe Illustrator 19.0.0, SVG Export Plug-In . SVG Version: 6.00 Build 0)  -->
<svg version="1.1" id="Capa_1" xmlns="http://www.w3.org/2000/svg" xmlns:xlink="http://www.w3.org/1999/xlink" x="0px" y="0px"
	 viewBox="0 0 512 512" style="enable-background:new 0 0 512 512;" xml:space="preserve">
<circle style="fill:#00ABE9;" cx="256" cy="256" r="256"/>
<path style="fill:#136EF1;" d="M511.247,275.766l-173.27-173.27L98.686,263.49l9.12,9.125l10.162,41.592l32.297,32.312
	l29.548,48.648l114.042,114.042C410.901,491.858,502.12,395.298,511.247,275.766z"/>
<path style="fill:#FDBF00;" d="M364.611,185.996H147.389l10.821-53.705C163.62,104.838,187.867,85,215.721,85
	c14.829,0,29.458,5.811,40.279,15.83C266.821,90.811,281.45,85,296.279,85c27.855,0,52.101,19.838,57.512,47.292L364.611,185.996z"
	/>
<g>
	<path style="fill:#FF9F00;" d="M364.611,185.996H256V100.83C266.821,90.811,281.45,85,296.279,85
		c27.855,0,52.101,19.838,57.512,47.292L364.611,185.996z"/>
	<path style="fill:#FF9F00;" d="M427,235.293c0,10.821-6.079,26.652-31.328,41.28H116.328C91.079,261.945,85,246.114,85,235.293
		c0-45.489,88.439-70.137,171-70.137S427,189.804,427,235.293z"/>
</g>
<path style="fill:#FF7816;" d="M427,235.293c0,10.821-6.079,26.652-31.328,41.28H256V165.156
	C338.561,165.156,427,189.804,427,235.293z"/>
<path style="fill:#F6A96C;" d="M366.215,325.469h-20.039v-80.156h20.039c22.104,0,40.078,17.974,40.078,40.078
	S388.318,325.469,366.215,325.469z"/>
<path style="fill:#FFBD86;" d="M165.824,325.469h-20.039c-22.104,0-40.078-17.974-40.078-40.078s17.974-40.078,40.078-40.078h20.039
	V325.469z"/>
<path style="fill:#FED2A4;" d="M366.215,223.67v91.779c0,24.447-8.016,47.091-21.442,65.328H167.227
	c-13.426-18.236-21.442-40.88-21.442-65.328V223.67l6.413-2.405c16.031-6.011,50.499-16.031,103.802-16.031
	s87.771,10.02,103.802,16.031L366.215,223.67z"/>
<path style="fill:#FFBD86;" d="M366.215,223.67v91.779c0,24.447-8.016,47.091-21.442,65.328H256V205.234
	c53.303,0,87.771,10.02,103.802,16.031L366.215,223.67z"/>
<rect x="286.06" y="265.35" style="fill:#444444;" width="20.04" height="20.04"/>
<rect x="205.9" y="265.35" style="fill:#5A5A5A;" width="20.04" height="20.04"/>
<path style="fill:#B34F03;" d="M344.773,380.777C324.533,408.03,292.471,427,256,427s-68.533-18.97-88.773-46.223
	c7.214-42.683,44.086-75.347,88.773-75.347S337.559,338.093,344.773,380.777z"/>
<path style="fill:#913F02;" d="M344.773,380.777C324.533,408.03,292.471,427,256,427V305.43
	C300.687,305.43,337.559,338.093,344.773,380.777z"/>
<rect x="225.94" y="345.51" style="fill:#FF641A;" width="60.12" height="20.04"/>
<rect x="256" y="345.51" style="fill:#FF4B00;" width="30.06" height="20.04"/>
<g>
</g>
<g>
</g>
<g>
</g>
<g>
</g>
<g>
</g>
<g>
</g>
<g>
</g>
<g>
</g>
<g>
</g>
<g>
</g>
<g>
</g>
<g>
</g>
<g>
</g>
<g>
</g>
<g>
</g>
</svg>
