<?xml version="1.0" encoding="iso-8859-1"?>
<!-- Generator: Adobe Illustrator 19.0.0, SVG Export Plug-In . SVG Version: 6.00 Build 0)  -->
<svg version="1.1" id="Capa_1" xmlns="http://www.w3.org/2000/svg" xmlns:xlink="http://www.w3.org/1999/xlink" x="0px" y="0px"
	 viewBox="0 0 512 512" style="enable-background:new 0 0 512 512;" xml:space="preserve">
<circle style="fill:#00ABE9;" cx="256" cy="256" r="256"/>
<path style="fill:#136EF1;" d="M507.622,303.298L368.03,163.706l-12.693-9.406l-37.793-37.792L130.316,376.591L265.53,511.805
	C386.479,507.376,485.997,419.056,507.622,303.298z"/>
<path style="fill:#5A5A5A;" d="M340.304,156.356H171.696C181.557,117.877,216.362,91,256,91S330.443,117.877,340.304,156.356z"/>
<path style="fill:#444444;" d="M340.304,156.356H256V91C295.638,91,330.443,117.877,340.304,156.356z"/>
<path style="fill:#FF3636;" d="M381.684,197.348v179.243L316.909,421H195.091l-64.775-44.409V197.348
	c0-26.684,21.656-48.34,48.34-48.34h154.688C360.027,149.008,381.684,170.664,381.684,197.348z"/>
<path style="fill:#F40000;" d="M381.684,197.348v179.243L316.909,421H256V149.008h77.344
	C360.027,149.008,381.684,170.664,381.684,197.348z"/>
<path style="fill:#FED2A4;" d="M168.988,226.352v96.68h38.672v38.672h96.68v-38.672h38.672v-96.68L168.988,226.352L168.988,226.352z
	"/>
<polygon style="fill:#FFBD86;" points="343.012,226.352 343.012,323.031 304.34,323.031 304.34,361.703 256,361.703 256,226.352 "/>
<rect x="285" y="265.02" style="fill:#444444;" width="19.336" height="19.336"/>
<g>
	<rect x="207.66" y="265.02" style="fill:#5A5A5A;" width="19.336" height="19.336"/>
	<rect x="227" y="187.68" style="fill:#5A5A5A;" width="58.01" height="19.336"/>
</g>
<rect x="256" y="187.68" style="fill:#444444;" width="29" height="19.336"/>
<g>
</g>
<g>
</g>
<g>
</g>
<g>
</g>
<g>
</g>
<g>
</g>
<g>
</g>
<g>
</g>
<g>
</g>
<g>
</g>
<g>
</g>
<g>
</g>
<g>
</g>
<g>
</g>
<g>
</g>
</svg>
