<?xml version="1.0" encoding="iso-8859-1"?>
<!-- Generator: Adobe Illustrator 19.0.0, SVG Export Plug-In . SVG Version: 6.00 Build 0)  -->
<svg version="1.1" id="Capa_1" xmlns="http://www.w3.org/2000/svg" xmlns:xlink="http://www.w3.org/1999/xlink" x="0px" y="0px"
	 viewBox="0 0 512 512" style="enable-background:new 0 0 512 512;" xml:space="preserve">
<circle style="fill:#00ABE9;" cx="256" cy="256" r="256"/>
<path style="fill:#136EF1;" d="M512,256c0-17.444-1.752-34.479-5.076-50.943L397.14,95.274L121.548,330.706l39.806,39.811
	l18.471,23.899l114.699,114.699C417.631,490.533,512,384.29,512,256z"/>
<polygon style="fill:#00CC71;" points="323.735,172.66 365.57,205.531 334.891,225.453 167.946,225.453 146.43,205.531 
	231.297,105.922 355.609,105.922 355.609,123.254 366.566,135.805 "/>
<polygon style="fill:#00AB5E;" points="323.735,172.66 365.57,205.531 334.891,225.453 256,225.453 256,105.922 355.609,105.922 
	355.609,123.254 366.566,135.805 "/>
<path style="fill:#F6A96C;" d="M355.609,344.984h-9.961v-95.806l59.766-29.883v75.884
	C405.414,322.64,383.07,344.984,355.609,344.984z"/>
<path style="fill:#FFBD86;" d="M166.352,344.984h-9.961c-27.461,0-49.805-22.344-49.805-49.805v-75.884l59.766,29.883V344.984z"/>
<path style="fill:#FED2A4;" d="M365.57,245.375v69.727C365.57,375.464,316.364,426,256,426s-109.57-50.536-109.57-110.898v-69.727
	l24.902-19.922h180.492L365.57,245.375z"/>
<path style="fill:#FFBD86;" d="M365.57,245.375v69.727C365.57,375.464,316.364,426,256,426V225.453h95.824L365.57,245.375z"/>
<rect x="146.43" y="205.53" style="fill:#FF3636;" width="219.14" height="39.844"/>
<rect x="256" y="205.53" style="fill:#C10000;" width="109.57" height="39.844"/>
<path style="fill:#FF9F00;" d="M375.531,145.766c-16.478,0-29.883-13.404-29.883-29.883S359.053,86,375.531,86
	s29.883,13.404,29.883,29.883S392.01,145.766,375.531,145.766z"/>
<rect x="285.88" y="285.22" style="fill:#444444;" width="19.922" height="19.922"/>
<rect x="206.19" y="285.22" style="fill:#5A5A5A;" width="19.922" height="19.922"/>
<path style="fill:#FF641A;" d="M299.031,340.004c-8.766,15.34-25.3,24.902-43.031,24.902s-34.265-9.562-43.031-24.902l17.133-9.961
	c5.378,9.164,15.339,14.941,25.898,14.941c10.559,0,20.52-5.777,25.898-14.941L299.031,340.004z"/>
<path style="fill:#FF4B00;" d="M281.898,330.043l17.133,9.961c-8.766,15.34-25.3,24.902-43.031,24.902v-19.922
	C266.559,344.984,276.52,339.207,281.898,330.043z"/>
<g>
</g>
<g>
</g>
<g>
</g>
<g>
</g>
<g>
</g>
<g>
</g>
<g>
</g>
<g>
</g>
<g>
</g>
<g>
</g>
<g>
</g>
<g>
</g>
<g>
</g>
<g>
</g>
<g>
</g>
</svg>
