<?xml version="1.0" encoding="iso-8859-1"?>
<!-- Generator: Adobe Illustrator 19.0.0, SVG Export Plug-In . SVG Version: 6.00 Build 0)  -->
<svg version="1.1" id="Capa_1" xmlns="http://www.w3.org/2000/svg" xmlns:xlink="http://www.w3.org/1999/xlink" x="0px" y="0px"
	 viewBox="0 0 512 512" style="enable-background:new 0 0 512 512;" xml:space="preserve">
<circle style="fill:#00ABE9;" cx="256" cy="256" r="256"/>
<path style="fill:#136EF1;" d="M510.041,287.75L377.076,154.785l-55.963-26.015l-27.309-27.294l-172.19,211.212l31.391,31.411
	l27.962,47.051l117.349,117.349C409.295,490.035,496.13,400.201,510.041,287.75z"/>
<path style="fill:#DFD7D5;" d="M304.779,128.523c0,4.487-0.78,8.781-2.146,13.073h-93.267c-1.366-4.292-2.146-8.585-2.146-13.073
	c0-21.464,17.561-39.023,39.023-39.023h19.512C287.218,89.5,304.779,107.06,304.779,128.523z"/>
<path style="fill:#D2C5C2;" d="M302.633,141.596H256V89.5h9.756c21.462,0,39.023,17.56,39.023,39.023
	C304.779,133.011,303.999,137.304,302.633,141.596z"/>
<path style="fill:#EDE9E8;" d="M402.338,216.326c0,17.56-5.269,34.535-15.024,49.169H124.687
	c-9.756-14.634-15.024-31.609-15.024-49.169c0-48.39,39.414-87.803,87.803-87.803h117.07
	C362.924,128.523,402.338,167.936,402.338,216.326z"/>
<path style="fill:#DFD7D5;" d="M402.338,216.326c0,17.56-5.269,34.535-15.024,49.169H256V128.523h58.535
	C362.924,128.523,402.338,167.936,402.338,216.326z"/>
<path style="fill:#F6A96C;" d="M363.314,323.641h-19.512v-78.047h19.512c21.522,0,39.023,17.501,39.023,39.023
	S384.836,323.641,363.314,323.641z"/>
<path style="fill:#FFBD86;" d="M168.197,323.641h-19.512c-21.522,0-39.023-17.501-39.023-39.023s17.501-39.023,39.023-39.023h19.512
	V323.641z"/>
<path style="fill:#FED2A4;" d="M363.314,261.398v52.487c0,59.12-48.193,108.615-107.314,108.615s-107.314-49.495-107.314-108.615
	v-52.487l24.976,2.732l-23.219-23.61c6.829-30.634,33.95-53.462,66.534-53.462h78.047c32.584,0,59.706,22.828,66.534,53.462
	l-23.219,23.61L363.314,261.398z"/>
<path style="fill:#FFBD86;" d="M363.314,261.398v52.487c0,59.12-48.193,108.615-107.314,108.615V187.059h39.023
	c32.584,0,59.706,22.828,66.534,53.462l-23.219,23.61L363.314,261.398z"/>
<path style="fill:#FF641A;" d="M298.145,338.274c-8.585,15.023-24.779,24.39-42.145,24.39s-33.56-9.366-42.145-24.39l16.78-9.756
	c5.267,8.975,15.023,14.634,25.365,14.634c10.342,0,20.098-5.659,25.365-14.634L298.145,338.274z"/>
<g>
	<rect x="236.49" y="265.11" style="fill:#5A5A5A;" width="39.02" height="19.512"/>
	<path style="fill:#5A5A5A;" d="M201.828,266.134l-51.39-25.695c-1.08,4.814-1.753,9.775-1.753,14.91v6.031l44.416,22.208
		L201.828,266.134z"/>
</g>
<g>
	<path style="fill:#444444;" d="M318.899,283.588l44.416-22.208v-6.031c0-5.135-0.673-10.096-1.753-14.91l-51.39,25.695
		L318.899,283.588z"/>
	<rect x="256" y="265.11" style="fill:#444444;" width="19.512" height="19.512"/>
</g>
<path style="fill:#FF4B00;" d="M281.365,328.519l16.78,9.756c-8.585,15.023-24.779,24.39-42.145,24.39v-19.512
	C266.342,343.152,276.098,337.493,281.365,328.519z"/>
<path style="fill:#EDE9E8;" d="M216.977,304.129c-16.139,0-29.268-13.128-29.268-29.268s13.128-29.268,29.268-29.268
	s29.268,13.128,29.268,29.268S233.116,304.129,216.977,304.129z"/>
<path style="fill:#DFD7D5;" d="M295.023,304.129c-16.139,0-29.268-13.128-29.268-29.268s13.128-29.268,29.268-29.268
	s29.268,13.128,29.268,29.268S311.163,304.129,295.023,304.129z"/>
<g>
</g>
<g>
</g>
<g>
</g>
<g>
</g>
<g>
</g>
<g>
</g>
<g>
</g>
<g>
</g>
<g>
</g>
<g>
</g>
<g>
</g>
<g>
</g>
<g>
</g>
<g>
</g>
<g>
</g>
</svg>
