<?xml version="1.0" encoding="iso-8859-1"?>
<!-- Generator: Adobe Illustrator 19.0.0, SVG Export Plug-In . SVG Version: 6.00 Build 0)  -->
<svg version="1.1" id="Capa_1" xmlns="http://www.w3.org/2000/svg" xmlns:xlink="http://www.w3.org/1999/xlink" x="0px" y="0px"
	 viewBox="0 0 512 512" style="enable-background:new 0 0 512 512;" xml:space="preserve">
<circle style="fill:#F77E00;" cx="256" cy="256" r="256"/>
<path style="fill:#B95F00;" d="M510.797,280.841L328.93,98.974L107.91,423l79.764,79.764C209.427,508.774,232.335,512,256,512
	C389.003,512,498.303,410.568,510.797,280.841z"/>
<rect x="107.91" y="205.8" style="fill:#5A5A5A;" width="296.18" height="217.2"/>
<rect x="256" y="205.8" style="fill:#444444;" width="148.09" height="217.2"/>
<path style="fill:#F6A96C;" d="M364.599,324.273h-19.745v-78.981h19.745c21.78,0,39.491,17.711,39.491,39.491
	S386.379,324.273,364.599,324.273z"/>
<path style="fill:#FFBD86;" d="M167.146,324.273h-19.745c-21.78,0-39.491-17.711-39.491-39.491s17.711-39.491,39.491-39.491h19.745
	V324.273z"/>
<path style="fill:#FED2A4;" d="M364.599,205.801V314.4c0,59.828-48.77,108.6-108.599,108.6s-108.599-48.772-108.599-108.599v-108.6
	l24.682-19.745h178.893L364.599,205.801z"/>
<path style="fill:#FFBD86;" d="M364.599,205.801V314.4c0,59.828-48.77,108.6-108.599,108.6V186.056h94.975L364.599,205.801z"/>
<path style="fill:#FF641A;" d="M298.649,339.082c-8.688,15.204-25.076,24.682-42.649,24.682s-33.961-9.477-42.649-24.682
	l16.981-9.873c5.33,9.083,15.203,14.809,25.669,14.809c10.466,0,20.338-5.726,25.669-14.809L298.649,339.082z"/>
<rect x="285.62" y="284.78" style="fill:#444444;" width="19.745" height="19.745"/>
<rect x="206.64" y="284.78" style="fill:#5A5A5A;" width="19.745" height="19.745"/>
<path style="fill:#FF4B00;" d="M281.669,329.21l16.981,9.873c-8.688,15.204-25.076,24.682-42.649,24.682V344.02
	C266.466,344.019,276.338,338.293,281.669,329.21z"/>
<path style="fill:#0095FF;" d="M404.09,205.801L256,265.037l-148.09-59.236l73.058-104.454
	c13.822-17.376,42.649-17.968,57.064-0.987l4.739,5.529c3.356,3.949,8.293,5.726,13.229,5.726s9.873-1.776,13.229-5.726l4.739-5.529
	c14.415-16.783,43.242-16.389,57.064,0.987L404.09,205.801z"/>
<path style="fill:#136EF1;" d="M404.09,205.801L256,265.037V111.616c4.936,0,9.873-1.776,13.229-5.726l4.739-5.529
	c14.415-16.783,43.242-16.389,57.064,0.987L404.09,205.801z"/>
<path style="fill:#EDE9E8;" d="M256,166.311c-16.389,0-29.618,13.229-29.618,29.618c0,16.388,13.229,29.618,29.618,29.618
	s29.618-13.23,29.618-29.618C285.618,179.54,272.389,166.311,256,166.311z"/>
<path style="fill:#DFD7D5;" d="M285.618,195.929c0,16.388-13.229,29.618-29.618,29.618v-59.236
	C272.389,166.311,285.618,179.54,285.618,195.929z"/>
<g>
</g>
<g>
</g>
<g>
</g>
<g>
</g>
<g>
</g>
<g>
</g>
<g>
</g>
<g>
</g>
<g>
</g>
<g>
</g>
<g>
</g>
<g>
</g>
<g>
</g>
<g>
</g>
<g>
</g>
</svg>
