<?xml version="1.0" encoding="iso-8859-1"?>
<!-- Generator: Adobe Illustrator 19.0.0, SVG Export Plug-In . SVG Version: 6.00 Build 0)  -->
<svg version="1.1" id="Capa_1" xmlns="http://www.w3.org/2000/svg" xmlns:xlink="http://www.w3.org/1999/xlink" x="0px" y="0px"
	 viewBox="0 0 512 512" style="enable-background:new 0 0 512 512;" xml:space="preserve">
<circle style="fill:#FFD400;" cx="256" cy="256" r="256"/>
<path style="fill:#BF9F00;" d="M511.347,274.228L375.009,137.891L88.318,402.722l100.297,100.297
	C210.087,508.863,232.676,512,256,512C391.255,512,501.997,407.104,511.347,274.228z"/>
<path style="fill:#5A5A5A;" d="M423.682,255.345v147.377H88.318V255.345c0-92.16,75.522-167.027,167.682-167.027
	S423.682,163.185,423.682,255.345z"/>
<path style="fill:#444444;" d="M423.682,255.345v147.377H256V88.318C348.16,88.318,423.682,163.185,423.682,255.345z"/>
<path style="fill:#FED2A4;" d="M364.076,265.17v44.999c0,57.38-42.837,107.815-97.466,112.923c-3.537,0.393-7.074,0.59-10.611,0.59
	h-0.197c-26.921,0-52.269-11.135-72.509-29.41c-22.402-20.436-35.37-49.519-35.37-79.977V265.17L256,214.472L364.076,265.17z"/>
<path style="fill:#FFBD86;" d="M364.076,265.17v44.999c0,57.38-42.837,107.815-97.466,112.923c-3.537,0.393-7.074,0.59-10.611,0.59
	v-209.21L364.076,265.17z"/>
<path style="fill:#FF641A;" d="M298.444,358.509c-8.646,15.131-24.955,24.563-42.444,24.563s-33.798-9.432-42.444-24.563
	l16.899-9.825c5.305,9.04,15.13,14.738,25.545,14.738c10.415,0,20.24-5.698,25.545-14.738L298.444,358.509z"/>
<rect x="285.48" y="284.82" style="fill:#444444;" width="19.65" height="19.65"/>
<rect x="206.87" y="284.82" style="fill:#5A5A5A;" width="19.65" height="19.65"/>
<path style="fill:#FF4B00;" d="M281.545,348.684l16.899,9.825c-8.646,15.131-24.955,24.563-42.444,24.563v-19.65
	C266.415,363.421,276.24,357.723,281.545,348.684z"/>
<path style="fill:#EDE9E8;" d="M364.076,216.044v9.825l-22.008,3.93H173.665l-25.742-3.93v-9.825
	c0-27.117,22.008-49.126,49.126-49.126H314.95C342.068,166.919,364.076,188.927,364.076,216.044z"/>
<path style="fill:#DFD7D5;" d="M364.076,216.044v9.825l-22.008,3.93H256v-62.881h58.951
	C342.068,166.919,364.076,188.927,364.076,216.044z"/>
<path style="fill:#B34F03;" d="M364.076,225.87v39.3h-44.41c-25.348,0-48.536-11.79-63.667-31.048
	c-15.131,19.258-38.318,31.048-63.667,31.048h-44.41v-39.3L364.076,225.87L364.076,225.87z"/>
<path style="fill:#913F02;" d="M364.076,225.87v39.3h-44.41c-25.348,0-48.536-11.79-63.667-31.048v-8.253h108.077V225.87z"/>
<g>
</g>
<g>
</g>
<g>
</g>
<g>
</g>
<g>
</g>
<g>
</g>
<g>
</g>
<g>
</g>
<g>
</g>
<g>
</g>
<g>
</g>
<g>
</g>
<g>
</g>
<g>
</g>
<g>
</g>
</svg>
