<?xml version="1.0" encoding="iso-8859-1"?>
<!-- Generator: Adobe Illustrator 19.0.0, SVG Export Plug-In . SVG Version: 6.00 Build 0)  -->
<svg version="1.1" id="Capa_1" xmlns="http://www.w3.org/2000/svg" xmlns:xlink="http://www.w3.org/1999/xlink" x="0px" y="0px"
	 viewBox="0 0 512 512" style="enable-background:new 0 0 512 512;" xml:space="preserve">
<circle style="fill:#F77E00;" cx="256" cy="256" r="256"/>
<path style="fill:#B95F00;" d="M511.79,265.934L358.445,112.589L101.377,292.973l27.898,27.905l32.143,70.468l119.448,119.449
	C407.336,498.602,506.886,394.399,511.79,265.934z"/>
<path style="fill:#292929;" d="M417.728,342.562c-21.048-11.959-34.774-34.418-34.774-58.623V170.403
	c0-38.796-30.985-75.608-67.673-80.386c-34.075-4.511-66.643,13.313-81.168,44.194l78.526,228.56h110.029v-17.405L417.728,342.562z"
	/>
<path style="fill:#5A5A5A;" d="M343.892,186.987l-17.579,19.531H145.647l-16.601-19.531c0-16.211,6.641-30.86,17.188-41.407
	c10.547-10.548,25.195-17.188,41.407-17.188h97.657C317.719,128.393,343.892,154.564,343.892,186.987z"/>
<path style="fill:#444444;" d="M343.892,186.987l-17.579,19.531h-89.844v-78.126h48.829
	C317.719,128.393,343.892,154.564,343.892,186.987z"/>
<path style="fill:#F6A96C;" d="M343.892,304.176H324.36V226.05h19.531c21.544,0,39.063,17.519,39.063,39.063
	S365.435,304.176,343.892,304.176z"/>
<path style="fill:#FFBD86;" d="M148.577,304.176h-19.531c-21.544,0-39.714-17.519-39.714-39.063s18.17-39.063,39.714-39.063h19.531
	V304.176z"/>
<path style="fill:#FED2A4;" d="M343.892,226.05v87.892c0,59.18-48.242,108.725-107.423,108.725s-107.423-49.545-107.423-108.725
	V226.05l24.414-19.531h176.955L343.892,226.05z"/>
<path style="fill:#FFBD86;" d="M343.892,226.05v87.892c0,59.18-48.242,108.725-107.423,108.725V206.519h93.946L343.892,226.05z"/>
<path style="fill:#FF641A;" d="M278.656,338.356c-8.594,15.04-24.804,24.414-42.187,24.414s-33.594-9.375-42.187-24.414
	l16.797-9.766c5.273,8.985,15.038,14.649,25.391,14.649c10.352,0,20.118-5.664,25.391-14.649L278.656,338.356z"/>
<rect x="265.77" y="265.11" style="fill:#444444;" width="19.531" height="19.531"/>
<rect x="187.64" y="265.11" style="fill:#5A5A5A;" width="19.531" height="19.531"/>
<path style="fill:#FF4B00;" d="M261.859,328.59l16.797,9.766c-8.594,15.04-24.804,24.414-42.187,24.414v-19.531
	C246.821,343.239,256.587,337.575,261.859,328.59z"/>
<polygon style="fill:#00ABE9;" points="207.171,226.05 129.046,226.05 129.046,186.987 207.171,186.987 226.703,209.774 "/>
<polygon style="fill:#0095FF;" points="343.892,226.05 265.766,226.05 246.234,206.519 265.766,186.987 343.892,186.987 "/>
<rect x="207.17" y="186.99" style="fill:#EDE9E8;" width="58.59" height="39.06"/>
<rect x="236.47" y="186.99" style="fill:#DFD7D5;" width="29.3" height="39.06"/>
<g>
</g>
<g>
</g>
<g>
</g>
<g>
</g>
<g>
</g>
<g>
</g>
<g>
</g>
<g>
</g>
<g>
</g>
<g>
</g>
<g>
</g>
<g>
</g>
<g>
</g>
<g>
</g>
<g>
</g>
</svg>
