<?xml version="1.0" encoding="iso-8859-1"?>
<!-- Generator: Adobe Illustrator 19.0.0, SVG Export Plug-In . SVG Version: 6.00 Build 0)  -->
<svg version="1.1" id="Capa_1" xmlns="http://www.w3.org/2000/svg" xmlns:xlink="http://www.w3.org/1999/xlink" x="0px" y="0px"
	 viewBox="0 0 512 512" style="enable-background:new 0 0 512 512;" xml:space="preserve">
<circle style="fill:#F77E00;" cx="256" cy="256" r="256"/>
<path style="fill:#B95F00;" d="M509.199,293.92L304.779,89.5l-97.559,19.512l23,22.676l-81.053,94.008l-27.553,67.48l27.279,27.292
	l32.134,70.743l117.287,117.288C407.255,490.376,492.931,403.477,509.199,293.92z"/>
<rect x="246.24" y="89.5" style="fill:#A1A1A7;" width="19.512" height="48.779"/>
<rect x="256" y="89.5" style="fill:#929298;" width="9.756" height="48.779"/>
<path style="fill:#F6A96C;" d="M363.314,304.129h-19.512v-78.047h19.512c21.522,0,39.023,17.501,39.023,39.023
	S384.836,304.129,363.314,304.129z"/>
<path style="fill:#FFBD86;" d="M168.197,304.129h-19.512c-21.522,0-39.023-17.501-39.023-39.023s17.501-39.023,39.023-39.023h19.512
	V304.129z"/>
<path style="fill:#FED2A4;" d="M363.314,226.082v87.803c0,59.12-48.193,108.615-107.314,108.615s-107.314-49.495-107.314-108.615
	v-87.803l24.39-19.512h176.776L363.314,226.082z"/>
<path style="fill:#FFBD86;" d="M363.314,226.082v87.803c0,59.12-48.193,108.615-107.314,108.615V206.57h93.851L363.314,226.082z"/>
<rect x="207.22" y="89.5" style="fill:#BABAC0;" width="97.56" height="19.512"/>
<path style="fill:#FF641A;" d="M298.145,338.274c-8.585,15.024-24.779,24.39-42.145,24.39s-33.56-9.365-42.145-24.39l16.78-9.756
	c5.267,8.976,15.023,14.634,25.365,14.634c10.342,0,20.098-5.658,25.365-14.634L298.145,338.274z"/>
<rect x="285.27" y="265.11" style="fill:#444444;" width="19.512" height="19.512"/>
<rect x="207.22" y="265.11" style="fill:#5A5A5A;" width="19.512" height="19.512"/>
<path style="fill:#FF4B00;" d="M281.365,328.519l16.78,9.756c-8.585,15.024-24.779,24.39-42.145,24.39v-19.512
	C266.342,343.152,276.098,337.494,281.365,328.519z"/>
<rect x="256" y="89.5" style="fill:#A1A1A7;" width="48.779" height="19.512"/>
<path style="fill:#0095FF;" d="M148.686,235.838v9.756h59.519L256,128.523C196.827,128.523,148.686,176.664,148.686,235.838z"/>
<path style="fill:#136EF1;" d="M256,128.523l47.796,117.07h59.519v-9.756C363.314,176.664,315.173,128.523,256,128.523z"/>
<path style="fill:#00ABE9;" d="M304.779,226.082c0,6.633-0.391,13.268-0.975,19.512h-95.608c-0.585-6.244-0.975-12.878-0.975-19.512
	c0-53.853,21.853-97.559,48.779-97.559S304.779,172.229,304.779,226.082z"/>
<path style="fill:#0095FF;" d="M304.779,226.082c0,6.633-0.391,13.268-0.975,19.512H256v-117.07
	C282.926,128.523,304.779,172.229,304.779,226.082z"/>
<g>
</g>
<g>
</g>
<g>
</g>
<g>
</g>
<g>
</g>
<g>
</g>
<g>
</g>
<g>
</g>
<g>
</g>
<g>
</g>
<g>
</g>
<g>
</g>
<g>
</g>
<g>
</g>
<g>
</g>
</svg>
