<?xml version="1.0" encoding="iso-8859-1"?>
<!-- Generator: Adobe Illustrator 19.0.0, SVG Export Plug-In . SVG Version: 6.00 Build 0)  -->
<svg version="1.1" id="Capa_1" xmlns="http://www.w3.org/2000/svg" xmlns:xlink="http://www.w3.org/1999/xlink" x="0px" y="0px"
	 viewBox="0 0 512 512" style="enable-background:new 0 0 512 512;" xml:space="preserve">
<circle style="fill:#FF3636;" cx="256" cy="256" r="256"/>
<path style="fill:#C10000;" d="M511.394,273.487L383.969,146.063h-24.07l-26.685-26.672l-205.183,66.047l2.155,2L88,423
	l69.248,69.248C187.637,504.966,220.996,512,256,512C391.506,512,502.404,406.714,511.394,273.487z"/>
<path style="fill:#EDE9E8;" d="M424,413.156V423H88v-9.844c0-66.347,11.287-133.219,32.353-196.219l20.082-60.244h231.131
	l20.082,60.244C412.713,279.937,424,346.809,424,413.156z"/>
<path style="fill:#DFD7D5;" d="M424,413.156V423H256V156.693h115.566l20.082,60.244C412.713,279.937,424,346.809,424,413.156z"/>
<path style="fill:#FED2A4;" d="M364.281,224.813v85.771c0,42.919-24.018,81.309-59.063,100.21c-3.149,1.574-6.3-16.538-9.647-15.357
	c-3.347,1.378-6.694,22.247-10.041,23.231c-6.103,1.772-12.403,3.151-18.9,3.741C263.087,422.803,259.544,423,256,423h-0.197
	c-10.041,0-19.885-1.772-29.334-4.529c-2.954-0.787-6.103-21.459-9.057-22.64c-3.544-1.378-7.087,16.734-10.631,14.963
	c-8.268-4.332-16.341-9.451-23.625-15.947c-22.444-20.476-35.437-49.613-35.437-80.128v-89.906h49.219
	c24.412,0,46.856-12.994,59.063-33.469c12.206,20.475,34.65,33.469,59.063,33.469L364.281,224.813L364.281,224.813z"/>
<path style="fill:#FFBD86;" d="M315.063,224.813h49.219v85.771c0,42.919-24.018,81.309-59.063,100.21
	c-3.149,1.574-6.3-16.538-9.647-15.357c-3.347,1.378-6.694,22.247-10.041,23.231c-6.103,1.772-12.403,3.151-18.9,3.741
	C263.087,422.803,259.544,423,256,423V191.344C268.206,211.818,290.65,224.813,315.063,224.813z"/>
<path style="fill:#EDE9E8;" d="M355.225,151.969h-198.45C173.903,112.594,212.884,87,256,87S338.097,112.594,355.225,151.969z"/>
<path style="fill:#DFD7D5;" d="M355.225,151.969H256V87C299.116,87,338.097,112.594,355.225,151.969z"/>
<rect x="285.53" y="264.19" style="fill:#444444;" width="19.688" height="19.688"/>
<g>
	<rect x="206.78" y="264.19" style="fill:#5A5A5A;" width="19.688" height="19.688"/>
	<rect x="128.03" y="146.06" style="fill:#5A5A5A;" width="255.94" height="39.37"/>
	<path style="fill:#5A5A5A;" d="M305.219,349.959v60.835c-6.3,3.149-12.797,5.906-19.688,7.874v-60.441l-13.979-13.977h-31.105
		l-13.979,13.977v60.244c-6.89-1.968-13.387-4.528-19.688-7.677v-60.835l25.396-25.396h47.645L305.219,349.959z"/>
</g>
<g>
	<path style="fill:#444444;" d="M305.219,349.959v60.835c-6.3,3.149-12.797,5.906-19.688,7.874v-60.441l-13.979-13.977H256v-19.688
		h23.822L305.219,349.959z"/>
	<rect x="256" y="146.06" style="fill:#444444;" width="127.97" height="39.37"/>
</g>
<g>
</g>
<g>
</g>
<g>
</g>
<g>
</g>
<g>
</g>
<g>
</g>
<g>
</g>
<g>
</g>
<g>
</g>
<g>
</g>
<g>
</g>
<g>
</g>
<g>
</g>
<g>
</g>
<g>
</g>
</svg>
