<?xml version="1.0" encoding="iso-8859-1"?>
<!-- Generator: Adobe Illustrator 19.0.0, SVG Export Plug-In . SVG Version: 6.00 Build 0)  -->
<svg version="1.1" id="Capa_1" xmlns="http://www.w3.org/2000/svg" xmlns:xlink="http://www.w3.org/1999/xlink" x="0px" y="0px"
	 viewBox="0 0 512 512" style="enable-background:new 0 0 512 512;" xml:space="preserve">
<circle style="fill:#00CC71;" cx="256" cy="256" r="256"/>
<path style="fill:#00AB5E;" d="M512,256c0-17.593-1.777-34.771-5.157-51.366l-89.122-89.122l-160.475,3.856l-12-12L95.278,157.096
	l51.151,51.154v17.203l-27.65,68.494l27.862,27.869l32.792,72.22l115.081,115.081C417.626,490.54,512,384.293,512,256z"/>
<path style="fill:#0095FF;" d="M384.496,116.48l-3.586,33.071c-9.364,5.18-15.34,15.339-15.34,26.098v9.961l-16.137,19.922H167.547
	L146.43,185.61v-9.961c0-10.759-5.976-20.918-15.34-26.098l-3.586-33.071l27.891-18.527C167.148,90.183,180.695,86,194.84,86
	c26.098,0,48.809,14.343,61.16,35.46C268.351,100.343,291.063,86,317.16,86c14.145,0,27.692,4.183,39.445,11.953L384.496,116.48z"/>
<path style="fill:#F40000;" d="M384.496,116.48l-3.586,33.071c-9.364,5.18-15.34,15.339-15.34,26.098v9.961l-16.137,19.922H256
	V121.46C268.351,100.343,291.063,86,317.16,86c14.145,0,27.692,4.183,39.445,11.953L384.496,116.48z"/>
<path style="fill:#F6A96C;" d="M365.57,305.141h-19.922v-79.688h19.922c21.974,0,39.844,17.869,39.844,39.844
	S387.545,305.141,365.57,305.141z"/>
<path style="fill:#FFBD86;" d="M166.352,305.141H146.43c-21.974,0-39.844-17.869-39.844-39.844s17.869-39.844,39.844-39.844h19.922
	L166.352,305.141L166.352,305.141z"/>
<path style="fill:#FED2A4;" d="M365.57,225.453v89.648C365.57,375.464,316.364,426,256,426s-109.57-50.536-109.57-110.898v-89.648
	l24.902-19.922h180.492L365.57,225.453z"/>
<path style="fill:#FFBD86;" d="M365.57,225.453v89.648C365.57,375.464,316.364,426,256,426V205.531h95.824L365.57,225.453z"/>
<path style="fill:#FF9F00;" d="M395.453,165.688c-16.478,0-29.883-13.404-29.883-29.883s13.404-29.883,29.883-29.883
	S426,119.326,426,135.805S411.931,165.688,395.453,165.688z"/>
<path style="fill:#FFB64C;" d="M116.547,165.688c-16.478,0-30.547-13.404-30.547-29.883s14.069-29.883,30.547-29.883
	s29.883,13.404,29.883,29.883S133.025,165.688,116.547,165.688z"/>
<path style="fill:#FF641A;" d="M299.031,340.004c-8.766,15.34-25.3,24.902-43.031,24.902s-34.265-9.562-43.031-24.902l17.133-9.961
	c5.378,9.164,15.339,14.941,25.898,14.941c10.559,0,20.52-5.777,25.898-14.941L299.031,340.004z"/>
<rect x="285.88" y="265.3" style="fill:#444444;" width="19.922" height="19.922"/>
<rect x="206.19" y="265.3" style="fill:#5A5A5A;" width="19.922" height="19.922"/>
<path style="fill:#FF4B00;" d="M281.898,330.043l17.133,9.961c-8.766,15.34-25.3,24.902-43.031,24.902v-19.922
	C266.559,344.984,276.52,339.207,281.898,330.043z"/>
<rect x="146.43" y="185.61" style="fill:#5A5A5A;" width="219.14" height="39.844"/>
<rect x="256" y="185.61" style="fill:#444444;" width="109.57" height="39.844"/>
<g>
</g>
<g>
</g>
<g>
</g>
<g>
</g>
<g>
</g>
<g>
</g>
<g>
</g>
<g>
</g>
<g>
</g>
<g>
</g>
<g>
</g>
<g>
</g>
<g>
</g>
<g>
</g>
<g>
</g>
</svg>
