<?xml version="1.0" encoding="iso-8859-1"?>
<!-- Generator: Adobe Illustrator 19.0.0, SVG Export Plug-In . SVG Version: 6.00 Build 0)  -->
<svg version="1.1" id="Capa_1" xmlns="http://www.w3.org/2000/svg" xmlns:xlink="http://www.w3.org/1999/xlink" x="0px" y="0px"
	 viewBox="0 0 512 512" style="enable-background:new 0 0 512 512;" xml:space="preserve">
<circle style="fill:#00CC71;" cx="256" cy="256" r="256"/>
<path style="fill:#00AB5E;" d="M511.191,276.4L343.803,109.012h-42.454l-7.524-7.496l-125.628,27.007l13,12.319l-59.582,152.333
	l27.279,27.292l32.134,70.743l117.287,117.288C413.003,489.419,501.909,394.116,511.191,276.4z"/>
<rect x="168.2" y="109.01" style="fill:#FF3636;" width="50.45" height="19.512"/>
<rect x="293.36" y="109.01" style="fill:#F40000;" width="50.45" height="19.512"/>
<path style="fill:#444444;" d="M402.338,216.326c0,48.584-65.559,87.803-146.338,87.803s-146.338-39.219-146.338-87.803
	S175.221,128.523,256,128.523S402.338,167.742,402.338,216.326z"/>
<path style="fill:#292929;" d="M402.338,216.326c0,48.584-65.559,87.803-146.338,87.803V128.523
	C336.779,128.523,402.338,167.742,402.338,216.326z"/>
<path style="fill:#F6A96C;" d="M363.314,304.129h-19.512v-78.047h19.512c21.522,0,39.023,17.501,39.023,39.023
	S384.836,304.129,363.314,304.129z"/>
<path style="fill:#FFBD86;" d="M168.197,304.129h-19.512c-21.522,0-39.023-17.501-39.023-39.023s17.501-39.023,39.023-39.023h19.512
	V304.129z"/>
<path style="fill:#FED2A4;" d="M314.535,187.059h-19.512c-16,0-30.048,7.804-39.023,19.901
	c-8.976-12.097-23.024-19.901-39.023-19.901h-19.512c-26.926,0-48.779,21.853-48.779,48.779v78.047
	c0,59.12,48.193,108.615,107.314,108.615s107.314-49.495,107.314-108.615v-78.047C363.314,208.912,341.461,187.059,314.535,187.059z
	"/>
<path style="fill:#FFBD86;" d="M363.314,235.838v78.047c0,59.12-48.193,108.615-107.314,108.615V206.96
	c8.976-12.097,23.024-19.901,39.023-19.901h19.512C341.461,187.059,363.314,208.912,363.314,235.838z"/>
<path style="fill:#FF641A;" d="M298.145,338.274c-8.585,15.024-24.779,24.39-42.145,24.39s-33.56-9.365-42.145-24.39l16.78-9.756
	c5.267,8.976,15.023,14.634,25.365,14.634c10.342,0,20.098-5.658,25.365-14.634L298.145,338.274z"/>
<rect x="285.27" y="265.11" style="fill:#444444;" width="19.512" height="19.512"/>
<rect x="207.22" y="265.11" style="fill:#5A5A5A;" width="19.512" height="19.512"/>
<path style="fill:#FF4B00;" d="M281.365,328.519l16.78,9.756c-8.585,15.024-24.779,24.39-42.145,24.39v-19.512
	C266.342,343.152,276.098,337.494,281.365,328.519z"/>
<path style="fill:#5A5A5A;" d="M265.756,89.5h-19.512c-21.462,0-39.023,17.56-39.023,39.023c0,21.462,17.561,39.023,39.023,39.023
	h19.512c21.462,0,39.023-17.561,39.023-39.023C304.779,107.06,287.218,89.5,265.756,89.5z"/>
<path style="fill:#444444;" d="M265.756,167.547H256V89.5h9.756c21.462,0,39.023,17.56,39.023,39.023
	C304.779,149.986,287.218,167.547,265.756,167.547z"/>
<g>
</g>
<g>
</g>
<g>
</g>
<g>
</g>
<g>
</g>
<g>
</g>
<g>
</g>
<g>
</g>
<g>
</g>
<g>
</g>
<g>
</g>
<g>
</g>
<g>
</g>
<g>
</g>
<g>
</g>
</svg>
