<?xml version="1.0" encoding="iso-8859-1"?>
<!-- Generator: Adobe Illustrator 19.0.0, SVG Export Plug-In . SVG Version: 6.00 Build 0)  -->
<svg version="1.1" id="Capa_1" xmlns="http://www.w3.org/2000/svg" xmlns:xlink="http://www.w3.org/1999/xlink" x="0px" y="0px"
	 viewBox="0 0 512 512" style="enable-background:new 0 0 512 512;" xml:space="preserve">
<circle style="fill:#F77E00;" cx="256" cy="256" r="256"/>
<path style="fill:#B95F00;" d="M508.264,299.734L374.588,166.059H371.8l-52.774-52.767l-181.615,72.532l15.448,15l29.474,33.677
	l-62.468,58.811l27.64,27.656l32.189,70.632L296.84,508.743C404.543,491.474,489.792,407.031,508.264,299.734z"/>
<path style="fill:#D2C5C2;" d="M364.706,304.412h-19.765v-79.059h19.765c21.801,0,39.529,17.728,39.529,39.529
	S386.507,304.412,364.706,304.412z"/>
<path style="fill:#DFD7D5;" d="M167.059,304.412h-19.765c-21.801,0-39.529-17.728-39.529-39.529s17.728-39.529,39.529-39.529h19.765
	V304.412z"/>
<path style="fill:#EDE9E8;" d="M364.706,235.235v79.059C364.706,374.181,315.888,423,256,423s-108.706-48.819-108.706-108.706
	v-79.059c0-23.718,7.511-46.25,21.741-65.223h173.93C357.195,188.985,364.706,211.517,364.706,235.235z"/>
<path style="fill:#DFD7D5;" d="M364.706,235.235v79.059C364.706,374.181,315.888,423,256,423V170.012h86.965
	C357.195,188.985,364.706,211.517,364.706,235.235z"/>
<rect x="285.65" y="245.12" style="fill:#444444;" width="19.765" height="19.765"/>
<g>
	<path style="fill:#FF3636;" d="M325.176,314.294c0,38.146-31.031,69.176-69.176,69.176s-69.176-31.031-69.176-69.176h19.765
		c0,27.275,22.136,49.412,49.412,49.412s49.412-22.136,49.412-49.412H325.176z"/>
	<path style="fill:#FF3636;" d="M256,284.647c-16.405,0-29.647,13.242-29.647,29.647c0,16.404,13.242,29.647,29.647,29.647
		s29.647-13.243,29.647-29.647C285.647,297.889,272.405,284.647,256,284.647z"/>
</g>
<path style="fill:#444444;" d="M344.941,175.941H167.059C167.059,126.924,206.984,87,256,87S344.941,126.924,344.941,175.941z"/>
<g>
	<path style="fill:#F40000;" d="M256,343.941v-59.294c16.405,0,29.647,13.242,29.647,29.647
		C285.647,330.698,272.405,343.941,256,343.941z"/>
	<path style="fill:#F40000;" d="M305.412,314.294h19.765c0,38.146-31.031,69.176-69.176,69.176v-19.765
		C283.275,363.706,305.412,341.57,305.412,314.294z"/>
</g>
<path style="fill:#292929;" d="M344.941,175.941H256V87C305.016,87,344.941,126.924,344.941,175.941z"/>
<g>
	<rect x="206.59" y="245.12" style="fill:#5A5A5A;" width="19.765" height="19.765"/>
	<rect x="137.41" y="166.06" style="fill:#5A5A5A;" width="237.18" height="19.765"/>
</g>
<rect x="256" y="166.06" style="fill:#444444;" width="118.59" height="19.765"/>
<g>
</g>
<g>
</g>
<g>
</g>
<g>
</g>
<g>
</g>
<g>
</g>
<g>
</g>
<g>
</g>
<g>
</g>
<g>
</g>
<g>
</g>
<g>
</g>
<g>
</g>
<g>
</g>
<g>
</g>
</svg>
