<?xml version="1.0" encoding="iso-8859-1"?>
<!-- Generator: Adobe Illustrator 19.0.0, SVG Export Plug-In . SVG Version: 6.00 Build 0)  -->
<svg version="1.1" id="Capa_1" xmlns="http://www.w3.org/2000/svg" xmlns:xlink="http://www.w3.org/1999/xlink" x="0px" y="0px"
	 viewBox="0 0 512 512" style="enable-background:new 0 0 512 512;" xml:space="preserve">
<circle style="fill:#F77E00;" cx="256" cy="256" r="256"/>
<path style="fill:#B95F00;" d="M511.542,271.151L426,185.609h-41.642l-74.273-74.271L98.281,293.708l28.462,28.474l32.769,71.854
	L276.645,511.17C403.389,501.054,504.099,398.63,511.542,271.151z"/>
<path style="fill:#F6A96C;" d="M345.648,305.141h-19.922v-79.688h19.922c21.974,0,39.844,17.869,39.844,39.844
	S367.623,305.141,345.648,305.141z"/>
<path style="fill:#FFBD86;" d="M146.43,305.141h-19.922c-21.974,0-40.508-17.869-40.508-39.844s18.533-39.844,40.508-39.844h19.922
	V305.141z"/>
<path style="fill:#FED2A4;" d="M345.648,225.453v89.648c0,60.363-49.206,110.898-109.57,110.898s-109.57-50.536-109.57-110.898
	v-89.648l24.902-19.922h180.492L345.648,225.453z"/>
<path style="fill:#FFBD86;" d="M345.648,225.453v89.648c0,60.363-49.206,110.898-109.57,110.898V205.531h95.824L345.648,225.453z"/>
<path id="SVGCleanerId_0" style="fill:#FF641A;" d="M279.109,340.004c-8.766,15.34-25.3,24.902-43.031,24.902
	s-34.265-9.562-43.031-24.902l17.133-9.961c5.378,9.164,15.339,14.941,25.898,14.941s20.52-5.777,25.898-14.941L279.109,340.004z"/>
<rect id="SVGCleanerId_1" x="265.96" y="265.3" style="fill:#444444;" width="19.922" height="19.922"/>
<rect id="SVGCleanerId_2" x="186.27" y="265.3" style="fill:#5A5A5A;" width="19.922" height="19.922"/>
<path id="SVGCleanerId_3" style="fill:#FF4B00;" d="M261.976,330.043l17.133,9.961c-8.766,15.34-25.3,24.902-43.031,24.902v-19.922
	C246.637,344.984,256.598,339.207,261.976,330.043z"/>
<g>
	<path id="SVGCleanerId_0_1_" style="fill:#FF641A;" d="M279.109,340.004c-8.766,15.34-25.3,24.902-43.031,24.902
		s-34.265-9.562-43.031-24.902l17.133-9.961c5.378,9.164,15.339,14.941,25.898,14.941s20.52-5.777,25.898-14.941L279.109,340.004z"
		/>
</g>
<g>
	<rect id="SVGCleanerId_1_1_" x="265.96" y="265.3" style="fill:#444444;" width="19.922" height="19.922"/>
</g>
<g>
	<rect id="SVGCleanerId_2_1_" x="186.27" y="265.3" style="fill:#5A5A5A;" width="19.922" height="19.922"/>
</g>
<g>
	<path id="SVGCleanerId_3_1_" style="fill:#FF4B00;" d="M261.976,330.043l17.133,9.961c-8.766,15.34-25.3,24.902-43.031,24.902
		v-19.922C246.637,344.984,256.598,339.207,261.976,330.043z"/>
</g>
<path style="fill:#00ABE9;" d="M426,185.609c0,21.714-18.395,39.844-40.508,39.844h-99.609l-19.922-19.922h-59.766l-19.922,19.922
	h-59.766V195.57c0-49.605,40.043-109.57,89.648-109.57H256c46.418,0,84.269,52.195,89.05,99.609L426,185.609L426,185.609z"/>
<g>
	<path style="fill:#0095FF;" d="M426,185.609c0,21.714-18.395,39.844-40.508,39.844h-99.609l-19.922-19.922h-29.883V86H256
		c46.418,0,84.269,52.195,89.05,99.609L426,185.609L426,185.609z"/>
	<rect x="186.27" y="185.61" style="fill:#0095FF;" width="99.61" height="39.844"/>
</g>
<rect x="236.08" y="185.61" style="fill:#136EF1;" width="49.805" height="39.844"/>
<g>
</g>
<g>
</g>
<g>
</g>
<g>
</g>
<g>
</g>
<g>
</g>
<g>
</g>
<g>
</g>
<g>
</g>
<g>
</g>
<g>
</g>
<g>
</g>
<g>
</g>
<g>
</g>
<g>
</g>
</svg>
