<?xml version="1.0" encoding="iso-8859-1"?>
<!-- Generator: Adobe Illustrator 19.0.0, SVG Export Plug-In . SVG Version: 6.00 Build 0)  -->
<svg version="1.1" id="Capa_1" xmlns="http://www.w3.org/2000/svg" xmlns:xlink="http://www.w3.org/1999/xlink" x="0px" y="0px"
	 viewBox="0 0 512 512" style="enable-background:new 0 0 512 512;" xml:space="preserve">
<circle style="fill:#00ABE9;" cx="256" cy="256" r="256"/>
<path style="fill:#136EF1;" d="M509.748,289.998l-163.45-163.45l-39.24-20.34l-21-21.209L125.746,225.273l20,20l29.504,30.098
	l-49.504,10.02l20,20l33.232,89.453l114.428,114.428C405.98,492.788,494.746,403.046,509.748,289.998z"/>
<rect x="125.75" y="265.35" style="fill:#444444;" width="40.08" height="20.04"/>
<rect x="346.18" y="265.35" style="fill:#292929;" width="40.08" height="20.04"/>
<path style="fill:#FDBF00;" d="M366.215,175.176v40.078h-220.43v-40.078c0-27.855,16.432-51.701,40.078-63.124l10.02,13.026
	l10.02-19.037c3.206-0.4,6.613-1.002,10.02-1.002h80.156c3.406,0,6.814,0.602,10.02,1.002l10.02,19.037l10.02-13.026
	C349.783,123.475,366.215,147.321,366.215,175.176z"/>
<path style="fill:#FF9F00;" d="M366.215,175.176v40.078H256V105.039h40.078c3.406,0,6.814,0.602,10.02,1.002l10.02,19.037
	l10.02-13.026C349.783,123.475,366.215,147.321,366.215,175.176z"/>
<path style="fill:#5A5A5A;" d="M366.215,215.254v100.195C366.215,376.168,316.719,427,256,427s-110.215-50.832-110.215-111.551
	V215.254H366.215z"/>
<g>
	<path style="fill:#444444;" d="M366.215,215.254v100.195C366.215,376.168,316.719,427,256,427V215.254H366.215z"/>
	<rect x="205.9" y="345.51" style="fill:#444444;" width="20.04" height="20.04"/>
	<rect x="245.98" y="345.51" style="fill:#444444;" width="20.04" height="20.04"/>
</g>
<rect x="286.06" y="345.51" style="fill:#292929;" width="20.04" height="20.04"/>
<path style="fill:#FDBF00;" d="M326.137,185.195v-73.121c-6.24-2.987-12.952-4.995-20.039-6.022v79.144L326.137,185.195
	L326.137,185.195z"/>
<path style="fill:#FFD400;" d="M205.902,185.195v-79.144c-7.087,1.027-13.799,3.036-20.039,6.022v73.121L205.902,185.195
	L205.902,185.195z"/>
<path style="fill:#EDE9E8;" d="M185.863,245.313v60.117h140.273v-60.117L185.863,245.313L185.863,245.313z"/>
<rect x="125.75" y="205.23" style="fill:#FF9F00;" width="260.51" height="20.04"/>
<rect x="256" y="245.31" style="fill:#D2C5C2;" width="70.14" height="60.12"/>
<rect x="256" y="205.23" style="fill:#FF7816;" width="130.25" height="20.04"/>
<rect x="225.94" y="85" style="fill:#FFD400;" width="60.12" height="80.16"/>
<rect x="256" y="85" style="fill:#FDBF00;" width="30.06" height="80.16"/>
<rect x="256" y="345.51" style="fill:#292929;" width="10.02" height="20.04"/>
<g>
</g>
<g>
</g>
<g>
</g>
<g>
</g>
<g>
</g>
<g>
</g>
<g>
</g>
<g>
</g>
<g>
</g>
<g>
</g>
<g>
</g>
<g>
</g>
<g>
</g>
<g>
</g>
<g>
</g>
</svg>
