<?xml version="1.0" encoding="iso-8859-1"?>
<!-- Generator: Adobe Illustrator 19.0.0, SVG Export Plug-In . SVG Version: 6.00 Build 0)  -->
<svg version="1.1" id="Capa_1" xmlns="http://www.w3.org/2000/svg" xmlns:xlink="http://www.w3.org/1999/xlink" x="0px" y="0px"
	 viewBox="0 0 512 512" style="enable-background:new 0 0 512 512;" xml:space="preserve">
<circle style="fill:#FF3636;" cx="256" cy="256" r="256"/>
<path style="fill:#C10000;" d="M511.21,276.185L382.953,147.927h-20.587l-37.532-37.531L121.48,293.213l27.307,27.321l32.165,70.812
	l117.183,117.183C412.98,489.508,502.015,394.062,511.21,276.185z"/>
<path style="fill:#DFD7D5;" d="M343.891,157.693v9.766H256V89.333h19.531C313.226,89.333,343.891,119.998,343.891,157.693z"/>
<path style="fill:#F6A96C;" d="M363.422,304.177h-19.531v-78.125h19.531c21.544,0,39.063,17.519,39.063,39.063
	C402.484,286.658,384.965,304.177,363.422,304.177z"/>
<path style="fill:#FFBD86;" d="M168.109,304.177h-19.531c-21.544,0-39.063-17.519-39.063-39.063
	c0-21.544,17.519-39.063,39.063-39.063h19.531V304.177z"/>
<path style="fill:#FED2A4;" d="M363.422,226.052v87.891c0,59.179-48.242,108.724-107.422,108.724s-107.422-49.545-107.422-108.724
	v-87.891l24.414-19.531h176.953L363.422,226.052z"/>
<path style="fill:#FFBD86;" d="M363.422,226.052v87.891c0,59.179-48.242,108.724-107.422,108.724V206.521h93.945L363.422,226.052z"
	/>
<g>
	<path id="SVGCleanerId_0" style="fill:#FF641A;" d="M298.187,338.357c-8.594,15.039-24.804,24.414-42.187,24.414
		s-33.593-9.375-42.187-24.414l16.797-9.766c5.273,8.985,15.038,14.648,25.39,14.648c10.352,0,20.118-5.664,25.39-14.648
		L298.187,338.357z"/>
</g>
<rect x="285.3" y="265.12" style="fill:#444444;" width="19.531" height="19.531"/>
<g>
	<rect id="SVGCleanerId_1" x="207.17" y="265.12" style="fill:#5A5A5A;" width="19.531" height="19.531"/>
</g>
<path style="fill:#FF4B00;" d="M281.39,328.591l16.797,9.766c-8.594,15.039-24.804,24.414-42.187,24.414V343.24
	C266.352,343.24,276.118,337.576,281.39,328.591z"/>
<g>
	<path id="SVGCleanerId_0_1_" style="fill:#FF641A;" d="M298.187,338.357c-8.594,15.039-24.804,24.414-42.187,24.414
		s-33.593-9.375-42.187-24.414l16.797-9.766c5.273,8.985,15.038,14.648,25.39,14.648c10.352,0,20.118-5.664,25.39-14.648
		L298.187,338.357z"/>
</g>
<rect id="SVGCleanerId_2" x="285.3" y="265.12" style="fill:#444444;" width="19.531" height="19.531"/>
<g>
	<rect id="SVGCleanerId_1_1_" x="207.17" y="265.12" style="fill:#5A5A5A;" width="19.531" height="19.531"/>
</g>
<path id="SVGCleanerId_3" style="fill:#FF4B00;" d="M281.39,328.591l16.797,9.766c-8.594,15.039-24.804,24.414-42.187,24.414V343.24
	C266.352,343.24,276.118,337.576,281.39,328.591z"/>
<g>
	<path id="SVGCleanerId_0_2_" style="fill:#FF641A;" d="M298.187,338.357c-8.594,15.039-24.804,24.414-42.187,24.414
		s-33.593-9.375-42.187-24.414l16.797-9.766c5.273,8.985,15.038,14.648,25.39,14.648c10.352,0,20.118-5.664,25.39-14.648
		L298.187,338.357z"/>
</g>
<g>
	<rect id="SVGCleanerId_2_1_" x="285.3" y="265.12" style="fill:#444444;" width="19.531" height="19.531"/>
</g>
<g>
	<rect id="SVGCleanerId_1_2_" x="207.17" y="265.12" style="fill:#5A5A5A;" width="19.531" height="19.531"/>
</g>
<g>
	<path id="SVGCleanerId_3_1_" style="fill:#FF4B00;" d="M281.39,328.591l16.797,9.766c-8.594,15.039-24.804,24.414-42.187,24.414
		V343.24C266.352,343.24,276.118,337.576,281.39,328.591z"/>
</g>
<rect x="148.58" y="186.99" width="214.84" height="19.531"/>
<g>
	<path style="fill:#EDE9E8;" d="M275.531,89.333h-39.063c-37.695,0-68.359,30.664-68.359,68.359v9.766H343.89v-9.766
		C343.891,119.998,313.226,89.333,275.531,89.333z"/>
	<polygon style="fill:#EDE9E8;" points="373.188,186.99 363.422,226.052 148.578,226.052 138.813,186.99 156.585,167.458 
		354.243,167.458 	"/>
</g>
<polygon style="fill:#DFD7D5;" points="373.188,186.99 363.422,226.052 256,226.052 256,167.458 354.243,167.458 "/>
<polygon style="fill:#00ABE9;" points="382.953,147.927 373.188,186.99 138.813,186.99 129.047,147.927 "/>
<polygon style="fill:#0095FF;" points="382.953,147.927 373.188,186.99 256,186.99 256,147.927 "/>
<g>
</g>
<g>
</g>
<g>
</g>
<g>
</g>
<g>
</g>
<g>
</g>
<g>
</g>
<g>
</g>
<g>
</g>
<g>
</g>
<g>
</g>
<g>
</g>
<g>
</g>
<g>
</g>
<g>
</g>
</svg>
