<?xml version="1.0" encoding="iso-8859-1"?>
<!-- Generator: Adobe Illustrator 19.0.0, SVG Export Plug-In . SVG Version: 6.00 Build 0)  -->
<svg version="1.1" id="Capa_1" xmlns="http://www.w3.org/2000/svg" xmlns:xlink="http://www.w3.org/1999/xlink" x="0px" y="0px"
	 viewBox="0 0 512 512" style="enable-background:new 0 0 512 512;" xml:space="preserve">
<circle style="fill:#FF3636;" cx="256" cy="256" r="256"/>
<path style="fill:#C10000;" d="M506.184,310.417L285.268,89.5L109.662,265.105l39,39l32.292,87.178L298.189,508.52
	C401.66,491.359,484.157,412.16,506.184,310.417z"/>
<path style="fill:#B34F03;" d="M168.197,265.105h-58.535V206.57h58.535V265.105z"/>
<path style="fill:#913F02;" d="M402.338,265.105h-58.535V206.57h58.535V265.105z"/>
<path style="fill:#EDE9E8;" d="M363.314,216.326v97.559C363.314,373.2,315.315,422.5,256,422.5s-107.314-49.3-107.314-108.615
	v-97.559c0-59.316,47.999-107.314,107.314-107.314c29.658,0,56.584,12.097,75.901,31.414S363.314,186.668,363.314,216.326z"/>
<path style="fill:#DFD7D5;" d="M363.314,216.326v97.559C363.314,373.2,315.315,422.5,256,422.5V109.012
	c29.658,0,56.584,12.097,75.901,31.414S363.314,186.668,363.314,216.326z"/>
<rect x="226.73" y="304.13" style="fill:#5A5A5A;" width="19.512" height="19.512"/>
<rect x="265.76" y="304.13" style="fill:#444444;" width="19.512" height="19.512"/>
<rect x="226.73" y="187.06" style="fill:#5A5A5A;" width="19.512" height="19.512"/>
<g>
	<rect x="265.76" y="187.06" style="fill:#444444;" width="19.512" height="19.512"/>
	<rect x="265.76" y="343.15" style="fill:#444444;" width="19.512" height="19.512"/>
</g>
<rect x="226.73" y="343.15" style="fill:#5A5A5A;" width="19.512" height="19.512"/>
<path style="fill:#B34F03;" d="M226.732,89.5v58.535h58.535V89.5H226.732z"/>
<path style="fill:#5A5A5A;" d="M216.977,284.617c-16.139,0-29.268-13.128-29.268-29.268s13.128-29.268,29.268-29.268
	s29.268,13.128,29.268,29.268S233.116,284.617,216.977,284.617z"/>
<path style="fill:#444444;" d="M295.023,284.617c-16.139,0-29.268-13.128-29.268-29.268s13.128-29.268,29.268-29.268
	s29.268,13.128,29.268,29.268S311.163,284.617,295.023,284.617z"/>
<rect x="256" y="89.5" style="fill:#913F02;" width="29.27" height="58.53"/>
<g>
</g>
<g>
</g>
<g>
</g>
<g>
</g>
<g>
</g>
<g>
</g>
<g>
</g>
<g>
</g>
<g>
</g>
<g>
</g>
<g>
</g>
<g>
</g>
<g>
</g>
<g>
</g>
<g>
</g>
</svg>
