<?xml version="1.0" encoding="iso-8859-1"?>
<!-- Generator: Adobe Illustrator 19.0.0, SVG Export Plug-In . SVG Version: 6.00 Build 0)  -->
<svg version="1.1" id="Capa_1" xmlns="http://www.w3.org/2000/svg" xmlns:xlink="http://www.w3.org/1999/xlink" x="0px" y="0px"
	 viewBox="0 0 512 512" style="enable-background:new 0 0 512 512;" xml:space="preserve">
<circle style="fill:#00CC71;" cx="256" cy="256" r="256"/>
<path style="fill:#00AB5E;" d="M509.119,294.496L333.767,119.145L119.185,293.837l27.785,27.795l33.012,72.646l114.801,114.801
	C405.211,492.296,492.458,404.964,509.119,294.496z"/>
<path style="fill:#F6A96C;" d="M365.248,304.996h-19.863v-79.453h19.863c21.91,0,39.727,17.817,39.727,39.727
	S387.158,304.996,365.248,304.996z"/>
<path style="fill:#FFBD86;" d="M166.615,304.996h-19.863c-21.91,0-39.727-17.817-39.727-39.727s17.817-39.727,39.727-39.727h19.863
	V304.996z"/>
<path style="fill:#FED2A4;" d="M365.248,235.475v43.501l-59.59,134.408C290.761,421.129,273.877,425.5,256,425.5
	s-34.761-4.371-49.658-12.116l-59.59-134.408v-43.501H365.248z"/>
<g>
	<path style="fill:#FFBD86;" d="M256,235.475h109.248v43.501l-59.59,134.408C290.761,421.129,273.877,425.5,256,425.5V235.475z"/>
	<path style="fill:#FFBD86;" d="M161.126,286.18l-14.374-7.187v35.934c0,42.351,24.271,80.391,59.59,98.512v-54.101
		C206.342,328.157,189.02,300.127,161.126,286.18z"/>
</g>
<path style="fill:#F6A96C;" d="M365.248,314.928v-35.934l-14.374,7.187c-27.894,13.947-45.216,41.977-45.216,73.159v54.101
	C340.977,395.318,365.248,357.279,365.248,314.928z"/>
<path style="fill:#444444;" d="M256,86.5c-60.186,0-109.248,49.062-109.248,109.248v9.932h218.496v-9.932
	C365.248,135.562,316.186,86.5,256,86.5z"/>
<path style="fill:#FF641A;" d="M298.904,339.757c-8.74,15.295-25.226,24.829-42.904,24.829s-34.164-9.534-42.904-24.829
	l17.082-9.932c5.362,9.138,15.294,14.897,25.822,14.897c10.528,0,20.46-5.76,25.822-14.897L298.904,339.757z"/>
<rect x="285.8" y="265.27" style="fill:#444444;" width="19.863" height="19.863"/>
<rect x="206.34" y="265.27" style="fill:#5A5A5A;" width="19.863" height="19.863"/>
<path style="fill:#FF4B00;" d="M281.822,329.825l17.082,9.932c-8.74,15.295-25.226,24.829-42.904,24.829v-19.863
	C266.528,344.723,276.46,338.963,281.822,329.825z"/>
<path style="fill:#292929;" d="M365.248,195.748v9.932H256V86.5C316.186,86.5,365.248,135.562,365.248,195.748z"/>
<path style="fill:#5A5A5A;" d="M126.889,185.816v59.59h258.223v-59.59H126.889z"/>
<g>
	<rect x="256" y="185.82" style="fill:#444444;" width="129.11" height="59.59"/>
	<rect x="146.75" y="205.68" style="fill:#444444;" width="218.5" height="19.863"/>
</g>
<rect x="256" y="205.68" style="fill:#292929;" width="109.25" height="19.863"/>
<g>
	<rect x="166.62" y="185.82" style="fill:#5A5A5A;" width="19.863" height="59.59"/>
	<rect x="206.34" y="185.82" style="fill:#5A5A5A;" width="19.863" height="59.59"/>
	<rect x="246.07" y="185.82" style="fill:#5A5A5A;" width="19.863" height="59.59"/>
</g>
<g>
	<rect x="285.8" y="185.82" style="fill:#444444;" width="19.863" height="59.59"/>
	<rect x="325.52" y="185.82" style="fill:#444444;" width="19.863" height="59.59"/>
	<rect x="256" y="185.82" style="fill:#444444;" width="9.932" height="59.59"/>
</g>
<g>
</g>
<g>
</g>
<g>
</g>
<g>
</g>
<g>
</g>
<g>
</g>
<g>
</g>
<g>
</g>
<g>
</g>
<g>
</g>
<g>
</g>
<g>
</g>
<g>
</g>
<g>
</g>
<g>
</g>
</svg>
