<?xml version="1.0" encoding="iso-8859-1"?>
<!-- Generator: Adobe Illustrator 19.0.0, SVG Export Plug-In . SVG Version: 6.00 Build 0)  -->
<svg version="1.1" id="Capa_1" xmlns="http://www.w3.org/2000/svg" xmlns:xlink="http://www.w3.org/1999/xlink" x="0px" y="0px"
	 viewBox="0 0 512 512" style="enable-background:new 0 0 512 512;" xml:space="preserve">
<circle style="fill:#00CC71;" cx="256" cy="256" r="256"/>
<path style="fill:#00AB5E;" d="M510.71,281.818L360.452,131.559L233,94.667l-98.75,62.083l-25.627,187.021L276.072,511.22
	C399.53,501.644,498.424,404.496,510.71,281.818z"/>
<path style="fill:#444444;" d="M403.18,225.87l-10.414,19.65l-9.04-19.65c-5.109-65.828-60.72-117.901-127.727-117.901
	S133.383,160.042,128.273,225.87l-9.04,19.65l-10.414-19.65C113.536,149.038,177.989,88.318,256,88.318
	S398.464,149.038,403.18,225.87z"/>
<path style="fill:#292929;" d="M403.18,225.87l-10.414,19.65l-9.04-19.65c-5.109-65.828-60.72-117.901-127.727-117.901v-19.65
	C334.011,88.318,398.464,149.038,403.18,225.87z"/>
<path style="fill:#5A5A5A;" d="M108.623,225.87v117.901h58.951V225.87H108.623z"/>
<path style="fill:#444444;" d="M344.426,225.87v117.901h58.951V225.87H344.426z"/>
<path style="fill:#FED2A4;" d="M364.076,255.345v58.951c0,59.736-48.34,109.386-108.076,109.386s-108.076-49.65-108.076-109.386
	v-58.951c0-59.736,48.34-108.076,108.076-108.076c29.869,0,56.986,12.183,76.44,31.637S364.076,225.476,364.076,255.345z"/>
<path style="fill:#FFBD86;" d="M364.076,255.345v58.951c0,59.736-48.34,109.386-108.076,109.386V147.269
	c29.869,0,56.986,12.183,76.44,31.637S364.076,225.476,364.076,255.345z"/>
<path style="fill:#FF641A;" d="M298.444,338.859c-8.646,15.131-24.955,24.563-42.444,24.563s-33.798-9.432-42.444-24.563
	l16.899-9.825c5.305,9.04,15.13,14.738,25.545,14.738c10.415,0,20.24-5.698,25.545-14.738L298.444,338.859z"/>
<path style="fill:#444444;" d="M285.475,255.345l-11.79,15.72c-5.109-3.93-11.397-5.698-17.686-5.698
	c-6.288,0-12.576,1.768-17.686,5.698l-11.79-15.72c8.646-6.288,19.06-9.628,29.475-9.628
	C266.415,245.717,276.829,249.057,285.475,255.345z"/>
<path style="fill:#B34F03;" d="M226.525,127.618v78.601h58.951v-78.601H226.525z"/>
<path style="fill:#292929;" d="M273.686,271.065c-5.109-3.93-11.397-5.698-17.686-5.698v-19.65c10.415,0,20.829,3.34,29.475,9.628
	L273.686,271.065z"/>
<rect x="256" y="127.62" style="fill:#913F02;" width="29.475" height="78.6"/>
<path style="fill:#FF4B00;" d="M281.545,329.033l16.899,9.825c-8.646,15.131-24.955,24.563-42.444,24.563v-19.65
	C266.415,343.771,276.24,338.073,281.545,329.033z"/>
<path style="fill:#444444;" d="M334.601,324.121h-19.65c-27.086,0-49.126-22.039-49.126-49.126
	c0-16.254,13.222-29.475,29.475-29.475h39.3c16.254,0,29.475,13.222,29.475,29.475v19.65
	C364.076,310.899,350.855,324.121,334.601,324.121z"/>
<path style="fill:#5A5A5A;" d="M197.049,324.121h-19.65c-16.254,0-29.475-13.222-29.475-29.475v-19.65
	c0-16.254,13.222-29.475,29.475-29.475h39.3c16.254,0,29.475,13.222,29.475,29.475C246.175,302.081,224.136,324.121,197.049,324.121
	z"/>
<path style="fill:#EDE9E8;" d="M177.399,265.17c-5.421,0-9.825,4.404-9.825,9.825v19.65c0,5.421,4.404,9.825,9.825,9.825h19.65
	c16.254,0,29.475-13.222,29.475-29.475c0-5.421-4.404-9.825-9.825-9.825H177.399z"/>
<path style="fill:#DFD7D5;" d="M295.301,265.17c-5.421,0-9.825,4.404-9.825,9.825c0,16.254,13.222,29.475,29.475,29.475h19.65
	c5.421,0,9.825-4.404,9.825-9.825v-19.65c0-5.421-4.404-9.825-9.825-9.825H295.301z"/>
<g>
</g>
<g>
</g>
<g>
</g>
<g>
</g>
<g>
</g>
<g>
</g>
<g>
</g>
<g>
</g>
<g>
</g>
<g>
</g>
<g>
</g>
<g>
</g>
<g>
</g>
<g>
</g>
<g>
</g>
</svg>
