<?xml version="1.0" encoding="iso-8859-1"?>
<!-- Generator: Adobe Illustrator 19.0.0, SVG Export Plug-In . SVG Version: 6.00 Build 0)  -->
<svg version="1.1" id="Capa_1" xmlns="http://www.w3.org/2000/svg" xmlns:xlink="http://www.w3.org/1999/xlink" x="0px" y="0px"
	 viewBox="0 0 512 512" style="enable-background:new 0 0 512 512;" xml:space="preserve">
<circle style="fill:#00CC71;" cx="256" cy="256" r="256"/>
<path style="fill:#00AB5E;" d="M511.977,257.838L345.138,91L110.98,400.375L220.086,509.48C231.823,511.128,243.809,512,256,512
	C396.77,512,510.986,398.375,511.977,257.838z"/>
<path style="fill:#5A5A5A;" d="M401.02,255.355v145.02H110.98v-145.02c0-80.051,64.968-145.02,145.02-145.02
	c40.026,0,76.184,16.242,102.48,42.539C384.777,179.172,401.02,215.33,401.02,255.355z"/>
<path style="fill:#444444;" d="M401.02,255.355v145.02H256V110.336c40.026,0,76.184,16.242,102.48,42.539
	C384.777,179.172,401.02,215.33,401.02,255.355z"/>
<path style="fill:#F6A96C;" d="M362.348,303.695h-19.336v-77.344h19.336c21.328,0,38.672,17.344,38.672,38.672
	S383.676,303.695,362.348,303.695z"/>
<path style="fill:#FFBD86;" d="M168.988,303.695h-19.336c-21.328,0-38.672-17.344-38.672-38.672s17.344-38.672,38.672-38.672h19.336
	V303.695z"/>
<path style="fill:#FED2A4;" d="M362.348,226.352v82.757c0,58.782-44.087,108.603-100.16,111.698
	C260.253,421,258.127,421,256.194,421H256c-36.158,0-69.802-19.658-89.525-50.21c-11.022-17.016-16.822-36.931-16.822-57.427
	v-87.012c18.62-0.663,46.277,1.134,66.903-31.711c9.86,13.342,23.589,23.203,39.445,27.844c7.541,2.707,15.662,3.867,23.976,3.867
	L362.348,226.352L362.348,226.352z"/>
<path style="fill:#FFBD86;" d="M362.348,226.352v82.757c0,58.782-44.087,108.603-100.16,111.698
	C260.253,421,258.127,421,256.194,421H256V222.484c7.541,2.707,15.662,3.867,23.976,3.867h82.372V226.352z"/>
<path style="fill:#FF641A;" d="M297.765,337.533c-8.508,14.889-24.556,24.17-41.765,24.17s-33.257-9.281-41.765-24.17l16.629-9.668
	c5.22,8.895,14.888,14.502,25.136,14.502c10.249,0,19.917-5.607,25.136-14.502L297.765,337.533z"/>
<rect x="285" y="265.02" style="fill:#444444;" width="19.336" height="19.336"/>
<rect x="207.66" y="265.02" style="fill:#5A5A5A;" width="19.336" height="19.336"/>
<path style="fill:#FF4B00;" d="M281.136,327.865l16.629,9.668c-8.508,14.889-24.556,24.17-41.765,24.17v-19.336
	C266.249,342.367,275.917,336.76,281.136,327.865z"/>
<path style="fill:#EDE9E8;" d="M166.862,91l23.203,96.68h131.87L345.138,91H166.862z"/>
<polygon style="fill:#DFD7D5;" points="345.138,91 321.935,187.68 256,187.68 256,91 "/>
<polygon style="fill:#FF3636;" points="275.336,129.672 275.336,149.008 265.668,149.008 265.668,158.676 246.332,158.676 
	246.332,149.008 236.664,149.008 236.664,129.672 246.332,129.672 246.332,120.004 265.668,120.004 265.668,129.672 "/>
<polygon style="fill:#F40000;" points="275.336,129.672 275.336,149.008 265.668,149.008 265.668,158.676 256,158.676 256,120.004 
	265.668,120.004 265.668,129.672 "/>
<g>
</g>
<g>
</g>
<g>
</g>
<g>
</g>
<g>
</g>
<g>
</g>
<g>
</g>
<g>
</g>
<g>
</g>
<g>
</g>
<g>
</g>
<g>
</g>
<g>
</g>
<g>
</g>
<g>
</g>
</svg>
