<?xml version="1.0" encoding="iso-8859-1"?>
<!-- Generator: Adobe Illustrator 19.0.0, SVG Export Plug-In . SVG Version: 6.00 Build 0)  -->
<svg version="1.1" id="Capa_1" xmlns="http://www.w3.org/2000/svg" xmlns:xlink="http://www.w3.org/1999/xlink" x="0px" y="0px"
	 viewBox="0 0 512 512" style="enable-background:new 0 0 512 512;" xml:space="preserve">
<circle style="fill:#00CC71;" cx="256" cy="256" r="256"/>
<path style="fill:#00AB5E;" d="M512,256c0-8.571-0.43-17.041-1.253-25.396L369.477,89.333L96.481,249.95l52.097,52.104
	l32.374,89.292l117.183,117.183C419.469,488.433,512,383.031,512,256z"/>
<path style="fill:#5A5A5A;" d="M369.477,89.333l-7.031,14.062c-10.742,21.29-30.079,36.523-52.735,42.188l25.39,50.976H176.899
	l53.515-107.226C230.414,89.333,369.477,89.333,369.477,89.333z"/>
<g>
	<path style="fill:#444444;" d="M335.101,196.56H256V89.333h113.477l-7.031,14.062c-10.742,21.29-30.079,36.523-52.735,42.188
		L335.101,196.56z"/>
	<path style="fill:#444444;" d="M422.667,235.818c0,26.953-75.065,48.828-166.667,48.828S89.333,262.771,89.333,235.818
		S164.398,186.99,256,186.99S422.667,208.864,422.667,235.818z"/>
</g>
<path style="fill:#292929;" d="M422.667,235.818c0,26.953-75.065,48.828-166.667,48.828V186.99
	C347.602,186.99,422.667,208.864,422.667,235.818z"/>
<path style="fill:#FED2A4;" d="M355.609,234.841c-28.71-5.86-63.086-8.789-99.609-8.789s-70.899,2.929-99.609,8.789l-7.813,1.562
	v77.54c0,59.179,48.242,108.724,107.422,108.724s107.422-49.545,107.422-108.724v-77.54L355.609,234.841z"/>
<path style="fill:#FFBD86;" d="M355.609,234.841l7.813,1.562v77.54c0,59.179-48.242,108.724-107.422,108.724V226.052
	C292.523,226.052,326.899,228.981,355.609,234.841z"/>
<path style="fill:#FF641A;" d="M298.187,338.357c-8.594,15.039-24.804,24.414-42.187,24.414s-33.593-9.375-42.187-24.414
	l16.797-9.766c5.273,8.985,15.038,14.648,25.39,14.648c10.352,0,20.118-5.664,25.39-14.648L298.187,338.357z"/>
<rect x="285.3" y="265.12" style="fill:#444444;" width="19.531" height="19.531"/>
<rect x="207.17" y="265.12" style="fill:#5A5A5A;" width="19.531" height="19.531"/>
<path style="fill:#FF4B00;" d="M281.39,328.591l16.797,9.766c-8.594,15.039-24.804,24.414-42.187,24.414V343.24
	C266.352,343.24,276.118,337.576,281.39,328.591z"/>
<g>
</g>
<g>
</g>
<g>
</g>
<g>
</g>
<g>
</g>
<g>
</g>
<g>
</g>
<g>
</g>
<g>
</g>
<g>
</g>
<g>
</g>
<g>
</g>
<g>
</g>
<g>
</g>
<g>
</g>
</svg>
