<?xml version="1.0" encoding="iso-8859-1"?>
<!-- Generator: Adobe Illustrator 19.0.0, SVG Export Plug-In . SVG Version: 6.00 Build 0)  -->
<svg version="1.1" id="Capa_1" xmlns="http://www.w3.org/2000/svg" xmlns:xlink="http://www.w3.org/1999/xlink" x="0px" y="0px"
	 viewBox="0 0 512 512" style="enable-background:new 0 0 512 512;" xml:space="preserve">
<circle style="fill:#FFD400;" cx="256" cy="256" r="256"/>
<path style="fill:#BF9F00;" d="M510.531,283.459L359.955,132.883L109.662,422.5l81.099,81.1c20.83,5.474,42.691,8.4,65.239,8.4
	C388.107,512,496.83,411.93,510.531,283.459z"/>
<path style="fill:#5A5A5A;" d="M256,89.5c-80.779,0-146.338,65.559-146.338,146.338V422.5h292.676V235.838
	C402.338,155.059,336.779,89.5,256,89.5z"/>
<path style="fill:#444444;" d="M402.338,235.838V422.5H256v-333C336.779,89.5,402.338,155.059,402.338,235.838z"/>
<path style="fill:#292929;" d="M285.268,322.665l39.023,99.835h9.756c16.195,0,29.268-14.374,29.268-30.568v-78.047L285.268,322.665
	z"/>
<path style="fill:#444444;" d="M148.686,313.885v78.047c0,16.194,13.073,30.568,29.268,30.568h9.756l39.023-99.835L148.686,313.885z
	"/>
<path style="fill:#EDE9E8;" d="M363.314,255.35v58.535c0,23.608-16.78,43.315-39.023,47.804V422.5h-39.023l-9.756-19.512
	l-9.756,19.512h-19.512l-9.756-19.512l-9.756,19.512h-39.023v-60.811c-22.244-4.489-39.023-24.196-39.023-47.804V255.35
	c0-59.316,47.999-107.314,107.314-107.314S363.314,196.033,363.314,255.35z"/>
<path style="fill:#DFD7D5;" d="M363.314,255.35v58.535c0,23.608-16.78,43.315-39.023,47.804V422.5h-39.023l-9.756-19.512
	l-9.756,19.512H256V148.035C315.315,148.035,363.314,196.033,363.314,255.35z"/>
<path style="fill:#5A5A5A;" d="M216.977,304.129c-16.139,0-29.268-13.128-29.268-29.268s13.128-29.268,29.268-29.268
	s29.268,13.128,29.268,29.268S233.116,304.129,216.977,304.129z"/>
<path style="fill:#444444;" d="M295.023,304.129c-16.139,0-29.268-13.128-29.268-29.268s13.128-29.268,29.268-29.268
	s29.268,13.128,29.268,29.268S311.163,304.129,295.023,304.129z"/>
<g>
	<rect x="246.24" y="304.13" style="fill:#5A5A5A;" width="19.512" height="19.512"/>
	<rect x="226.73" y="362.66" style="fill:#5A5A5A;" width="19.512" height="59.836"/>
</g>
<g>
	<rect x="265.76" y="362.66" style="fill:#444444;" width="19.512" height="59.836"/>
	<rect x="256" y="304.13" style="fill:#444444;" width="9.756" height="19.512"/>
</g>
<g>
</g>
<g>
</g>
<g>
</g>
<g>
</g>
<g>
</g>
<g>
</g>
<g>
</g>
<g>
</g>
<g>
</g>
<g>
</g>
<g>
</g>
<g>
</g>
<g>
</g>
<g>
</g>
<g>
</g>
</svg>
