<?xml version="1.0" encoding="iso-8859-1"?>
<!-- Generator: Adobe Illustrator 19.0.0, SVG Export Plug-In . SVG Version: 6.00 Build 0)  -->
<svg version="1.1" id="Capa_1" xmlns="http://www.w3.org/2000/svg" xmlns:xlink="http://www.w3.org/1999/xlink" x="0px" y="0px"
	 viewBox="0 0 512 512" style="enable-background:new 0 0 512 512;" xml:space="preserve">
<circle style="fill:#00CC71;" cx="256" cy="256" r="256"/>
<path style="fill:#00AB5E;" d="M512,256c0-7.804-0.369-15.521-1.053-23.146l-86.391-86.391l-310.739,72.636l26.721,26.728
	l-20.589,67.315l31.827,31.835l27.887,46.557l117.204,117.204C418.825,489.17,512,383.474,512,256z"/>
<path style="fill:#F6A96C;" d="M364.64,324.237h-19.753v-79.011h19.753c21.788,0,39.505,17.718,39.505,39.505
	C404.145,306.519,386.427,324.237,364.64,324.237z"/>
<path style="fill:#FFBD86;" d="M167.113,324.237H147.36c-21.788,0-39.505-17.718-39.505-39.505
	c0-21.788,17.718-39.505,39.505-39.505h19.753V324.237z"/>
<path style="fill:#FED2A4;" d="M364.64,309.027l-7.704,8.099l6.123,14.617C354.763,383.297,309.924,423,256,423
	c-59.851,0-108.64-48.79-108.64-108.64v-88.887l24.691-19.753H351.01l13.629,19.753v83.554H364.64z"/>
<path style="fill:#FFBD86;" d="M364.64,309.027l-7.704,8.099l6.123,14.617C354.763,383.297,309.924,423,256,423V205.721h95.01
	l13.629,19.753v83.553H364.64z"/>
<path style="fill:#292929;" d="M364.64,309.075l-47.221-31.481l-10.957,16.435l56.642,37.761c0.926-5.69,1.536-11.485,1.536-17.429
	V309.075z"/>
<rect x="285.63" y="264.98" style="fill:#444444;" width="19.753" height="19.753"/>
<rect x="206.62" y="264.98" style="fill:#5A5A5A;" width="19.753" height="19.753"/>
<path style="fill:#B34F03;" d="M305.382,343.989v19.753h-2.963c-17.185,0-33.776-6.321-46.418-17.778
	c-12.642,11.457-29.234,17.778-46.418,17.778h-2.963v-19.753h2.963c14.221,0,27.653-5.926,37.135-16.395l2.962-3.358h12.642
	l2.962,3.358c9.482,10.47,22.914,16.395,37.135,16.395H305.382z"/>
<path style="fill:#913F02;" d="M302.418,343.989h2.963v19.753h-2.963c-17.185,0-33.776-6.321-46.418-17.778v-21.727h6.321
	l2.962,3.358C274.765,338.064,288.197,343.989,302.418,343.989z"/>
<polygon style="fill:#444444;" points="284.642,255.694 273.58,272.089 256,260.435 230.716,243.645 241.779,227.053 256,236.535 
	"/>
<polygon style="fill:#292929;" points="284.642,255.694 273.58,272.089 256,260.435 256,236.535 "/>
<path style="fill:#444444;" d="M295.505,304.484c-16.338,0-29.629-13.291-29.629-29.629c0-16.338,13.291-29.629,29.629-29.629
	s29.629,13.291,29.629,29.629S311.844,304.484,295.505,304.484z"/>
<path style="fill:#5A5A5A;" d="M414.68,146.463c-40.295,0-81.25-15.21-114.236-43.061C287.999,92.932,272,87.599,256,87.599
	s-31.999,5.334-44.444,15.803c-32.987,27.851-73.283,43.061-113.578,43.061H87.444v9.876c0,48.986,40.559,88.887,89.545,88.887
	H335.01c48.986,0,89.545-39.901,89.545-88.887v-9.876L414.68,146.463L414.68,146.463z"/>
<path style="fill:#444444;" d="M424.556,146.463v9.876c0,48.986-40.559,88.887-89.545,88.887H256V87.599
	c16,0,31.999,5.334,44.444,15.803c32.987,27.851,73.941,43.061,114.236,43.061H424.556z"/>
<polygon style="fill:#EDE9E8;" points="270.025,166.215 290.963,187.153 276.938,201.177 256,180.239 235.062,201.177 
	221.037,187.153 241.975,166.215 221.037,145.277 235.062,131.253 256,152.19 276.938,131.253 290.963,145.277 "/>
<polygon style="fill:#DFD7D5;" points="270.025,166.215 290.963,187.153 276.938,201.177 256,180.239 256,152.19 276.938,131.253 
	290.963,145.277 "/>
<g>
</g>
<g>
</g>
<g>
</g>
<g>
</g>
<g>
</g>
<g>
</g>
<g>
</g>
<g>
</g>
<g>
</g>
<g>
</g>
<g>
</g>
<g>
</g>
<g>
</g>
<g>
</g>
<g>
</g>
</svg>
