<?xml version="1.0" encoding="iso-8859-1"?>
<!-- Generator: Adobe Illustrator 19.0.0, SVG Export Plug-In . SVG Version: 6.00 Build 0)  -->
<svg version="1.1" id="Capa_1" xmlns="http://www.w3.org/2000/svg" xmlns:xlink="http://www.w3.org/1999/xlink" x="0px" y="0px"
	 viewBox="0 0 512 512" style="enable-background:new 0 0 512 512;" xml:space="preserve">
<circle style="fill:#00CC71;" cx="256" cy="256" r="256"/>
<path style="fill:#00AB5E;" d="M506.729,307.916L345.614,146.801l-41.064-20.394L264.367,86L126.508,302.351l20.169,20.057
	l32.681,71.701l115.025,115.025C400.487,493.181,485.266,412.113,506.729,307.916z"/>
<path style="fill:#DFD7D5;" d="M365.57,195.57v119.531C365.57,375.664,316.562,426,256,426s-109.57-50.336-109.57-110.898V195.57
	c0-38.449,31.277-69.727,69.727-69.727h79.688C334.293,125.844,365.57,157.121,365.57,195.57z"/>
<path style="fill:#C4B3AF;" d="M365.57,195.57v119.531C365.57,375.664,316.562,426,256,426V125.844h39.844
	C334.293,125.844,365.57,157.121,365.57,195.57z"/>
<polygon style="fill:#EDE9E8;" points="385.492,248.164 385.492,302.351 345.648,315.699 335.688,295.18 325.727,322.273 
	305.805,328.848 295.844,275.258 285.883,335.62 265.961,342.195 256,265.297 246.039,342.195 226.117,335.62 216.156,275.258 
	206.195,328.848 186.273,322.273 176.313,295.18 166.352,315.699 126.508,302.351 126.508,248.164 256,204.933 "/>
<polygon style="fill:#DFD7D5;" points="385.492,248.164 385.492,302.351 345.648,315.699 335.688,295.18 325.727,322.273 
	305.805,328.848 295.844,275.258 285.883,335.62 265.961,342.195 256,265.297 256,204.933 "/>
<path style="fill:#FF3636;" d="M264.367,86h-16.734l-22.512,50.004L256,197.961l30.879-61.957L264.367,86z"/>
<polygon style="fill:#5A5A5A;" points="265.961,245.375 265.961,342.195 256,345.581 246.039,342.195 246.039,245.375 "/>
<g>
	<polygon style="fill:#444444;" points="265.961,245.375 265.961,342.195 256,345.581 256,245.375 	"/>
	<polygon style="fill:#444444;" points="285.883,255.336 285.883,335.56 305.805,328.919 305.805,255.336 	"/>
	<polygon style="fill:#444444;" points="325.727,275.258 325.727,322.279 345.648,315.639 345.648,275.258 	"/>
</g>
<g>
	<polygon style="fill:#5A5A5A;" points="206.195,255.336 206.195,328.919 226.117,335.56 226.117,255.336 	"/>
	<polygon style="fill:#5A5A5A;" points="166.352,275.258 166.352,315.639 186.273,322.279 186.273,275.258 	"/>
</g>
<polygon style="fill:#F40000;" points="286.879,136.004 256,197.961 256,86 264.367,86 "/>
<g>
</g>
<g>
</g>
<g>
</g>
<g>
</g>
<g>
</g>
<g>
</g>
<g>
</g>
<g>
</g>
<g>
</g>
<g>
</g>
<g>
</g>
<g>
</g>
<g>
</g>
<g>
</g>
<g>
</g>
</svg>
