<?xml version="1.0" encoding="iso-8859-1"?>
<!-- Generator: Adobe Illustrator 19.0.0, SVG Export Plug-In . SVG Version: 6.00 Build 0)  -->
<svg version="1.1" id="Capa_1" xmlns="http://www.w3.org/2000/svg" xmlns:xlink="http://www.w3.org/1999/xlink" x="0px" y="0px"
	 viewBox="0 0 512 512" style="enable-background:new 0 0 512 512;" xml:space="preserve">
<circle style="fill:#FFD400;" cx="256" cy="256" r="256"/>
<path style="fill:#BF9F00;" d="M511.7,268.299L367.907,124.506L245.5,86l-119.885,62.048l-19.029,216.858L253.65,511.97
	c0.784,0.007,1.564,0.03,2.35,0.03C393.261,512,505.281,403.971,511.7,268.299z"/>
<path style="fill:#444444;" d="M405.414,215.492v59.766h-19.922v-59.766c0-60.364-49.206-109.57-109.57-109.57h-39.844
	c-60.364,0-109.57,49.206-109.57,109.57v9.961l-9.961,19.922l-9.961-19.922v-9.961C106.586,144.172,164.757,86,236.078,86h39.844
	C347.243,86,405.414,144.172,405.414,215.492z"/>
<path style="fill:#292929;" d="M405.414,215.492v59.766h-19.922v-59.766c0-60.364-49.206-109.57-109.57-109.57H256V86h19.922
	C347.243,86,405.414,144.172,405.414,215.492z"/>
<path style="fill:#5A5A5A;" d="M166.352,325.063h-59.766v-99.609h59.766V325.063z"/>
<path style="fill:#F6A96C;" d="M365.57,315.102h-19.922v-79.688h19.922c21.974,0,39.844,17.869,39.844,39.844
	S387.545,315.102,365.57,315.102z"/>
<path style="fill:#FED2A4;" d="M365.57,245.375v69.727C365.57,375.664,316.562,426,256,426s-109.57-50.336-109.57-110.898v-69.727
	L256,198.757l35.66-15.141L365.57,245.375z"/>
<path style="fill:#FFBD86;" d="M365.57,245.375v69.727C365.57,375.664,316.562,426,256,426V198.757l35.66-15.141L365.57,245.375z"/>
<rect x="285.88" y="265.3" style="fill:#444444;" width="19.922" height="19.922"/>
<rect x="206.19" y="265.3" style="fill:#5A5A5A;" width="19.922" height="19.922"/>
<polygon style="fill:#444444;" points="126.508,325.063 106.586,325.063 106.586,364.906 236.078,364.906 236.078,344.984 
	126.508,344.984 "/>
<path style="fill:#B34F03;" d="M365.57,215.492v29.883h-9.961c-28.488,0-52.992-17.332-63.95-41.837
	c-8.566,13.746-20.918,25.102-35.66,32.273c-11.953,6.176-25.501,9.563-39.844,9.563H146.43v-29.883
	c0-38.449,31.277-69.727,69.727-69.727h79.688C334.293,145.766,365.57,177.043,365.57,215.492z"/>
<path style="fill:#913F02;" d="M365.57,215.492v29.883h-9.961c-28.488,0-52.992-17.332-63.95-41.837
	c-8.566,13.746-20.918,25.102-35.66,32.273v-90.046h39.844C334.293,145.766,365.57,177.043,365.57,215.492z"/>
<path style="fill:#5A5A5A;" d="M256,325.063c-16.535,0-29.883,13.347-29.883,29.883c0,16.534,13.347,29.883,29.883,29.883
	s29.883-13.349,29.883-29.883C285.883,338.41,272.535,325.063,256,325.063z"/>
<path style="fill:#444444;" d="M285.883,354.945c0,16.534-13.347,29.883-29.883,29.883v-59.766
	C272.535,325.063,285.883,338.41,285.883,354.945z"/>
<g>
</g>
<g>
</g>
<g>
</g>
<g>
</g>
<g>
</g>
<g>
</g>
<g>
</g>
<g>
</g>
<g>
</g>
<g>
</g>
<g>
</g>
<g>
</g>
<g>
</g>
<g>
</g>
<g>
</g>
</svg>
