<?xml version="1.0" encoding="iso-8859-1"?>
<!-- Generator: Adobe Illustrator 19.0.0, SVG Export Plug-In . SVG Version: 6.00 Build 0)  -->
<svg version="1.1" id="Capa_1" xmlns="http://www.w3.org/2000/svg" xmlns:xlink="http://www.w3.org/1999/xlink" x="0px" y="0px"
	 viewBox="0 0 512 512" style="enable-background:new 0 0 512 512;" xml:space="preserve">
<circle style="fill:#00CC71;" cx="256" cy="256" r="256"/>
<path style="fill:#00AB5E;" d="M512,256c0-0.531-0.017-1.059-0.02-1.589L366.215,108.646L117.969,314.207l32.198,32.207
	l28.666,48.429l114.446,114.446C416.992,491.238,512,384.721,512,256z"/>
<path style="fill:#F40000;" d="M366.215,108.646v60.117l-3.006,0.401L256,185.195l-106.809-16.031l-3.406-0.602v-59.917l6.011-2.806
	C153.601,105.039,199.089,85,256,85s102.399,20.039,104.203,20.84L366.215,108.646z"/>
<path style="fill:#C10000;" d="M366.215,108.646v60.117l-3.006,0.401L256,185.195V85c56.911,0,102.399,20.039,104.203,20.84
	L366.215,108.646z"/>
<path style="fill:#FFD400;" d="M366.215,168.763v60.117h-220.43v-60.318c30.66-12.625,65.729-23.445,110.215-23.445
	C303.091,145.117,337.158,156.339,366.215,168.763z"/>
<path style="fill:#FF9F00;" d="M366.215,168.763v60.117H256v-83.763C303.091,145.117,337.158,156.339,366.215,168.763z"/>
<path style="fill:#F6A96C;" d="M366.215,325.469h-20.039v-80.156h20.039c22.104,0,40.078,17.974,40.078,40.078
	S388.319,325.469,366.215,325.469z"/>
<path style="fill:#FFBD86;" d="M165.824,325.469h-20.039c-22.104,0-40.078-17.974-40.078-40.078s17.974-40.078,40.078-40.078h20.039
	V325.469z"/>
<path style="fill:#FED2A4;" d="M366.215,265.352v50.098C366.215,376.368,316.918,427,256,427s-110.215-50.632-110.215-111.551
	v-50.098l88.773-67.331L256,209.042L366.215,265.352z"/>
<path style="fill:#FFBD86;" d="M366.215,265.352v50.098C366.215,376.368,316.918,427,256,427V209.042L366.215,265.352z"/>
<path style="fill:#FF641A;" d="M299.284,340.498c-8.817,15.43-25.449,25.049-43.284,25.049s-34.467-9.618-43.284-25.049
	l17.233-10.02c5.41,9.218,15.429,15.029,26.051,15.029c10.621,0,20.641-5.811,26.051-15.029L299.284,340.498z"/>
<rect x="286.06" y="265.35" style="fill:#444444;" width="20.04" height="20.04"/>
<rect x="205.9" y="265.35" style="fill:#5A5A5A;" width="20.04" height="20.04"/>
<path style="fill:#FF4B00;" d="M282.051,330.479l17.233,10.02c-8.817,15.43-25.449,25.049-43.284,25.049v-20.039
	C266.621,345.508,276.641,339.697,282.051,330.479z"/>
<path style="fill:#B34F03;" d="M366.215,208.841v56.51h-10.02c-37.272,0-72.341-12.825-100.195-35.871
	c-7.816-6.411-15.029-13.626-21.442-21.441c-6.212,32.863-34.667,57.311-68.734,57.311h-20.039v-56.51
	c29.657-12.424,63.925-23.646,110.215-23.646C303.091,185.195,337.158,196.417,366.215,208.841z"/>
<path style="fill:#913F02;" d="M366.215,208.841v56.51h-10.02c-37.272,0-72.341-12.825-100.195-35.871v-44.286
	C303.091,185.195,337.158,196.417,366.215,208.841z"/>
<g>
</g>
<g>
</g>
<g>
</g>
<g>
</g>
<g>
</g>
<g>
</g>
<g>
</g>
<g>
</g>
<g>
</g>
<g>
</g>
<g>
</g>
<g>
</g>
<g>
</g>
<g>
</g>
<g>
</g>
</svg>
