<?xml version="1.0" encoding="iso-8859-1"?>
<!-- Generator: Adobe Illustrator 19.0.0, SVG Export Plug-In . SVG Version: 6.00 Build 0)  -->
<svg version="1.1" id="Capa_1" xmlns="http://www.w3.org/2000/svg" xmlns:xlink="http://www.w3.org/1999/xlink" x="0px" y="0px"
	 viewBox="0 0 512 512" style="enable-background:new 0 0 512 512;" xml:space="preserve">
<circle style="fill:#00ABE9;" cx="256" cy="256" r="256"/>
<path style="fill:#136EF1;" d="M509.236,293.663L344.562,128.989l-39.087-19.974l-20-20.698L128.273,225.87l4,3.258l-11.616,64.309
	l27.474,27.497l32.283,71.304l116.494,116.494C406.603,491.112,492.993,403.812,509.236,293.663z"/>
<path style="fill:#FDBF00;" d="M364.076,176.744v29.475h-39.301l-9.825-19.65l-9.825,19.65h-98.251l-10.415-19.65l-9.235,19.65
	h-39.3v-29.475c0-27.314,16.113-50.895,39.3-61.899c3.144-1.374,6.288,16.9,9.432,15.917c3.341-0.982,6.682-21.221,10.219-21.811
	c3.144-0.392,6.485-0.982,9.825-0.982h78.601c3.34,0,6.682,0.59,9.825,0.982c2.358,0.393,4.716,20.437,7.074,21.026
	c4.324,1.179,8.646-17.096,12.576-15.131C347.963,125.849,364.076,149.43,364.076,176.744z"/>
<path style="fill:#FF9F00;" d="M364.076,176.744v29.475h-39.301l-9.825-19.65l-9.825,19.65H256v-98.251h39.301
	c3.34,0,6.682,0.59,9.825,0.982c2.358,0.393,4.716,20.437,7.074,21.026c4.324,1.179,8.646-17.096,12.576-15.131
	C347.963,125.849,364.076,149.43,364.076,176.744z"/>
<path style="fill:#FDBF00;" d="M305.126,108.959v97.261h19.65v-91.38C318.659,111.92,312.078,109.963,305.126,108.959z"/>
<path style="fill:#FFD400;" d="M187.224,114.84v91.379h19.65v-97.261C199.922,109.963,193.341,111.92,187.224,114.84z"/>
<path style="fill:#F6A96C;" d="M364.076,304.471h-19.65V225.87h19.65c21.675,0,39.301,17.626,39.301,39.3
	C403.377,286.845,385.751,304.471,364.076,304.471z"/>
<path style="fill:#FFBD86;" d="M167.574,304.471h-19.65c-21.675,0-39.3-17.626-39.3-39.301s17.626-39.3,39.3-39.3h19.65V304.471z"/>
<path style="fill:#FED2A4;" d="M364.076,206.219v108.076c0,59.736-48.34,109.386-108.076,109.386s-108.076-49.65-108.076-109.386
	V206.219H364.076z"/>
<path style="fill:#FFBD86;" d="M364.076,206.219v108.076c0,59.736-48.34,109.386-108.076,109.386V206.219H364.076z"/>
<path style="fill:#FFD400;" d="M226.525,88.318v78.601h58.951V88.318H226.525z"/>
<path style="fill:#FF641A;" d="M298.444,338.859c-8.646,15.131-24.955,24.563-42.444,24.563s-33.798-9.432-42.444-24.563
	l16.899-9.825c5.305,9.04,15.13,14.738,25.545,14.738c10.415,0,20.24-5.698,25.545-14.738L298.444,338.859z"/>
<rect x="285.48" y="265.17" style="fill:#444444;" width="19.65" height="19.65"/>
<rect x="206.87" y="265.17" style="fill:#5A5A5A;" width="19.65" height="19.65"/>
<path style="fill:#FF4B00;" d="M281.545,329.033l16.899,9.825c-8.646,15.131-24.955,24.563-42.444,24.563v-19.65
	C266.415,343.771,276.24,338.073,281.545,329.033z"/>
<rect x="256" y="88.32" style="fill:#FDBF00;" width="29.475" height="78.6"/>
<rect x="128.27" y="186.57" style="fill:#FF9F00;" width="255.45" height="39.3"/>
<rect x="256" y="186.57" style="fill:#FF7816;" width="127.73" height="39.3"/>
<g>
</g>
<g>
</g>
<g>
</g>
<g>
</g>
<g>
</g>
<g>
</g>
<g>
</g>
<g>
</g>
<g>
</g>
<g>
</g>
<g>
</g>
<g>
</g>
<g>
</g>
<g>
</g>
<g>
</g>
</svg>
