<?xml version="1.0" encoding="iso-8859-1"?>
<!-- Generator: Adobe Illustrator 19.0.0, SVG Export Plug-In . SVG Version: 6.00 Build 0)  -->
<svg version="1.1" id="Capa_1" xmlns="http://www.w3.org/2000/svg" xmlns:xlink="http://www.w3.org/1999/xlink" x="0px" y="0px"
	 viewBox="0 0 512 512" style="enable-background:new 0 0 512 512;" xml:space="preserve">
<circle style="fill:#00ABE9;" cx="256" cy="256" r="256"/>
<path style="fill:#136EF1;" d="M507.407,304.419L337.833,134.845l-52.068-25.364l-20-20.148l-68.432,87.333l-87.818,49.386
	l11.927,11l0.038,56.161l27.306,27.321l32.165,70.812l117.183,117.183C403.655,491.052,487.374,409.054,507.407,304.419z"/>
<rect x="246.23" y="89.33" style="fill:#B34F03;" width="19.531" height="39.06"/>
<rect x="256" y="89.33" style="fill:#913F02;" width="9.766" height="39.06"/>
<path style="fill:#FF7816;" d="M275.531,108.865H256l48.281,97.656h59.141v-9.766C363.422,148.289,323.997,108.865,275.531,108.865z
	"/>
<path style="fill:#FF9F00;" d="M236.469,108.865c-48.466,0-87.891,39.425-87.891,87.891v9.766h59.141L256,108.865H236.469z"/>
<path style="fill:#FDBF00;" d="M304.828,196.755c0,3.32-0.391,6.444-0.587,9.766h-96.483c-0.196-3.321-0.587-6.446-0.587-9.766
	c0-48.633,21.875-87.891,48.828-87.891S304.828,148.123,304.828,196.755z"/>
<path style="fill:#FF9F00;" d="M304.828,196.755c0,3.32-0.391,6.444-0.587,9.766H256v-97.656
	C282.953,108.865,304.828,148.123,304.828,196.755z"/>
<path style="fill:#F6A96C;" d="M363.422,304.177h-19.531v-78.125h19.531c21.544,0,39.063,17.519,39.063,39.063
	C402.484,286.658,384.965,304.177,363.422,304.177z"/>
<path style="fill:#FFBD86;" d="M168.109,304.177h-19.531c-21.544,0-39.063-17.519-39.063-39.063
	c0-21.544,17.519-39.063,39.063-39.063h19.531V304.177z"/>
<path style="fill:#FED2A4;" d="M363.422,226.052v87.891c0,59.179-48.242,108.724-107.422,108.724s-107.422-49.545-107.422-108.724
	v-87.891l24.414-19.531h176.953L363.422,226.052z"/>
<path style="fill:#FFBD86;" d="M363.422,226.052v87.891c0,59.179-48.242,108.724-107.422,108.724V206.521h93.945L363.422,226.052z"
	/>
<g>
	<path id="SVGCleanerId_0" style="fill:#FF641A;" d="M298.187,338.357c-8.594,15.039-24.804,24.414-42.187,24.414
		s-33.593-9.375-42.187-24.414l16.797-9.766c5.273,8.985,15.038,14.648,25.39,14.648c10.352,0,20.118-5.664,25.39-14.648
		L298.187,338.357z"/>
</g>
<rect x="285.3" y="265.12" style="fill:#444444;" width="19.531" height="19.531"/>
<g>
	<rect id="SVGCleanerId_1" x="207.17" y="265.12" style="fill:#5A5A5A;" width="19.531" height="19.531"/>
</g>
<path style="fill:#FF4B00;" d="M281.39,328.591l16.797,9.766c-8.594,15.039-24.804,24.414-42.187,24.414V343.24
	C266.352,343.24,276.118,337.576,281.39,328.591z"/>
<g>
	<path id="SVGCleanerId_0_1_" style="fill:#FF641A;" d="M298.187,338.357c-8.594,15.039-24.804,24.414-42.187,24.414
		s-33.593-9.375-42.187-24.414l16.797-9.766c5.273,8.985,15.038,14.648,25.39,14.648c10.352,0,20.118-5.664,25.39-14.648
		L298.187,338.357z"/>
</g>
<rect id="SVGCleanerId_2" x="285.3" y="265.12" style="fill:#444444;" width="19.531" height="19.531"/>
<g>
	<rect id="SVGCleanerId_1_1_" x="207.17" y="265.12" style="fill:#5A5A5A;" width="19.531" height="19.531"/>
</g>
<path id="SVGCleanerId_3" style="fill:#FF4B00;" d="M281.39,328.591l16.797,9.766c-8.594,15.039-24.804,24.414-42.187,24.414V343.24
	C266.352,343.24,276.118,337.576,281.39,328.591z"/>
<g>
	<path id="SVGCleanerId_0_2_" style="fill:#FF641A;" d="M298.187,338.357c-8.594,15.039-24.804,24.414-42.187,24.414
		s-33.593-9.375-42.187-24.414l16.797-9.766c5.273,8.985,15.038,14.648,25.39,14.648c10.352,0,20.118-5.664,25.39-14.648
		L298.187,338.357z"/>
</g>
<g>
	<rect id="SVGCleanerId_2_1_" x="285.3" y="265.12" style="fill:#444444;" width="19.531" height="19.531"/>
</g>
<g>
	<rect id="SVGCleanerId_1_2_" x="207.17" y="265.12" style="fill:#5A5A5A;" width="19.531" height="19.531"/>
</g>
<g>
	<path id="SVGCleanerId_3_1_" style="fill:#FF4B00;" d="M281.39,328.591l16.797,9.766c-8.594,15.039-24.804,24.414-42.187,24.414
		V343.24C266.352,343.24,276.118,337.576,281.39,328.591z"/>
</g>
<path style="fill:#B34F03;" d="M402.484,226.052H109.516c0-10.742,4.296-20.508,11.524-27.54
	c7.031-7.226,16.797-11.523,27.539-11.523h214.844C384.906,186.99,402.484,204.567,402.484,226.052z"/>
<path style="fill:#913F02;" d="M402.484,226.052H256V186.99h107.422C384.906,186.99,402.484,204.567,402.484,226.052z"/>
<g>
</g>
<g>
</g>
<g>
</g>
<g>
</g>
<g>
</g>
<g>
</g>
<g>
</g>
<g>
</g>
<g>
</g>
<g>
</g>
<g>
</g>
<g>
</g>
<g>
</g>
<g>
</g>
<g>
</g>
</svg>
