<?xml version="1.0" encoding="iso-8859-1"?>
<!-- Generator: Adobe Illustrator 19.0.0, SVG Export Plug-In . SVG Version: 6.00 Build 0)  -->
<svg version="1.1" id="Capa_1" xmlns="http://www.w3.org/2000/svg" xmlns:xlink="http://www.w3.org/1999/xlink" x="0px" y="0px"
	 viewBox="0 0 512 512" style="enable-background:new 0 0 512 512;" xml:space="preserve">
<circle style="fill:#FF3636;" cx="256" cy="256" r="256"/>
<path style="fill:#C10000;" d="M511.987,257.034L422.5,167.547l-38,19.191l-19.26-19.257l-53-53L110.055,225.547l11.518,11.53
	l0.042,56.098l27.279,27.292l32.134,70.743l117.287,117.288C419.23,488.384,511.485,383.539,511.987,257.034z"/>
<path style="fill:#FF9F00;" d="M342.046,175.741H169.954C177.953,125.792,214.245,89.5,256,89.5S334.047,125.792,342.046,175.741z"
	/>
<path style="fill:#FF7816;" d="M342.046,175.741H256V89.5C297.755,89.5,334.047,125.792,342.046,175.741z"/>
<path style="fill:#F6A96C;" d="M363.314,304.129h-19.512v-78.047h19.512c21.522,0,39.023,17.501,39.023,39.023
	S384.836,304.129,363.314,304.129z"/>
<path style="fill:#FFBD86;" d="M168.197,304.129h-19.512c-21.522,0-39.023-17.501-39.023-39.023s17.501-39.023,39.023-39.023h19.512
	V304.129z"/>
<path style="fill:#FED2A4;" d="M363.314,226.082v87.803c0,59.12-48.193,108.615-107.314,108.615s-107.314-49.495-107.314-108.615
	v-87.803l24.39-19.512h176.776L363.314,226.082z"/>
<path style="fill:#FFBD86;" d="M363.314,226.082v87.803c0,59.12-48.193,108.615-107.314,108.615V206.57h93.851L363.314,226.082z"/>
<rect x="285.27" y="265.11" style="fill:#444444;" width="19.512" height="19.512"/>
<rect x="207.22" y="265.11" style="fill:#5A5A5A;" width="19.512" height="19.512"/>
<path style="fill:#B34F03;" d="M304.779,343.152v19.512h-2.927c-16.975,0-33.364-6.244-45.852-17.561
	c-12.488,11.317-28.877,17.561-45.852,17.561h-2.927v-19.512h2.927c14.048,0,27.316-5.853,36.682-16.195l2.926-3.317h12.488
	l2.926,3.317c9.366,10.342,22.634,16.195,36.682,16.195H304.779z"/>
<path style="fill:#913F02;" d="M301.852,343.152h2.927v19.512h-2.927c-16.975,0-33.364-6.244-45.852-17.561v-21.462h6.244
	l2.926,3.317C274.536,337.299,287.804,343.152,301.852,343.152z"/>
<rect x="148.689" y="171.414" transform="matrix(-0.8321 -0.5547 0.5547 -0.8321 175.6911 466.3739)" width="19.512" height="70.353"/>
<polygon style="fill:#5A5A5A;" points="177.953,167.547 175.636,201.936 216.977,245.594 259.293,199.985 256,167.547 "/>
<polygon style="fill:#444444;" points="256,167.547 256.854,208.278 295.023,245.594 336.364,201.936 334.047,167.547 "/>
<path style="fill:#5A5A5A;" d="M89.5,167.547v9.756c0,28.438,18.152,52.827,42.929,63.084l43.695-38.695l1.829-34.146H89.5V167.547z
	"/>
<path style="fill:#444444;" d="M334.047,167.547l3.336,36.557l42.189,36.283c24.777-10.257,42.929-34.647,42.929-63.084v-9.756
	L334.047,167.547L334.047,167.547z"/>
<polygon style="fill:#FFD400;" points="295.023,245.594 216.977,245.594 256,167.547 "/>
<g>
	<polygon style="fill:#FF9F00;" points="295.023,245.594 256,245.594 256,167.547 	"/>
	<path style="fill:#FF9F00;" d="M295.023,245.594h58.535c9.214,0,17.985-1.883,26.013-5.207l-45.525-72.84L295.023,245.594z"/>
</g>
<path style="fill:#FFD400;" d="M132.429,240.387c8.028,3.324,16.799,5.207,26.013,5.207h58.535l-39.023-78.047L132.429,240.387z"/>
<g>
</g>
<g>
</g>
<g>
</g>
<g>
</g>
<g>
</g>
<g>
</g>
<g>
</g>
<g>
</g>
<g>
</g>
<g>
</g>
<g>
</g>
<g>
</g>
<g>
</g>
<g>
</g>
<g>
</g>
</svg>
