<?xml version="1.0" encoding="iso-8859-1"?>
<!-- Generator: Adobe Illustrator 19.0.0, SVG Export Plug-In . SVG Version: 6.00 Build 0)  -->
<svg version="1.1" id="Capa_1" xmlns="http://www.w3.org/2000/svg" xmlns:xlink="http://www.w3.org/1999/xlink" x="0px" y="0px"
	 viewBox="0 0 512 512" style="enable-background:new 0 0 512 512;" xml:space="preserve">
<circle style="fill:#FFD400;" cx="256" cy="256" r="256"/>
<path style="fill:#BF9F00;" d="M508.264,299.734L295.529,87l-48.434,39.529L119.866,313.075c0,0,31.584,31.597,31.883,31.889
	c5.193,17.599,27.988,46.79,27.988,46.79L296.743,508.76C404.493,491.525,489.786,407.063,508.264,299.734z"/>
<path style="fill:#F6A96C;" d="M364.706,324.176h-19.765v-79.059h19.765c21.801,0,39.529,17.728,39.529,39.529
	C404.235,306.448,386.507,324.176,364.706,324.176z"/>
<path style="fill:#FFBD86;" d="M167.059,324.176h-19.765c-21.801,0-39.529-17.728-39.529-39.529s17.728-39.529,39.529-39.529h19.765
	V324.176z"/>
<path style="fill:#FED2A4;" d="M364.706,284.647v25.496c0,57.713-43.087,107.124-98.033,112.263
	C263.115,422.802,259.557,423,256,423h-0.198c-27.078,0-52.574-9.882-72.932-28.263c-22.532-20.556-35.576-49.807-35.576-80.442
	v-29.647l59.294-69.176h98.824L364.706,284.647z"/>
<path style="fill:#FFBD86;" d="M364.706,284.647v25.496c0,57.713-43.087,107.124-98.033,112.263
	C263.115,422.802,259.557,423,256,423V215.471h49.412L364.706,284.647z"/>
<path style="fill:#5A5A5A;" d="M206.588,235.235V215.47h-59.294v69.176h9.882C184.421,284.647,206.588,262.479,206.588,235.235z"/>
<path style="fill:#444444;" d="M305.412,235.235c0,27.244,22.168,49.412,49.412,49.412h9.882v-69.176h-59.294L305.412,235.235
	L305.412,235.235z"/>
<path style="fill:#B34F03;" d="M305.412,343.941v19.765h-2.965c-17.195,0-33.797-6.325-46.447-17.789
	c-12.65,11.464-29.251,17.789-46.447,17.789h-2.965v-19.765h2.965c14.23,0,27.67-5.929,37.158-16.405l2.964-3.36h12.65l2.964,3.36
	c9.488,10.476,22.928,16.405,37.158,16.405L305.412,343.941L305.412,343.941z"/>
<rect x="285.65" y="264.88" style="fill:#444444;" width="19.765" height="19.765"/>
<rect x="206.59" y="264.88" style="fill:#5A5A5A;" width="19.765" height="19.765"/>
<path style="fill:#F40000;" d="M295.529,87v19.765c-16.405,0-29.647,13.242-29.647,29.647h-19.765
	c0-11.068,3.558-21.346,9.882-29.449C264.894,94.905,279.322,87,295.529,87z"/>
<path style="fill:#913F02;" d="M305.412,343.941v19.765h-2.965c-17.195,0-33.797-6.325-46.447-17.789v-21.741h6.325l2.964,3.36
	c9.488,10.476,22.928,16.405,37.158,16.405L305.412,343.941L305.412,343.941z"/>
<path style="fill:#C10000;" d="M295.529,87v19.765c-16.405,0-29.647,13.242-29.647,29.647H256v-29.449
	C264.894,94.905,279.322,87,295.529,87z"/>
<path style="fill:#FF3636;" d="M377.75,182.661c-23.52-35.181-62.654-56.131-104.753-56.131h-33.995
	c-42.099,0-81.233,20.951-104.753,56.131c-4.349,6.523-6.721,14.231-6.721,22.136c0,22.334,17.985,40.321,40.32,40.321H344.15
	c22.334,0,40.32-17.987,40.32-40.321C384.471,196.892,382.099,189.183,377.75,182.661z"/>
<g>
	<path style="fill:#F40000;" d="M384.471,204.797c0,22.334-17.985,40.321-40.32,40.321H256V126.529h16.997
		c42.099,0,81.233,20.951,104.753,56.131C382.099,189.183,384.471,196.892,384.471,204.797z"/>
	<path style="fill:#F40000;" d="M305.412,195.706h-19.765c0-26.683-13.638-49.412-29.647-49.412s-29.647,22.729-29.647,49.412
		h-19.765c0-38.739,21.741-69.176,49.412-69.176S305.412,156.967,305.412,195.706z"/>
</g>
<path style="fill:#C10000;" d="M305.412,195.706h-19.765c0-26.683-13.638-49.412-29.647-49.412v-19.765
	C283.671,126.529,305.412,156.967,305.412,195.706z"/>
<g>
</g>
<g>
</g>
<g>
</g>
<g>
</g>
<g>
</g>
<g>
</g>
<g>
</g>
<g>
</g>
<g>
</g>
<g>
</g>
<g>
</g>
<g>
</g>
<g>
</g>
<g>
</g>
<g>
</g>
</svg>
