<?xml version="1.0" encoding="iso-8859-1"?>
<!-- Generator: Adobe Illustrator 19.0.0, SVG Export Plug-In . SVG Version: 6.00 Build 0)  -->
<svg version="1.1" id="Capa_1" xmlns="http://www.w3.org/2000/svg" xmlns:xlink="http://www.w3.org/1999/xlink" x="0px" y="0px"
	 viewBox="0 0 512 512" style="enable-background:new 0 0 512 512;" xml:space="preserve">
<circle style="fill:#00ABE9;" cx="256" cy="256" r="256"/>
<path style="fill:#136EF1;" d="M505.164,314.965L283.076,92.877L100.999,295.93l29.363,29.381l34.405,76.065l109.94,109.94
	C387.429,503.174,479.917,422.053,505.164,314.965z"/>
<path style="fill:#F6A96C;" d="M360.883,307.742h-20.977v-83.906h20.977c23.138,0,41.953,18.815,41.953,41.953
	S384.021,307.742,360.883,307.742z"/>
<path style="fill:#FFBD86;" d="M151.117,307.742H130.14c-23.138,0-41.953-18.815-41.953-41.953s18.815-41.953,41.953-41.953h20.977
	V307.742z"/>
<path style="fill:#FED2A4;" d="M360.883,244.813v73.418c0,63.768-51.603,116.77-115.371,116.77S130.141,382,130.141,318.231v-73.418
	l115.371-72.159L360.883,244.813z"/>
<path style="fill:#FFBD86;" d="M360.883,244.813v73.418c0,63.768-51.603,116.77-115.371,116.77V172.653L360.883,244.813z"/>
<path style="fill:#FF9F00;" d="M297.953,129.441c0,3.566-0.42,7.131-1.049,10.488H194.119c-0.629-3.357-1.049-6.923-1.049-10.488
	c0-28.948,23.494-52.441,52.441-52.441S297.953,100.494,297.953,129.441z"/>
<circle style="fill:#5A5A5A;" cx="203.56" cy="276.28" r="10.488"/>
<circle style="fill:#444444;" cx="287.46" cy="276.28" r="10.488"/>
<path style="fill:#FF641A;" d="M245.512,328.719c-17.411,0-31.465,14.054-31.465,31.465c0,17.41,14.054,31.465,31.465,31.465
	s31.465-14.055,31.465-31.465C276.977,342.773,262.923,328.719,245.512,328.719z"/>
<path style="fill:#FF3636;" d="M387.313,318.23c-11.537,0-20.138,5.244-26.011,11.957c-0.21-0.21-0.21-0.21-0.42-0.42
	c-5.874-6.503-14.264-11.537-25.591-11.537c-20.558,0-36.5,16.991-36.5,38.806c0,28.948,30.206,49.016,55.588,72.089l6.503,5.454
	l0.42,0.42l6.921-5.874c25.172-21.815,55.588-44.19,55.588-72.089C423.813,335.221,407.87,318.23,387.313,318.23z"/>
<path style="fill:#C10000;" d="M423.813,357.037c0,27.899-30.416,50.274-55.588,72.089L361.303,435l-0.42-0.42V329.767
	c0.21,0.21,0.21,0.21,0.42,0.42c5.873-6.713,14.474-11.957,26.011-11.957C407.87,318.23,423.813,335.221,423.813,357.037z"/>
<path style="fill:#FF4B00;" d="M276.977,360.184c0,17.41-14.054,31.465-31.465,31.465v-62.93
	C262.923,328.719,276.977,342.773,276.977,360.184z"/>
<path style="fill:#FF7816;" d="M296.905,139.93h-51.393V77c28.948,0,52.441,23.494,52.441,52.441
	C297.953,133.007,297.533,136.573,296.905,139.93z"/>
<path style="fill:#FDBF00;" d="M360.883,234.324v10.488h-31.465c-36.499,0-68.174-20.767-83.906-51.183
	c-15.732,30.416-47.407,51.183-83.906,51.183h-31.465v-10.488c0-63.77,51.603-115.371,115.371-115.371
	S360.883,170.555,360.883,234.324z"/>
<path style="fill:#FF9F00;" d="M360.883,234.324v10.488h-31.465c-36.499,0-68.174-20.767-83.906-51.183v-74.677
	C309.28,118.953,360.883,170.555,360.883,234.324z"/>
<g>
</g>
<g>
</g>
<g>
</g>
<g>
</g>
<g>
</g>
<g>
</g>
<g>
</g>
<g>
</g>
<g>
</g>
<g>
</g>
<g>
</g>
<g>
</g>
<g>
</g>
<g>
</g>
<g>
</g>
</svg>
