<?xml version="1.0" encoding="iso-8859-1"?>
<!-- Generator: Adobe Illustrator 19.0.0, SVG Export Plug-In . SVG Version: 6.00 Build 0)  -->
<svg version="1.1" id="Capa_1" xmlns="http://www.w3.org/2000/svg" xmlns:xlink="http://www.w3.org/1999/xlink" x="0px" y="0px"
	 viewBox="0 0 512 512" style="enable-background:new 0 0 512 512;" xml:space="preserve">
<circle style="fill:#F77E00;" cx="256" cy="256" r="256"/>
<path style="fill:#B95F00;" d="M512,256c0-23.649-3.222-46.543-9.225-68.284l-99.399-99.399l-19.65,99.306l-58.978-58.977
	L160.764,392.238l118.683,118.683C409.84,499.078,512,389.479,512,256z"/>
<rect x="354.25" y="225.87" style="fill:#444444;" width="39.3" height="58.951"/>
<path style="fill:#5A5A5A;" d="M344.426,176.744v49.126H128.273v-49.126c0-37.925,30.851-68.776,68.776-68.776h78.601
	C313.575,107.968,344.426,138.819,344.426,176.744z"/>
<path style="fill:#444444;" d="M344.426,176.744v49.126H236.35V107.968h39.3C313.575,107.968,344.426,138.819,344.426,176.744z"/>
<path style="fill:#FED2A4;" d="M344.426,265.17v49.126c0,59.736-48.34,109.386-108.076,109.386s-108.076-49.65-108.076-109.386
	V265.17H344.426z"/>
<path style="fill:#FFBD86;" d="M236.35,265.17h108.076v49.126c0,59.736-48.34,109.386-108.076,109.386V265.17z"/>
<path style="fill:#0095FF;" d="M314.951,186.569H157.749c-27.117,0-49.126,22.008-49.126,49.126v39.3
	c0,27.117,22.008,49.126,49.126,49.126h28.1c15.917,0,30.654-7.664,39.891-20.436l10.611-14.738l0.197-0.197l12.969,16.506
	c9.433,11.988,23.581,18.865,38.712,18.865h26.724c27.117,0,49.126-22.008,49.126-49.126v-39.3
	C364.076,208.577,342.068,186.569,314.951,186.569z"/>
<g>
	<path style="fill:#136EF1;" d="M364.076,235.695v39.3c0,27.117-22.008,49.126-49.126,49.126h-26.724
		c-15.131,0-29.279-6.877-38.712-18.865l-12.969-16.506l-0.197,0.197V186.569h78.601
		C342.068,186.569,364.076,208.577,364.076,235.695z"/>
	<polygon style="fill:#136EF1;" points="403.377,363.421 256,363.421 256,343.771 383.727,343.771 383.727,88.318 403.377,88.318 	
		"/>
</g>
<path style="fill:#EDE9E8;" d="M314.951,206.219H157.749c-16.31,0-29.475,13.165-29.475,29.475v39.3
	c0,16.31,13.165,29.475,29.475,29.475h28.1c9.628,0,18.471-4.519,23.974-12.183l19.454-27.117h13.755l22.008,27.903
	c5.698,7.271,14.148,11.397,23.187,11.397h26.724c16.31,0,29.475-13.165,29.475-29.475v-39.3
	C344.426,219.385,331.261,206.219,314.951,206.219z"/>
<path style="fill:#D2C5C2;" d="M344.426,235.695v39.3c0,16.31-13.165,29.475-29.475,29.475h-26.724
	c-9.04,0-17.489-4.127-23.187-11.397l-22.008-27.903h-6.682v-58.951h78.601C331.261,206.219,344.426,219.385,344.426,235.695z"/>
<path style="fill:#5A5A5A;" d="M236.35,324.121c-16.31,0-29.475,13.165-29.475,29.475s13.165,29.475,29.475,29.475
	s29.475-13.165,29.475-29.475S252.66,324.121,236.35,324.121z"/>
<path style="fill:#444444;" d="M265.825,353.596c0,16.31-13.165,29.475-29.475,29.475V324.12
	C252.66,324.121,265.825,337.286,265.825,353.596z"/>
<g>
</g>
<g>
</g>
<g>
</g>
<g>
</g>
<g>
</g>
<g>
</g>
<g>
</g>
<g>
</g>
<g>
</g>
<g>
</g>
<g>
</g>
<g>
</g>
<g>
</g>
<g>
</g>
<g>
</g>
</svg>
