<?xml version="1.0" encoding="iso-8859-1"?>
<!-- Generator: Adobe Illustrator 19.0.0, SVG Export Plug-In . SVG Version: 6.00 Build 0)  -->
<svg version="1.1" id="Capa_1" xmlns="http://www.w3.org/2000/svg" xmlns:xlink="http://www.w3.org/1999/xlink" x="0px" y="0px"
	 viewBox="0 0 512 512" style="enable-background:new 0 0 512 512;" xml:space="preserve">
<circle style="fill:#00ABE9;" cx="256" cy="256" r="256"/>
<path style="fill:#136EF1;" d="M511.18,276.529l-140.97-140.97L122.83,312.181l31.182,31.191l27.392,45.782l118.999,118.999
	C414.04,488.279,501.9,393.471,511.18,276.529z"/>
<path style="fill:#5A5A5A;" d="M401.02,207.016c0,64.002-64.968,116.016-145.02,116.016s-145.02-52.014-145.02-116.016
	S175.949,91,256,91S401.02,143.014,401.02,207.016z"/>
<path style="fill:#444444;" d="M401.02,207.016c0,64.002-64.968,116.016-145.02,116.016V91
	C336.051,91,401.02,143.014,401.02,207.016z"/>
<path style="fill:#F6A96C;" d="M362.348,323.031h-19.336v-77.344h19.336c21.328,0,38.672,17.344,38.672,38.672
	S383.676,323.031,362.348,323.031z"/>
<path style="fill:#FFBD86;" d="M168.988,323.031h-19.336c-21.328,0-38.672-17.344-38.672-38.672s17.344-38.672,38.672-38.672h19.336
	V323.031z"/>
<path style="fill:#FED2A4;" d="M343.012,265.023v19.336l19.336,19.336v5.607c0,42.152-23.589,81.147-58.008,99.71
	c-3.093,1.546-6.188-17.532-9.474-16.372c-3.287,1.354-6.575,23.139-9.862,24.105c-5.994,1.741-12.182,3.094-18.563,3.674
	C262.961,420.806,259.48,421,256,421h-0.194c-9.862,0-19.529-1.741-28.81-4.448c-2.901-0.773-5.994-22.365-8.895-23.525
	c-3.48-1.354-6.961,17.724-10.441,15.985c-8.121-4.255-16.049-10.571-23.203-16.951c-22.043-20.11-34.804-48.727-34.804-78.697
	v-9.668l19.336-19.336v-19.336l-19.336-19.336v-15.276c0-23.589,19.142-42.732,42.733-42.732H203.6
	c11.409,0,22.237,4.447,30.164,12.568c4.448,4.255,10.249,6.768,16.63,6.768h11.214c6.381,0,12.182-2.514,16.63-6.768
	c7.927-8.121,18.755-12.568,30.164-12.568h11.214c23.59,0,42.733,19.142,42.733,42.732v15.276L343.012,265.023z"/>
<path style="fill:#FFBD86;" d="M343.012,265.023v19.336l19.336,19.336v5.607c0,42.152-23.589,81.147-58.008,99.71
	c-3.093,1.546-6.188-17.532-9.474-16.372c-3.287,1.354-6.575,23.139-9.862,24.105c-5.994,1.741-12.182,3.094-18.563,3.674
	C262.961,420.806,259.48,421,256,421V207.016h5.607c6.381,0,12.182-2.514,16.63-6.768c7.927-8.121,18.755-12.568,30.164-12.568
	h11.214c23.59,0,42.733,19.142,42.733,42.732v15.276L343.012,265.023z"/>
<path style="fill:#5A5A5A;" d="M304.34,347.974v61.038c-6.188,3.093-12.569,5.801-19.336,7.734v-60.651l-13.729-13.728h-30.55
	l-13.729,13.728v60.457c-6.767-1.933-13.148-4.447-19.336-7.54v-61.038l24.943-24.943h46.794L304.34,347.974z"/>
<g>
	<path style="fill:#444444;" d="M304.34,347.974v61.038c-6.188,3.093-12.569,5.801-19.336,7.734v-60.651l-13.729-13.728H256v-19.336
		h23.397L304.34,347.974z"/>
	<rect x="227" y="265.02" style="fill:#444444;" width="58.01" height="19.336"/>
</g>
<rect x="256" y="265.02" style="fill:#292929;" width="29" height="19.336"/>
<polygon style="fill:#444444;" points="265.668,303.695 362.348,303.695 362.348,265.023 362.348,245.688 265.668,245.688 "/>
<path style="fill:#F77E00;" d="M285.004,284.359h58.008v-19.336h-58.008V284.359z"/>
<polygon style="fill:#5A5A5A;" points="246.332,245.688 149.652,245.688 149.652,265.023 149.652,303.695 246.332,303.695 "/>
<rect x="168.99" y="265.02" style="fill:#FF9F00;" width="58.01" height="19.336"/>
<g>
</g>
<g>
</g>
<g>
</g>
<g>
</g>
<g>
</g>
<g>
</g>
<g>
</g>
<g>
</g>
<g>
</g>
<g>
</g>
<g>
</g>
<g>
</g>
<g>
</g>
<g>
</g>
<g>
</g>
</svg>
