<?xml version="1.0" encoding="iso-8859-1"?>
<!-- Generator: Adobe Illustrator 19.0.0, SVG Export Plug-In . SVG Version: 6.00 Build 0)  -->
<svg version="1.1" id="Capa_1" xmlns="http://www.w3.org/2000/svg" xmlns:xlink="http://www.w3.org/1999/xlink" x="0px" y="0px"
	 viewBox="0 0 512 512" style="enable-background:new 0 0 512 512;" xml:space="preserve">
<circle style="fill:#00ABE9;" cx="256" cy="256" r="256"/>
<path style="fill:#136EF1;" d="M512,256c0-5.263-0.178-10.483-0.491-15.668L372.122,100.946L118.239,294.094l27.973,27.975
	l32.917,72.505L293.776,509.22C417.247,490.956,512,384.549,512,256z"/>
<path style="fill:#F6A96C;" d="M366,305.333h-20v-80h20c22.061,0,40,17.939,40,40S388.061,305.333,366,305.333z"/>
<path style="fill:#FFBD86;" d="M166,305.333h-20c-22.061,0-40-17.939-40-40s17.939-40,40-40h20V305.333z"/>
<path style="fill:#FED2A4;" d="M366,225.333v90c0,60.599-49.399,111.333-110,111.333s-110-50.734-110-111.333v-90l25-20h181.2
	L366,225.333z"/>
<path style="fill:#FFBD86;" d="M366,225.333v90c0,60.599-49.399,111.333-110,111.333V205.333h96.2L366,225.333z"/>
<rect x="286" y="265.33" style="fill:#444444;" width="20" height="20"/>
<rect x="206" y="265.33" style="fill:#5A5A5A;" width="20" height="20"/>
<path style="fill:#B34F03;" d="M306,345.333v20h-3c-17.4,0-34.199-6.4-47-18c-12.8,11.6-29.6,18-47,18h-3v-20h3
	c14.399,0,27.999-6,37.6-16.6l2.999-3.4h12.8l2.999,3.4c9.601,10.601,23.201,16.6,37.6,16.6H306z"/>
<path style="fill:#913F02;" d="M303,345.333h3v20h-3c-17.4,0-34.199-6.4-47-18v-22h6.4l2.999,3.4
	C275,339.334,288.6,345.333,303,345.333z"/>
<polygon style="fill:#FF641A;" points="386,198.733 386,249.133 256,205.933 126,249.133 126,191.932 218.6,142.733 256,148.134 
	322.6,157.533 "/>
<polygon style="fill:#FF4B00;" points="386,198.733 386,249.133 256,205.933 256,148.134 322.6,157.533 "/>
<path style="fill:#FF9F00;" d="M306,85.333l-50,36l-18.8,13.6l-111.2,10.4v-10c0-27.6,22.4-50,50-50
	C176,85.333,306,85.333,306,85.333z"/>
<path style="fill:#FF641A;" d="M386,135.333c0-10.072-3.051-19.421-8.195-27.279L268.743,119.59l66.193,42.064l51.064-2.98V135.333z
	"/>
<polygon style="fill:#FF9F00;" points="386,158.733 386,198.733 256,155.333 218.6,142.733 256,122.933 260.6,120.534 
	268.8,119.533 "/>
<g>
	<polygon style="fill:#FF7816;" points="386,158.733 386,198.733 256,155.333 256,122.933 260.6,120.534 268.8,119.533 	"/>
	<polygon style="fill:#FF7816;" points="306,85.333 256,121.333 256,85.333 	"/>
</g>
<path style="fill:#FDBF00;" d="M377.801,108.134L256,148.733l-130,43.199v-46.599l130-43.401l50-16.599h30
	C353.4,85.333,368.8,94.334,377.801,108.134z"/>
<path style="fill:#FF9F00;" d="M377.801,108.134L256,148.733v-46.801l50-16.599h30C353.4,85.333,368.8,94.334,377.801,108.134z"/>
<g>
</g>
<g>
</g>
<g>
</g>
<g>
</g>
<g>
</g>
<g>
</g>
<g>
</g>
<g>
</g>
<g>
</g>
<g>
</g>
<g>
</g>
<g>
</g>
<g>
</g>
<g>
</g>
<g>
</g>
</svg>
