<?xml version="1.0" encoding="iso-8859-1"?>
<!-- Generator: Adobe Illustrator 19.0.0, SVG Export Plug-In . SVG Version: 6.00 Build 0)  -->
<svg version="1.1" id="Capa_1" xmlns="http://www.w3.org/2000/svg" xmlns:xlink="http://www.w3.org/1999/xlink" x="0px" y="0px"
	 viewBox="0 0 512 512" style="enable-background:new 0 0 512 512;" xml:space="preserve">
<circle style="fill:#FF3636;" cx="256" cy="256" r="256"/>
<path style="fill:#C10000;" d="M510.168,286.638L335.241,111.71L256,86l-89.648,49.805l10.388,24.071l-63.831,218.868
	L245.95,511.786c3.335,0.128,6.682,0.214,10.05,0.214C387.015,512,495.026,413.576,510.168,286.638z"/>
<path style="fill:#FF9F00;" d="M186.273,295.18l-39.844-39.844c0,27.461-23.008,49.805-50.469,49.805H86v9.961
	c0,49.435,40.877,89.648,90.313,89.648h19.912L186.273,295.18z"/>
<path style="fill:#FF7816;" d="M416.039,305.141c-27.461,0-50.469-22.344-50.469-49.805l-39.844,39.844l-9.951,109.57h19.912
	c49.435,0,90.313-40.213,90.313-89.648v-9.961H416.039z"/>
<path style="fill:#FED2A4;" d="M365.57,265.297v45.621c0,58.172-43.43,109.304-98.813,114.484C263.172,425.801,259.586,426,256,426
	h-0.199c-27.293,0-52.992-11.289-73.512-29.816c-22.711-20.72-35.859-50.204-35.859-81.082v-49.805L256,180.629L365.57,265.297z"/>
<path style="fill:#FFBD86;" d="M365.57,265.297v45.621c0,58.172-43.43,109.304-98.813,114.484C263.172,425.801,259.586,426,256,426
	V180.629L365.57,265.297z"/>
<path style="fill:#FF641A;" d="M299.031,340.004c-8.766,15.34-25.3,24.902-43.031,24.902s-34.265-9.562-43.031-24.902l17.133-9.961
	c5.378,9.164,15.339,14.941,25.898,14.941c10.559,0,20.52-5.777,25.898-14.941L299.031,340.004z"/>
<rect x="285.88" y="265.3" style="fill:#444444;" width="19.922" height="19.922"/>
<rect x="206.19" y="265.3" style="fill:#5A5A5A;" width="19.922" height="19.922"/>
<path style="fill:#FF4B00;" d="M281.898,330.043l17.133,9.961c-8.766,15.34-25.3,24.902-43.031,24.902v-19.922
	C266.559,344.984,276.52,339.207,281.898,330.043z"/>
<path style="fill:#FDBF00;" d="M365.57,235.414v29.883h-9.961c-43.629,0-82.277-26.297-99.609-64.746
	c-17.332,38.449-55.98,64.746-99.609,64.746h-9.961v-29.883c0-60.364,49.206-109.57,109.57-109.57S365.57,175.05,365.57,235.414z"/>
<path style="fill:#FF9F00;" d="M365.57,235.414v29.883h-9.961c-43.629,0-82.277-26.297-99.609-64.746v-74.707
	C316.364,125.844,365.57,175.05,365.57,235.414z"/>
<path style="fill:#EDE9E8;" d="M256,86c-51.199,0-89.648,21.317-89.648,49.805S204.801,185.61,256,185.61
	s89.648-21.317,89.648-49.805S307.199,86,256,86z M256,165.688c-39.844,0-69.727-15.739-69.727-29.883
	c0-14.145,29.883-29.883,69.727-29.883s69.727,15.738,69.727,29.883C325.727,149.948,295.844,165.688,256,165.688z"/>
<path style="fill:#DFD7D5;" d="M345.648,135.805c0,28.488-38.449,49.805-89.648,49.805v-19.922
	c39.844,0,69.727-15.739,69.727-29.883c0-14.145-29.883-29.883-69.727-29.883V86C307.199,86,345.648,107.317,345.648,135.805z"/>
<g>
</g>
<g>
</g>
<g>
</g>
<g>
</g>
<g>
</g>
<g>
</g>
<g>
</g>
<g>
</g>
<g>
</g>
<g>
</g>
<g>
</g>
<g>
</g>
<g>
</g>
<g>
</g>
<g>
</g>
</svg>
