<?xml version="1.0" encoding="iso-8859-1"?>
<!-- Generator: Adobe Illustrator 19.0.0, SVG Export Plug-In . SVG Version: 6.00 Build 0)  -->
<svg version="1.1" id="Capa_1" xmlns="http://www.w3.org/2000/svg" xmlns:xlink="http://www.w3.org/1999/xlink" x="0px" y="0px"
	 viewBox="0 0 512 512" style="enable-background:new 0 0 512 512;" xml:space="preserve">
<circle style="fill:#FFD400;" cx="256" cy="256" r="256"/>
<path style="fill:#BF9F00;" d="M511.912,262.71L411.003,161.8l-28.122-15.106l-45.332-45.322l-80.34,9.908l-10-10L107.046,293.274
	l41.145,41.146l30.909,59.024l115.64,115.64C415.59,490.739,508.691,387.905,511.912,262.71z"/>
<path style="fill:#B34F03;" d="M357.004,163.098l-32.872,39.844H187.868l-32.872-39.844l5.777-34.664
	C164.957,103.929,185.875,86,210.777,86c19.325,0,36.457,10.558,45.223,27.492C264.766,96.558,281.898,86,301.223,86
	c24.902,0,45.82,17.929,50.004,42.434L357.004,163.098z"/>
<g>
	<path style="fill:#913F02;" d="M324.132,202.941H256v-89.449C264.766,96.558,281.898,86,301.223,86
		c24.902,0,45.82,17.929,50.004,42.434l5.777,34.664L324.132,202.941z"/>
	<path style="fill:#913F02;" d="M426,197.961v32.672c0,18.527-7.172,36.059-20.52,49.206l-42.898,42.234L256,322.871l-105.188,0.597
		l-33.734-22.113C97.555,288.406,86,266.692,86,243.184v-45.223c0-28.688,24.172-52.195,52.859-52.195
		c13.946,0,27.093,5.378,36.855,15.339l12.551,12.353c7.77,7.769,18.13,12.152,29.286,12.152h76.898
		c11.156,0,21.516-4.383,29.286-12.152l12.551-12.353c9.562-9.762,23.109-15.339,36.855-15.339
		C401.828,145.766,426,169.273,426,197.961z"/>
</g>
<path style="fill:#6F2E01;" d="M426,197.961v32.672c0,18.527-7.172,36.059-20.52,49.206l-42.898,42.234L256,322.871V185.609h38.449
	c11.156,0,21.516-4.383,29.286-12.152l12.551-12.353c9.562-9.762,23.109-15.339,36.855-15.339
	C401.828,145.766,426,169.273,426,197.961z"/>
<path style="fill:#FED2A4;" d="M365.57,248.961v66.141c0,14.144-2.789,27.492-7.57,39.844L256,343.79l-102,11.156
	c-4.781-12.351-7.57-25.7-7.57-39.844v-66.141l5.976-2.789c1.794-0.796,47.015-20.718,103.594-20.718s101.8,19.922,103.594,20.718
	L365.57,248.961z"/>
<path style="fill:#FFBD86;" d="M365.57,248.961v66.141c0,14.144-2.789,27.492-7.57,39.844L256,343.79V225.453
	c56.579,0,101.8,19.922,103.594,20.718L365.57,248.961z"/>
<rect x="285.88" y="265.3" style="fill:#444444;" width="19.922" height="19.922"/>
<rect x="206.19" y="265.3" style="fill:#5A5A5A;" width="19.922" height="19.922"/>
<path style="fill:#FF3636;" d="M358,354.945C342.063,395.785,302.418,426,256,426s-86.063-30.215-102-71.055l102-51L358,354.945z"/>
<path style="fill:#F40000;" d="M358,354.945C342.063,395.785,302.418,426,256,426V303.945L358,354.945z"/>
<g>
</g>
<g>
</g>
<g>
</g>
<g>
</g>
<g>
</g>
<g>
</g>
<g>
</g>
<g>
</g>
<g>
</g>
<g>
</g>
<g>
</g>
<g>
</g>
<g>
</g>
<g>
</g>
<g>
</g>
</svg>
