<?xml version="1.0" encoding="iso-8859-1"?>
<!-- Generator: Adobe Illustrator 19.0.0, SVG Export Plug-In . SVG Version: 6.00 Build 0)  -->
<svg version="1.1" id="Capa_1" xmlns="http://www.w3.org/2000/svg" xmlns:xlink="http://www.w3.org/1999/xlink" x="0px" y="0px"
	 viewBox="0 0 512 512" style="enable-background:new 0 0 512 512;" xml:space="preserve">
<circle style="fill:#F77E00;" cx="256" cy="256" r="256"/>
<path style="fill:#B95F00;" d="M512,256c0-1.573-0.031-3.138-0.06-4.704l-96.565-96.565H96.625l40.616,40.478l9.189,23.485
	L155.625,230l-36.846,63.947l27.86,27.867l32.718,72.295l115.026,115.026C417.559,490.614,512,384.339,512,256z"/>
<polygon style="fill:#0095FF;" points="415.375,154.731 375.531,185.609 348.835,205.531 161.969,205.531 136.469,185.609 
	96.625,154.731 192.848,86 319.152,86 "/>
<polygon style="fill:#136EF1;" points="415.375,154.731 375.531,185.609 348.835,205.531 256,205.531 256,86 319.152,86 "/>
<path style="fill:#F6A96C;" d="M365.57,305.141h-19.922v-79.688h19.922c21.974,0,39.844,17.869,39.844,39.844
	S387.545,305.141,365.57,305.141z"/>
<path style="fill:#FFBD86;" d="M166.352,305.141H146.43c-21.974,0-39.844-17.869-39.844-39.844s17.869-39.844,39.844-39.844h19.922
	L166.352,305.141L166.352,305.141z"/>
<path style="fill:#FED2A4;" d="M365.57,195.57v119.531C365.57,375.664,316.562,426,256,426s-109.57-50.336-109.57-110.898V195.57
	H365.57z"/>
<path style="fill:#FFBD86;" d="M365.57,195.57v119.531C365.57,375.664,316.562,426,256,426V195.57H365.57z"/>
<path style="fill:#B34F03;" d="M305.805,344.984v19.922h-2.989c-17.332,0-34.066-6.375-46.816-17.93
	c-12.75,11.555-29.484,17.93-46.816,17.93h-2.989v-19.922h2.989c14.343,0,27.89-5.976,37.453-16.536l2.988-3.386h12.75l2.988,3.386
	c9.563,10.559,23.11,16.536,37.453,16.536H305.805z"/>
<rect x="285.88" y="265.3" style="fill:#444444;" width="19.922" height="19.922"/>
<rect x="206.19" y="265.3" style="fill:#5A5A5A;" width="19.922" height="19.922"/>
<path style="fill:#913F02;" d="M302.816,344.984h2.989v19.922h-2.989c-17.332,0-34.066-6.375-46.816-17.93v-21.914h6.375
	l2.988,3.386C274.926,339.008,288.473,344.984,302.816,344.984z"/>
<rect x="246.04" y="125.84" style="fill:#FFB64C;" width="19.922" height="19.922"/>
<path style="fill:#5A5A5A;" d="M375.531,185.609c0,16.534-6.774,31.476-17.531,42.234c-10.757,10.757-25.699,17.531-42.234,17.531
	H196.234c-33.07,0-59.766-26.696-59.766-59.766L375.531,185.609L375.531,185.609z"/>
<path style="fill:#444444;" d="M375.531,185.609c0,16.534-6.774,31.476-17.531,42.234c-10.757,10.757-25.699,17.531-42.234,17.531
	H256v-59.766L375.531,185.609L375.531,185.609z"/>
<rect x="256" y="125.84" style="fill:#FF9F00;" width="9.961" height="19.922"/>
<g>
</g>
<g>
</g>
<g>
</g>
<g>
</g>
<g>
</g>
<g>
</g>
<g>
</g>
<g>
</g>
<g>
</g>
<g>
</g>
<g>
</g>
<g>
</g>
<g>
</g>
<g>
</g>
<g>
</g>
</svg>
