<?xml version="1.0" encoding="iso-8859-1"?>
<!-- Generator: Adobe Illustrator 19.0.0, SVG Export Plug-In . SVG Version: 6.00 Build 0)  -->
<svg version="1.1" id="Capa_1" xmlns="http://www.w3.org/2000/svg" xmlns:xlink="http://www.w3.org/1999/xlink" x="0px" y="0px"
	 viewBox="0 0 512 512" style="enable-background:new 0 0 512 512;" xml:space="preserve">
<circle style="fill:#FFD400;" cx="256" cy="256" r="256"/>
<path style="fill:#BF9F00;" d="M511.753,266.92l-143.19-143.19L117.969,314.207l32.251,32.263l28.694,48.305L293.41,509.271
	C413.542,491.679,506.557,390.658,511.753,266.92z"/>
<path style="fill:#B34F03;" d="M406.293,215.254v70.137H105.707v-70.137c0-46.691,35.67-85.166,81.158-89.775
	C191.274,102.434,211.514,85,235.961,85h40.078C347.779,85,406.293,143.514,406.293,215.254z"/>
<path style="fill:#913F02;" d="M406.293,215.254v70.137H256V85h20.039C347.779,85,406.293,143.514,406.293,215.254z"/>
<path style="fill:#F6A96C;" d="M366.215,325.469h-20.039v-80.156h20.039c22.104,0,40.078,17.974,40.078,40.078
	S388.318,325.469,366.215,325.469z"/>
<path style="fill:#FFBD86;" d="M165.824,325.469h-20.039c-22.104,0-40.078-17.974-40.078-40.078s17.974-40.078,40.078-40.078h20.039
	V325.469z"/>
<path style="fill:#FED2A4;" d="M256,165.156c-7.414,0-14.829,0.801-22.042,2.204l-8.016,1.603v26.251
	c0,27.654-22.444,50.098-50.098,50.098h-30.059v70.137C145.785,376.168,195.281,427,256,427s110.215-50.832,110.215-111.551v-40.078
	C366.215,214.652,316.719,165.156,256,165.156z"/>
<path style="fill:#FFBD86;" d="M366.215,275.371v40.078C366.215,376.168,316.719,427,256,427V165.156
	C316.719,165.156,366.215,214.652,366.215,275.371z"/>
<path style="fill:#FF641A;" d="M299.284,340.498c-8.817,15.43-25.449,25.049-43.284,25.049s-34.467-9.618-43.284-25.049
	l17.233-10.02c5.41,9.218,15.429,15.029,26.051,15.029c10.621,0,20.641-5.811,26.051-15.029L299.284,340.498z"/>
<rect x="286.06" y="265.35" style="fill:#444444;" width="20.04" height="20.04"/>
<rect x="205.9" y="265.35" style="fill:#5A5A5A;" width="20.04" height="20.04"/>
<path style="fill:#FF4B00;" d="M282.051,330.479l17.233,10.02c-8.817,15.43-25.449,25.049-43.284,25.049v-20.039
	C266.621,345.508,276.641,339.697,282.051,330.479z"/>
<g>
</g>
<g>
</g>
<g>
</g>
<g>
</g>
<g>
</g>
<g>
</g>
<g>
</g>
<g>
</g>
<g>
</g>
<g>
</g>
<g>
</g>
<g>
</g>
<g>
</g>
<g>
</g>
<g>
</g>
</svg>
